{"glyphs":{"0":{"ha":1026,"x_min":76,"x_max":949,"o":"m 244 472 q 192 185 169 310 q 308 22 214 60 q 513 58 401 -15 l 513 -25 q 243 -63 354 -103 q 104 119 132 -24 q 151 472 76 261 l 244 472 m 151 472 q 104 826 76 683 q 243 1008 132 968 q 513 969 354 1047 l 513 886 q 308 922 401 960 q 192 760 214 885 q 244 472 169 635 l 151 472 m 874 472 q 922 119 949 261 q 783 -63 894 -24 q 513 -25 672 -103 l 513 58 q 718 22 624 -15 q 835 185 813 60 q 782 472 857 310 l 874 472 m 782 472 q 835 760 857 635 q 718 922 813 885 q 513 886 624 960 l 513 969 q 783 1008 672 1047 q 922 826 894 968 q 874 472 949 683 l 782 472 z "},"1":{"ha":575,"x_min":43,"x_max":450,"o":"m 343 944 q 352 652 375 774 q 250 497 329 531 q 43 542 171 463 l 43 635 q 215 585 142 561 q 318 708 288 608 q 328 944 349 808 l 343 944 m 450 944 l 450 0 l 325 0 l 325 944 l 450 944 z "},"2":{"ha":960,"x_min":65,"x_max":897,"o":"m 149 111 l 817 111 l 817 0 l 149 0 l 149 111 m 811 675 q 872 436 897 540 q 739 311 847 332 q 497 375 631 290 l 497 468 q 674 400 585 385 q 783 501 764 415 q 718 675 803 586 l 811 675 m 160 658 q 99 896 75 793 q 233 1022 124 999 q 482 969 342 1046 l 482 886 q 298 940 388 960 q 190 835 208 921 q 251 658 171 750 l 160 658 m 718 675 q 781 842 800 761 q 669 942 761 924 q 482 886 576 960 l 482 969 q 733 1023 622 1046 q 869 901 843 1000 q 811 675 896 803 l 718 675 m 149 111 q 92 406 65 283 q 233 556 119 528 q 497 500 347 585 l 497 407 q 299 465 394 489 q 181 338 203 442 q 240 111 158 233 l 149 111 z "},"3":{"ha":985,"x_min":40,"x_max":914,"o":"m 801 715 q 853 555 871 621 q 737 465 836 489 q 474 474 638 442 l 474 500 q 667 499 588 475 q 760 582 746 522 q 708 715 774 642 l 801 715 m 474 544 l 474 419 l 349 419 l 349 544 l 474 544 m 708 715 q 774 859 793 786 q 665 946 756 932 q 483 886 575 960 l 483 969 q 730 1027 621 1046 q 864 918 839 1008 q 801 715 889 828 l 708 715 m 735 271 q 782 402 799 343 q 681 485 765 461 q 474 486 596 508 l 474 543 q 747 560 639 583 q 878 458 854 536 q 828 271 901 379 l 735 271 m 828 271 q 885 44 914 143 q 742 -77 857 -54 q 476 -25 626 -100 l 476 58 q 676 3 579 -14 q 795 103 772 21 q 735 271 818 185 l 828 271 m 156 692 q 96 908 69 813 q 233 1025 122 1004 q 483 969 343 1046 l 483 886 q 297 944 389 960 q 185 850 206 928 q 249 692 165 772 l 156 692 m 219 264 q 159 99 136 179 q 278 3 182 19 q 476 58 374 -14 l 476 -25 q 213 -78 329 -100 q 69 42 97 -56 q 126 264 40 139 l 219 264 z "},"4":{"ha":840,"x_min":47,"x_max":797,"o":"m 496 944 l 629 944 l 179 308 l 47 308 l 496 944 m 47 308 l 797 308 l 797 197 l 47 197 l 47 308 m 640 944 l 640 0 l 515 0 l 515 944 l 640 944 z "},"5":{"ha":957,"x_min":32,"x_max":896,"o":"m 271 403 q 252 601 236 528 q 328 680 268 675 q 476 619 388 685 l 476 536 q 350 595 400 597 q 281 539 300 593 q 278 403 263 485 l 271 403 m 249 944 l 365 944 l 274 403 l 158 403 l 249 944 m 772 944 l 772 833 l 286 833 l 286 944 l 772 944 m 719 310 q 781 487 801 401 q 667 591 760 572 q 476 536 574 610 l 476 619 q 732 672 619 696 q 870 545 844 647 q 813 310 896 443 l 719 310 m 813 310 q 869 58 896 167 q 729 -76 842 -50 q 471 -25 617 -101 l 471 58 q 665 7 571 -15 q 779 119 758 29 q 719 310 800 210 l 813 310 m 210 271 q 151 102 128 183 q 270 3 174 21 q 471 58 367 -14 l 471 -25 q 205 -77 321 -100 q 60 44 89 -54 q 118 271 32 143 l 210 271 z "},"6":{"ha":989,"x_min":65,"x_max":933,"o":"m 721 301 q 782 481 803 394 q 669 588 761 568 q 479 533 576 607 l 479 617 q 733 669 622 693 q 871 541 844 644 q 814 301 897 438 l 721 301 m 147 321 q 113 761 81 585 q 261 993 146 938 q 547 969 376 1049 l 547 886 q 322 906 421 960 q 194 693 222 851 q 235 321 167 535 l 147 321 m 235 321 q 179 128 157 222 q 295 10 201 35 q 488 60 389 -14 l 488 -24 q 233 -72 344 -103 q 94 72 122 -40 q 147 321 65 183 l 235 321 m 251 322 q 232 557 214 464 q 316 668 250 650 q 479 617 382 686 l 479 533 q 343 585 400 597 q 264 500 286 574 q 261 322 242 426 l 251 322 m 753 736 q 821 867 838 799 q 718 948 804 936 q 547 885 632 960 l 547 969 q 783 1028 676 1046 q 911 925 889 1011 q 846 736 933 839 l 753 736 m 814 301 q 871 56 896 163 q 737 -75 846 -50 q 488 -24 628 -100 l 488 60 q 672 7 582 -14 q 782 116 763 28 q 721 301 801 204 l 814 301 z "},"7":{"ha":732,"x_min":40,"x_max":694,"o":"m 211 1 q 194 484 154 289 q 363 767 233 679 q 694 828 492 856 l 694 801 q 430 722 542 811 q 280 450 318 633 q 304 1 242 267 l 211 1 m 690 944 l 690 819 l 40 819 l 40 944 l 690 944 z "},"8":{"ha":1010,"x_min":58,"x_max":943,"o":"m 821 700 q 876 568 893 624 q 760 496 860 513 q 501 511 661 479 l 501 540 q 693 535 615 515 q 782 601 771 554 q 729 700 793 647 l 821 700 m 275 700 q 222 601 211 647 q 310 535 233 554 q 501 540 388 515 l 501 511 q 243 496 342 479 q 128 568 144 513 q 182 700 111 624 l 275 700 m 729 700 q 795 855 815 778 q 683 944 775 932 q 501 874 592 956 l 501 967 q 749 1033 638 1051 q 885 919 860 1015 q 821 700 911 822 l 729 700 m 763 276 q 815 405 833 344 q 707 487 796 465 q 500 472 618 508 l 500 525 q 773 552 663 574 q 908 454 883 531 q 854 276 933 378 l 763 276 m 146 276 q 92 454 68 378 q 228 552 117 531 q 500 525 339 574 l 500 472 q 294 487 383 508 q 187 405 206 465 q 239 276 168 344 l 146 276 m 854 276 q 914 40 943 142 q 767 -83 885 -62 q 500 -22 649 -104 l 500 71 q 701 6 603 -10 q 824 104 800 21 q 763 276 847 188 l 854 276 m 182 700 q 119 919 93 822 q 256 1033 144 1015 q 501 967 367 1051 l 501 874 q 321 944 413 956 q 209 855 229 932 q 275 700 189 778 l 182 700 m 239 276 q 177 104 153 188 q 300 6 201 21 q 500 71 399 -10 l 500 -22 q 235 -83 353 -104 q 88 40 117 -62 q 146 276 58 142 l 239 276 z "},"9":{"ha":989,"x_min":54,"x_max":922,"o":"m 268 643 q 207 463 186 550 q 320 357 228 376 q 510 411 413 338 l 510 328 q 256 276 367 251 q 118 403 144 300 q 175 643 92 507 l 268 643 m 842 624 q 876 183 908 360 q 728 -49 843 7 q 442 -25 613 -104 l 442 58 q 667 39 568 -15 q 794 251 767 93 q 754 624 822 410 l 842 624 m 754 624 q 810 816 832 722 q 694 934 788 910 q 501 885 600 958 l 501 968 q 756 1016 644 1047 q 895 873 867 985 q 842 624 924 761 l 754 624 m 738 622 q 757 388 775 481 q 673 276 739 294 q 510 328 607 258 l 510 411 q 646 359 589 347 q 725 444 703 371 q 728 622 747 518 l 738 622 m 236 208 q 168 77 151 146 q 271 -3 185 8 q 442 60 357 -15 l 442 -25 q 206 -84 313 -101 q 78 19 100 -67 q 143 208 56 106 l 236 208 m 175 643 q 118 888 93 782 q 252 1019 143 994 q 501 968 361 1044 l 501 885 q 317 938 407 958 q 207 828 226 917 q 268 643 188 740 l 175 643 z "}," ":{"ha":417,"x_min":0,"x_max":0,"o":""},"A":{"ha":1004,"x_min":36,"x_max":968,"o":"m 840 0 l 454 1000 l 582 1000 l 968 0 l 840 0 m 422 1000 l 547 1000 l 161 0 l 36 0 l 422 1000 m 243 376 l 758 376 l 758 265 l 243 265 l 243 376 z "},"Á":{"ha":1004,"x_min":36,"x_max":968,"o":"m 840 0 l 454 1000 l 582 1000 l 968 0 l 840 0 m 422 1000 l 547 1000 l 161 0 l 36 0 l 422 1000 m 243 376 l 758 376 l 758 265 l 243 265 l 243 376 m 333 1097 q 318 1286 290 1211 q 433 1369 346 1361 q 647 1307 521 1378 l 647 1215 q 469 1282 547 1283 q 359 1225 392 1281 q 354 1097 326 1169 l 333 1097 z "},"Ă":{"ha":1004,"x_min":36,"x_max":968,"o":"m 840 0 l 454 1000 l 582 1000 l 968 0 l 840 0 m 422 1000 l 547 1000 l 161 0 l 36 0 l 422 1000 m 243 376 l 758 376 l 758 265 l 243 265 l 243 376 m 388 1294 q 310 1185 307 1246 q 378 1113 314 1124 q 503 1172 443 1103 l 503 1099 q 317 1041 401 1026 q 222 1132 233 1056 q 294 1294 210 1208 l 388 1294 m 711 1296 q 784 1133 796 1210 q 688 1041 772 1056 q 503 1099 604 1026 l 503 1172 q 627 1113 563 1103 q 695 1185 692 1124 q 618 1296 699 1246 l 711 1296 z "},"Â":{"ha":1004,"x_min":36,"x_max":968,"o":"m 840 0 l 454 1000 l 582 1000 l 968 0 l 840 0 m 422 1000 l 547 1000 l 161 0 l 36 0 l 422 1000 m 243 376 l 758 376 l 758 265 l 243 265 l 243 376 m 435 1124 l 294 1124 l 422 1294 l 563 1294 l 435 1124 m 583 1294 l 711 1124 l 571 1124 l 443 1294 l 583 1294 z "},"Ä":{"ha":1004,"x_min":36,"x_max":968,"o":"m 840 0 l 454 1000 l 582 1000 l 968 0 l 840 0 m 422 1000 l 547 1000 l 161 0 l 36 0 l 422 1000 m 243 376 l 758 376 l 758 265 l 243 265 l 243 376 m 569 1285 l 729 1285 l 729 1132 l 569 1132 l 569 1285 m 276 1285 l 436 1285 l 436 1132 l 276 1132 l 276 1285 z "},"Ȧ":{"ha":1004,"x_min":36,"x_max":968,"o":"m 840 0 l 454 1000 l 582 1000 l 968 0 l 840 0 m 422 1000 l 547 1000 l 161 0 l 36 0 l 422 1000 m 243 376 l 758 376 l 758 265 l 243 265 l 243 376 m 419 1285 l 586 1285 l 586 1131 l 419 1131 l 419 1285 z "},"Ạ":{"ha":1004,"x_min":36,"x_max":968,"o":"m 840 0 l 454 1000 l 582 1000 l 968 0 l 840 0 m 422 1000 l 547 1000 l 161 0 l 36 0 l 422 1000 m 243 376 l 758 376 l 758 265 l 243 265 l 243 376 z "},"À":{"ha":1004,"x_min":36,"x_max":968,"o":"m 840 0 l 454 1000 l 582 1000 l 968 0 l 840 0 m 422 1000 l 547 1000 l 161 0 l 36 0 l 422 1000 m 243 376 l 758 376 l 758 265 l 243 265 l 243 376 m 651 1097 q 647 1225 679 1169 q 536 1282 614 1281 q 358 1215 458 1283 l 358 1307 q 572 1369 485 1378 q 688 1286 660 1361 q 672 1097 715 1211 l 651 1097 z "},"Ā":{"ha":1004,"x_min":36,"x_max":968,"o":"m 840 0 l 454 1000 l 582 1000 l 968 0 l 840 0 m 422 1000 l 547 1000 l 161 0 l 36 0 l 422 1000 m 243 376 l 758 376 l 758 265 l 243 265 l 243 376 m 278 1285 l 726 1285 l 726 1167 l 278 1167 l 278 1285 z "},"Ą":{"ha":1004,"x_min":36,"x_max":1054,"o":"m 840 0 l 454 1000 l 582 1000 l 968 0 l 840 0 m 422 1000 l 547 1000 l 161 0 l 36 0 l 422 1000 m 243 376 l 758 376 l 758 265 l 243 265 l 243 376 m 875 0 q 850 -134 833 -71 q 926 -201 867 -197 q 1054 -129 985 -204 l 1054 -222 q 890 -292 961 -301 q 803 -199 819 -282 q 840 0 786 -117 l 875 0 z "},"Å":{"ha":1004,"x_min":36,"x_max":968,"o":"m 840 0 l 454 1000 l 582 1000 l 968 0 l 840 0 m 422 1000 l 547 1000 l 161 0 l 36 0 l 422 1000 m 243 376 l 758 376 l 758 265 l 243 265 l 243 376 m 347 1243 q 292 1376 288 1322 q 356 1435 296 1429 q 503 1392 415 1442 l 503 1338 q 401 1377 443 1383 q 360 1328 358 1371 q 413 1243 363 1285 l 347 1243 m 593 1243 q 645 1328 643 1285 q 605 1377 647 1371 q 503 1338 563 1383 l 503 1392 q 650 1435 590 1442 q 714 1376 710 1429 q 658 1243 718 1322 l 593 1243 m 413 1243 q 360 1158 363 1201 q 401 1109 358 1115 q 503 1149 443 1103 l 503 1094 q 356 1051 415 1044 q 292 1110 296 1057 q 347 1243 288 1164 l 413 1243 m 658 1243 q 714 1110 718 1164 q 650 1051 710 1057 q 503 1094 590 1044 l 503 1149 q 605 1109 563 1103 q 645 1158 647 1115 q 593 1243 643 1201 l 658 1243 z "},"Ǻ":{"ha":1004,"x_min":36,"x_max":968,"o":"m 840 0 l 454 1000 l 582 1000 l 968 0 l 840 0 m 422 1000 l 547 1000 l 161 0 l 36 0 l 422 1000 m 243 376 l 758 376 l 758 265 l 243 265 l 243 376 m 347 1243 q 292 1376 288 1322 q 356 1435 296 1429 q 503 1392 415 1442 l 503 1338 q 401 1377 443 1383 q 360 1328 358 1371 q 413 1243 363 1285 l 347 1243 m 593 1243 q 645 1328 643 1285 q 605 1377 647 1371 q 503 1338 563 1383 l 503 1392 q 650 1435 590 1442 q 714 1376 710 1429 q 658 1243 718 1322 l 593 1243 m 413 1243 q 360 1158 363 1201 q 401 1109 358 1115 q 503 1149 443 1103 l 503 1094 q 356 1051 415 1044 q 292 1110 296 1057 q 347 1243 288 1164 l 413 1243 m 658 1243 q 714 1110 718 1164 q 650 1051 710 1057 q 503 1094 590 1044 l 503 1149 q 605 1109 563 1103 q 645 1158 647 1115 q 593 1243 643 1201 l 658 1243 m 333 1399 q 318 1588 290 1513 q 433 1671 346 1663 q 647 1608 521 1679 l 647 1517 q 469 1583 547 1585 q 359 1526 392 1582 q 354 1399 326 1471 l 333 1399 z "},"Ã":{"ha":1004,"x_min":36,"x_max":968,"o":"m 840 0 l 454 1000 l 582 1000 l 968 0 l 840 0 m 422 1000 l 547 1000 l 161 0 l 36 0 l 422 1000 m 243 376 l 758 376 l 758 265 l 243 265 l 243 376 m 718 1326 q 792 1185 804 1253 q 692 1105 779 1117 q 503 1165 606 1093 l 503 1239 q 631 1177 564 1171 q 702 1236 697 1183 q 625 1326 707 1289 l 718 1326 m 288 1103 q 214 1244 201 1176 q 313 1324 226 1313 q 503 1264 400 1336 l 503 1190 q 375 1252 442 1258 q 303 1193 308 1246 q 381 1103 299 1140 l 288 1103 z "},"Æ":{"ha":1411,"x_min":36,"x_max":1347,"o":"m 169 0 l 36 0 l 611 1000 l 744 1000 l 169 0 m 300 376 l 718 376 l 718 265 l 300 265 l 300 376 m 810 111 l 1347 111 l 1347 0 l 810 0 l 810 111 m 810 568 l 1290 568 l 1290 457 l 810 457 l 810 568 m 810 1000 l 1332 1000 l 1332 889 l 810 889 l 810 1000 m 685 1000 l 810 1000 l 810 0 l 685 0 l 685 1000 z "},"Ǽ":{"ha":1411,"x_min":36,"x_max":1347,"o":"m 169 0 l 36 0 l 611 1000 l 744 1000 l 169 0 m 300 376 l 718 376 l 718 265 l 300 265 l 300 376 m 810 111 l 1347 111 l 1347 0 l 810 0 l 810 111 m 810 568 l 1290 568 l 1290 457 l 810 457 l 810 568 m 810 1000 l 1332 1000 l 1332 889 l 810 889 l 810 1000 m 685 1000 l 810 1000 l 810 0 l 685 0 l 685 1000 m 800 1097 q 785 1286 757 1211 q 900 1369 813 1361 q 1114 1307 988 1378 l 1114 1215 q 936 1282 1014 1283 q 826 1225 858 1281 q 821 1097 793 1169 l 800 1097 z "},"Ǣ":{"ha":1411,"x_min":36,"x_max":1347,"o":"m 169 0 l 36 0 l 611 1000 l 744 1000 l 169 0 m 300 376 l 718 376 l 718 265 l 300 265 l 300 376 m 810 111 l 1347 111 l 1347 0 l 810 0 l 810 111 m 810 568 l 1290 568 l 1290 457 l 810 457 l 810 568 m 810 1000 l 1332 1000 l 1332 889 l 810 889 l 810 1000 m 685 1000 l 810 1000 l 810 0 l 685 0 l 685 1000 m 744 1285 l 1193 1285 l 1193 1167 l 744 1167 l 744 1285 z "},"B":{"ha":1004,"x_min":124,"x_max":935,"o":"m 799 738 q 854 610 865 663 q 755 540 843 558 q 513 546 667 522 l 513 565 q 688 565 618 544 q 763 635 757 586 q 707 738 768 683 l 799 738 m 249 888 l 249 1000 l 500 1000 l 500 888 l 249 888 m 849 289 q 911 65 935 164 q 782 -56 888 -33 q 542 0 676 -78 l 542 83 q 717 26 631 8 q 822 124 804 43 q 757 289 839 206 l 849 289 m 707 738 q 774 887 790 811 q 672 977 757 963 q 500 917 586 992 l 500 1000 q 735 1058 631 1078 q 863 945 840 1038 q 799 738 886 853 l 707 738 m 249 457 l 249 569 l 513 569 l 513 457 l 249 457 m 757 289 q 816 438 836 365 q 705 529 796 511 q 513 486 614 547 l 513 561 q 771 610 660 631 q 908 497 882 589 q 849 289 933 406 l 757 289 m 542 0 l 249 0 l 249 113 l 542 113 l 542 0 m 124 1000 l 249 1000 l 249 0 l 124 0 l 124 1000 z "},"C":{"ha":1142,"x_min":76,"x_max":1083,"o":"m 1001 379 q 1049 88 1083 208 q 891 -65 1015 -33 q 594 -24 767 -97 l 594 60 q 824 17 718 -11 q 960 149 931 44 q 910 379 989 253 l 1001 379 m 244 500 q 201 199 169 328 q 345 30 233 69 q 594 60 457 -10 l 594 -24 q 279 -55 408 -97 q 113 133 150 -12 q 151 500 76 279 l 244 500 m 900 639 q 951 859 979 760 q 817 985 922 958 q 589 940 711 1011 l 589 1024 q 884 1067 760 1097 q 1041 921 1008 1038 q 992 639 1074 804 l 900 639 m 151 500 q 113 867 76 721 q 276 1056 149 1013 q 589 1024 404 1099 l 589 940 q 343 972 454 1011 q 201 802 232 932 q 244 500 169 672 l 151 500 z "},"Ć":{"ha":1142,"x_min":76,"x_max":1083,"o":"m 1001 379 q 1049 88 1083 208 q 891 -65 1015 -33 q 594 -24 767 -97 l 594 60 q 824 17 718 -11 q 960 149 931 44 q 910 379 989 253 l 1001 379 m 244 500 q 201 199 169 328 q 345 30 233 69 q 594 60 457 -10 l 594 -24 q 279 -55 408 -97 q 113 133 150 -12 q 151 500 76 279 l 244 500 m 900 639 q 951 859 979 760 q 817 985 922 958 q 589 940 711 1011 l 589 1024 q 884 1067 760 1097 q 1041 921 1008 1038 q 992 639 1074 804 l 900 639 m 151 500 q 113 867 76 721 q 276 1056 149 1013 q 589 1024 404 1099 l 589 940 q 343 972 454 1011 q 201 802 232 932 q 244 500 169 672 l 151 500 m 422 1097 q 407 1286 379 1211 q 522 1369 435 1361 q 736 1307 610 1378 l 736 1215 q 558 1282 636 1283 q 448 1225 481 1281 q 443 1097 415 1169 l 422 1097 z "},"Č":{"ha":1142,"x_min":76,"x_max":1083,"o":"m 1001 379 q 1049 88 1083 208 q 891 -65 1015 -33 q 594 -24 767 -97 l 594 60 q 824 17 718 -11 q 960 149 931 44 q 910 379 989 253 l 1001 379 m 244 500 q 201 199 169 328 q 345 30 233 69 q 594 60 457 -10 l 594 -24 q 279 -55 408 -97 q 113 133 150 -12 q 151 500 76 279 l 244 500 m 900 639 q 951 859 979 760 q 817 985 922 958 q 589 940 711 1011 l 589 1024 q 884 1067 760 1097 q 1041 921 1008 1038 q 992 639 1074 804 l 900 639 m 151 500 q 113 867 76 721 q 276 1056 149 1013 q 589 1024 404 1099 l 589 940 q 343 972 454 1011 q 201 802 232 932 q 244 500 169 672 l 151 500 z "},"Ç":{"ha":1142,"x_min":76,"x_max":1083,"o":"m 1001 379 q 1049 88 1083 208 q 891 -65 1015 -33 q 594 -24 767 -97 l 594 60 q 824 17 718 -11 q 960 149 931 44 q 910 379 989 253 l 1001 379 m 244 500 q 201 199 169 328 q 345 30 233 69 q 594 60 457 -10 l 594 -24 q 279 -55 408 -97 q 113 133 150 -12 q 151 500 76 279 l 244 500 m 900 639 q 951 859 979 760 q 817 985 922 958 q 589 940 711 1011 l 589 1024 q 884 1067 760 1097 q 1041 921 1008 1038 q 992 639 1074 804 l 900 639 m 151 500 q 113 867 76 721 q 276 1056 149 1013 q 589 1024 404 1099 l 589 940 q 343 972 454 1011 q 201 802 232 932 q 244 500 169 672 l 151 500 m 728 -86 q 772 18 781 -35 q 708 72 763 71 q 594 6 653 74 l 594 89 q 749 156 679 161 q 832 79 819 150 q 781 -86 844 8 l 728 -86 m 781 -86 q 819 -267 846 -190 q 694 -354 792 -344 q 469 -287 596 -364 l 469 -194 q 646 -266 563 -268 q 757 -206 729 -264 q 728 -86 785 -147 l 781 -86 z "},"Ĉ":{"ha":1142,"x_min":76,"x_max":1083,"o":"m 1001 379 q 1049 88 1083 208 q 891 -65 1015 -33 q 594 -24 767 -97 l 594 60 q 824 17 718 -11 q 960 149 931 44 q 910 379 989 253 l 1001 379 m 244 500 q 201 199 169 328 q 345 30 233 69 q 594 60 457 -10 l 594 -24 q 279 -55 408 -97 q 113 133 150 -12 q 151 500 76 279 l 244 500 m 900 639 q 951 859 979 760 q 817 985 922 958 q 589 940 711 1011 l 589 1024 q 884 1067 760 1097 q 1041 921 1008 1038 q 992 639 1074 804 l 900 639 m 151 500 q 113 867 76 721 q 276 1056 149 1013 q 589 1024 404 1099 l 589 940 q 343 972 454 1011 q 201 802 232 932 q 244 500 169 672 l 151 500 m 524 1124 l 383 1124 l 511 1294 l 651 1294 l 524 1124 m 672 1294 l 800 1124 l 660 1124 l 532 1294 l 672 1294 z "},"Ċ":{"ha":1142,"x_min":76,"x_max":1083,"o":"m 1001 379 q 1049 88 1083 208 q 891 -65 1015 -33 q 594 -24 767 -97 l 594 60 q 824 17 718 -11 q 960 149 931 44 q 910 379 989 253 l 1001 379 m 244 500 q 201 199 169 328 q 345 30 233 69 q 594 60 457 -10 l 594 -24 q 279 -55 408 -97 q 113 133 150 -12 q 151 500 76 279 l 244 500 m 900 639 q 951 859 979 760 q 817 985 922 958 q 589 940 711 1011 l 589 1024 q 884 1067 760 1097 q 1041 921 1008 1038 q 992 639 1074 804 l 900 639 m 151 500 q 113 867 76 721 q 276 1056 149 1013 q 589 1024 404 1099 l 589 940 q 343 972 454 1011 q 201 802 232 932 q 244 500 169 672 l 151 500 m 508 1285 l 675 1285 l 675 1131 l 508 1131 l 508 1285 z "},"D":{"ha":1088,"x_min":129,"x_max":1018,"o":"m 254 1000 l 463 1000 l 463 888 l 254 888 l 254 1000 m 940 500 q 978 149 1018 289 q 799 -31 938 10 q 463 0 661 -71 l 463 83 q 731 53 611 15 q 888 213 851 90 q 849 500 925 336 l 940 500 m 254 113 l 463 113 l 463 0 l 254 0 l 254 113 m 849 500 q 888 787 925 664 q 731 947 851 910 q 463 917 611 985 l 463 1000 q 799 1031 661 1071 q 978 851 938 990 q 940 500 1018 711 l 849 500 m 129 1000 l 254 1000 l 254 0 l 129 0 l 129 1000 z "},"Ð":{"ha":1104,"x_min":44,"x_max":1033,"o":"m 44 568 l 525 568 l 525 457 l 44 457 l 44 568 m 271 1000 l 479 1000 l 479 888 l 271 888 l 271 1000 m 957 500 q 993 149 1033 289 q 815 -31 953 10 q 479 0 678 -71 l 479 83 q 748 53 628 15 q 905 213 868 90 q 864 500 942 336 l 957 500 m 271 113 l 479 113 l 479 0 l 271 0 l 271 113 m 864 500 q 905 787 942 664 q 748 947 868 910 q 479 917 628 985 l 479 1000 q 815 1031 678 1071 q 993 851 953 990 q 957 500 1033 711 l 864 500 m 146 1000 l 271 1000 l 271 0 l 146 0 l 146 1000 z "},"Ď":{"ha":1088,"x_min":129,"x_max":1018,"o":"m 254 1000 l 463 1000 l 463 888 l 254 888 l 254 1000 m 940 500 q 978 149 1018 289 q 799 -31 938 10 q 463 0 661 -71 l 463 83 q 731 53 611 15 q 888 213 851 90 q 849 500 925 336 l 940 500 m 254 113 l 463 113 l 463 0 l 254 0 l 254 113 m 849 500 q 888 787 925 664 q 731 947 851 910 q 463 917 611 985 l 463 1000 q 799 1031 661 1071 q 978 851 938 990 q 940 500 1018 711 l 849 500 m 129 1000 l 254 1000 l 254 0 l 129 0 l 129 1000 z "},"Đ":{"ha":1104,"x_min":44,"x_max":1033,"o":"m 44 568 l 525 568 l 525 457 l 44 457 l 44 568 m 271 1000 l 479 1000 l 479 888 l 271 888 l 271 1000 m 957 500 q 993 149 1033 289 q 815 -31 953 10 q 479 0 678 -71 l 479 83 q 748 53 628 15 q 905 213 868 90 q 864 500 942 336 l 957 500 m 271 113 l 479 113 l 479 0 l 271 0 l 271 113 m 864 500 q 905 787 942 664 q 748 947 868 910 q 479 917 628 985 l 479 1000 q 815 1031 678 1071 q 993 851 953 990 q 957 500 1033 711 l 864 500 m 146 1000 l 271 1000 l 271 0 l 146 0 l 146 1000 z "},"E":{"ha":858,"x_min":132,"x_max":794,"o":"m 257 111 l 794 111 l 794 0 l 257 0 l 257 111 m 257 568 l 738 568 l 738 457 l 257 457 l 257 568 m 257 1000 l 779 1000 l 779 889 l 257 889 l 257 1000 m 132 1000 l 257 1000 l 257 0 l 132 0 l 132 1000 z "},"É":{"ha":858,"x_min":132,"x_max":794,"o":"m 257 111 l 794 111 l 794 0 l 257 0 l 257 111 m 257 568 l 738 568 l 738 457 l 257 457 l 257 568 m 257 1000 l 779 1000 l 779 889 l 257 889 l 257 1000 m 132 1000 l 257 1000 l 257 0 l 132 0 l 132 1000 m 297 1097 q 282 1286 254 1211 q 397 1369 310 1361 q 611 1307 485 1378 l 611 1215 q 433 1282 511 1283 q 323 1225 356 1281 q 318 1097 290 1169 l 297 1097 z "},"Ĕ":{"ha":858,"x_min":132,"x_max":794,"o":"m 257 111 l 794 111 l 794 0 l 257 0 l 257 111 m 257 568 l 738 568 l 738 457 l 257 457 l 257 568 m 257 1000 l 779 1000 l 779 889 l 257 889 l 257 1000 m 132 1000 l 257 1000 l 257 0 l 132 0 l 132 1000 m 351 1294 q 274 1185 271 1246 q 342 1113 278 1124 q 467 1172 407 1103 l 467 1099 q 281 1041 365 1026 q 185 1132 197 1056 q 258 1294 174 1208 l 351 1294 m 675 1296 q 748 1133 760 1210 q 652 1041 736 1056 q 467 1099 568 1026 l 467 1172 q 591 1113 526 1103 q 659 1185 656 1124 q 582 1296 663 1246 l 675 1296 z "},"Ě":{"ha":858,"x_min":132,"x_max":794,"o":"m 257 111 l 794 111 l 794 0 l 257 0 l 257 111 m 257 568 l 738 568 l 738 457 l 257 457 l 257 568 m 257 1000 l 779 1000 l 779 889 l 257 889 l 257 1000 m 132 1000 l 257 1000 l 257 0 l 132 0 l 132 1000 z "},"Ê":{"ha":858,"x_min":132,"x_max":794,"o":"m 257 111 l 794 111 l 794 0 l 257 0 l 257 111 m 257 568 l 738 568 l 738 457 l 257 457 l 257 568 m 257 1000 l 779 1000 l 779 889 l 257 889 l 257 1000 m 132 1000 l 257 1000 l 257 0 l 132 0 l 132 1000 m 399 1124 l 258 1124 l 386 1294 l 526 1294 l 399 1124 m 547 1294 l 675 1124 l 535 1124 l 407 1294 l 547 1294 z "},"Ë":{"ha":858,"x_min":132,"x_max":794,"o":"m 257 111 l 794 111 l 794 0 l 257 0 l 257 111 m 257 568 l 738 568 l 738 457 l 257 457 l 257 568 m 257 1000 l 779 1000 l 779 889 l 257 889 l 257 1000 m 132 1000 l 257 1000 l 257 0 l 132 0 l 132 1000 m 533 1285 l 693 1285 l 693 1132 l 533 1132 l 533 1285 m 240 1285 l 400 1285 l 400 1132 l 240 1132 l 240 1285 z "},"Ė":{"ha":858,"x_min":132,"x_max":794,"o":"m 257 111 l 794 111 l 794 0 l 257 0 l 257 111 m 257 568 l 738 568 l 738 457 l 257 457 l 257 568 m 257 1000 l 779 1000 l 779 889 l 257 889 l 257 1000 m 132 1000 l 257 1000 l 257 0 l 132 0 l 132 1000 m 383 1285 l 550 1285 l 550 1131 l 383 1131 l 383 1285 z "},"Ẹ":{"ha":858,"x_min":132,"x_max":794,"o":"m 257 111 l 794 111 l 794 0 l 257 0 l 257 111 m 257 568 l 738 568 l 738 457 l 257 457 l 257 568 m 257 1000 l 779 1000 l 779 889 l 257 889 l 257 1000 m 132 1000 l 257 1000 l 257 0 l 132 0 l 132 1000 z "},"È":{"ha":858,"x_min":132,"x_max":794,"o":"m 257 111 l 794 111 l 794 0 l 257 0 l 257 111 m 257 568 l 738 568 l 738 457 l 257 457 l 257 568 m 257 1000 l 779 1000 l 779 889 l 257 889 l 257 1000 m 132 1000 l 257 1000 l 257 0 l 132 0 l 132 1000 m 615 1097 q 610 1225 643 1169 q 500 1282 578 1281 q 322 1215 422 1283 l 322 1307 q 536 1369 449 1378 q 651 1286 624 1361 q 636 1097 679 1211 l 615 1097 z "},"Ē":{"ha":858,"x_min":132,"x_max":794,"o":"m 257 111 l 794 111 l 794 0 l 257 0 l 257 111 m 257 568 l 738 568 l 738 457 l 257 457 l 257 568 m 257 1000 l 779 1000 l 779 889 l 257 889 l 257 1000 m 132 1000 l 257 1000 l 257 0 l 132 0 l 132 1000 m 242 1285 l 690 1285 l 690 1167 l 242 1167 l 242 1285 z "},"Ę":{"ha":858,"x_min":132,"x_max":963,"o":"m 257 111 l 794 111 l 794 0 l 257 0 l 257 111 m 257 568 l 738 568 l 738 457 l 257 457 l 257 568 m 257 1000 l 779 1000 l 779 889 l 257 889 l 257 1000 m 132 1000 l 257 1000 l 257 0 l 132 0 l 132 1000 m 783 0 q 758 -134 742 -71 q 834 -201 775 -197 q 963 -129 893 -204 l 963 -222 q 799 -292 869 -301 q 711 -199 728 -282 q 749 0 694 -117 l 783 0 z "},"F":{"ha":813,"x_min":132,"x_max":760,"o":"m 257 549 l 717 549 l 717 438 l 257 438 l 257 549 m 257 1000 l 760 1000 l 760 889 l 257 889 l 257 1000 m 132 1000 l 257 1000 l 257 0 l 132 0 l 132 1000 z "},"G":{"ha":1149,"x_min":76,"x_max":1085,"o":"m 907 367 q 917 84 940 200 q 810 -64 893 -32 q 594 -24 728 -96 l 594 60 q 776 17 700 -6 q 883 136 851 40 q 896 367 914 232 l 907 367 m 582 486 l 1018 486 l 1018 367 l 582 367 l 582 486 m 244 500 q 201 199 169 328 q 345 30 233 69 q 594 60 457 -10 l 594 -24 q 279 -55 408 -97 q 113 133 150 -12 q 151 500 76 279 l 244 500 m 911 639 q 963 860 990 760 q 829 986 935 960 q 603 942 724 1013 l 603 1025 q 896 1069 772 1099 q 1052 922 1019 1039 q 1003 639 1085 804 l 911 639 m 151 500 q 114 867 76 721 q 283 1056 151 1013 q 603 1025 414 1099 l 603 942 q 350 972 464 1011 q 203 802 236 932 q 244 500 169 672 l 151 500 m 893 367 l 1018 367 l 1018 0 l 893 0 l 893 367 z "},"Ğ":{"ha":1149,"x_min":76,"x_max":1085,"o":"m 907 367 q 917 84 940 200 q 810 -64 893 -32 q 594 -24 728 -96 l 594 60 q 776 17 700 -6 q 883 136 851 40 q 896 367 914 232 l 907 367 m 582 486 l 1018 486 l 1018 367 l 582 367 l 582 486 m 244 500 q 201 199 169 328 q 345 30 233 69 q 594 60 457 -10 l 594 -24 q 279 -55 408 -97 q 113 133 150 -12 q 151 500 76 279 l 244 500 m 911 639 q 963 860 990 760 q 829 986 935 960 q 603 942 724 1013 l 603 1025 q 896 1069 772 1099 q 1052 922 1019 1039 q 1003 639 1085 804 l 911 639 m 151 500 q 114 867 76 721 q 283 1056 151 1013 q 603 1025 414 1099 l 603 942 q 350 972 464 1011 q 203 802 236 932 q 244 500 169 672 l 151 500 m 893 367 l 1018 367 l 1018 0 l 893 0 l 893 367 m 476 1294 q 399 1185 396 1246 q 467 1113 403 1124 q 592 1172 532 1103 l 592 1099 q 406 1041 490 1026 q 310 1132 322 1056 q 383 1294 299 1208 l 476 1294 m 800 1296 q 873 1133 885 1210 q 777 1041 861 1056 q 592 1099 693 1026 l 592 1172 q 716 1113 651 1103 q 784 1185 781 1124 q 707 1296 788 1246 l 800 1296 z "},"Ĝ":{"ha":1149,"x_min":76,"x_max":1085,"o":"m 907 367 q 917 84 940 200 q 810 -64 893 -32 q 594 -24 728 -96 l 594 60 q 776 17 700 -6 q 883 136 851 40 q 896 367 914 232 l 907 367 m 582 486 l 1018 486 l 1018 367 l 582 367 l 582 486 m 244 500 q 201 199 169 328 q 345 30 233 69 q 594 60 457 -10 l 594 -24 q 279 -55 408 -97 q 113 133 150 -12 q 151 500 76 279 l 244 500 m 911 639 q 963 860 990 760 q 829 986 935 960 q 603 942 724 1013 l 603 1025 q 896 1069 772 1099 q 1052 922 1019 1039 q 1003 639 1085 804 l 911 639 m 151 500 q 114 867 76 721 q 283 1056 151 1013 q 603 1025 414 1099 l 603 942 q 350 972 464 1011 q 203 802 236 932 q 244 500 169 672 l 151 500 m 893 367 l 1018 367 l 1018 0 l 893 0 l 893 367 m 524 1124 l 383 1124 l 511 1294 l 651 1294 l 524 1124 m 672 1294 l 800 1124 l 660 1124 l 532 1294 l 672 1294 z "},"Ģ":{"ha":1149,"x_min":76,"x_max":1085,"o":"m 907 367 q 917 84 940 200 q 810 -64 893 -32 q 594 -24 728 -96 l 594 60 q 776 17 700 -6 q 883 136 851 40 q 896 367 914 232 l 907 367 m 582 486 l 1018 486 l 1018 367 l 582 367 l 582 486 m 244 500 q 201 199 169 328 q 345 30 233 69 q 594 60 457 -10 l 594 -24 q 279 -55 408 -97 q 113 133 150 -12 q 151 500 76 279 l 244 500 m 911 639 q 963 860 990 760 q 829 986 935 960 q 603 942 724 1013 l 603 1025 q 896 1069 772 1099 q 1052 922 1019 1039 q 1003 639 1085 804 l 911 639 m 151 500 q 114 867 76 721 q 283 1056 151 1013 q 603 1025 414 1099 l 603 942 q 350 972 464 1011 q 203 802 236 932 q 244 500 169 672 l 151 500 m 893 367 l 1018 367 l 1018 0 l 893 0 l 893 367 m 515 -83 l 682 -83 l 682 -224 l 515 -224 l 515 -83 m 682 -224 q 729 -383 740 -317 q 651 -456 718 -450 q 492 -399 583 -462 l 492 -325 q 610 -381 557 -385 q 670 -327 663 -378 q 631 -224 678 -276 l 682 -224 z "},"Ġ":{"ha":1149,"x_min":76,"x_max":1085,"o":"m 907 367 q 917 84 940 200 q 810 -64 893 -32 q 594 -24 728 -96 l 594 60 q 776 17 700 -6 q 883 136 851 40 q 896 367 914 232 l 907 367 m 582 486 l 1018 486 l 1018 367 l 582 367 l 582 486 m 244 500 q 201 199 169 328 q 345 30 233 69 q 594 60 457 -10 l 594 -24 q 279 -55 408 -97 q 113 133 150 -12 q 151 500 76 279 l 244 500 m 911 639 q 963 860 990 760 q 829 986 935 960 q 603 942 724 1013 l 603 1025 q 896 1069 772 1099 q 1052 922 1019 1039 q 1003 639 1085 804 l 911 639 m 151 500 q 114 867 76 721 q 283 1056 151 1013 q 603 1025 414 1099 l 603 942 q 350 972 464 1011 q 203 802 236 932 q 244 500 169 672 l 151 500 m 893 367 l 1018 367 l 1018 0 l 893 0 l 893 367 m 508 1285 l 675 1285 l 675 1131 l 508 1131 l 508 1285 z "},"H":{"ha":1036,"x_min":131,"x_max":907,"o":"m 256 581 l 782 581 l 782 469 l 256 469 l 256 581 m 782 1000 l 907 1000 l 907 0 l 782 0 l 782 1000 m 131 1000 l 256 1000 l 256 0 l 131 0 l 131 1000 z "},"Ħ":{"ha":1067,"x_min":49,"x_max":1019,"o":"m 49 893 l 1019 893 l 1019 788 l 49 788 l 49 893 m 150 1000 l 275 1000 l 275 0 l 150 0 l 150 1000 m 801 1000 l 926 1000 l 926 0 l 801 0 l 801 1000 m 275 581 l 801 581 l 801 469 l 275 469 l 275 581 z "},"Ĥ":{"ha":1036,"x_min":131,"x_max":907,"o":"m 256 581 l 782 581 l 782 469 l 256 469 l 256 581 m 782 1000 l 907 1000 l 907 0 l 782 0 l 782 1000 m 131 1000 l 256 1000 l 256 0 l 131 0 l 131 1000 m 451 1124 l 311 1124 l 439 1294 l 579 1294 l 451 1124 m 600 1294 l 728 1124 l 588 1124 l 460 1294 l 600 1294 z "},"I":{"ha":385,"x_min":131,"x_max":256,"o":"m 131 1000 l 256 1000 l 256 0 l 131 0 l 131 1000 z "},"Ĳ":{"ha":1175,"x_min":131,"x_max":1117,"o":"m 131 1000 l 256 1000 l 256 0 l 131 0 l 131 1000 m 560 260 q 491 99 476 179 q 588 0 506 18 q 750 58 669 -18 l 750 -25 q 524 -82 625 -104 q 403 39 424 -60 q 467 260 382 138 l 560 260 m 1032 264 q 1096 40 1117 139 q 975 -82 1075 -60 q 750 -25 875 -104 l 750 58 q 912 0 831 -17 q 1007 99 993 17 q 939 264 1021 181 l 1032 264 m 907 1000 l 1032 1000 l 1032 264 l 907 264 l 907 1000 z "},"Í":{"ha":385,"x_min":-19,"x_max":338,"o":"m 131 1000 l 256 1000 l 256 0 l 131 0 l 131 1000 m 24 1092 q 8 1281 -19 1206 q 124 1364 36 1356 q 338 1301 211 1372 l 338 1210 q 160 1276 238 1278 q 49 1219 82 1275 q 44 1092 17 1164 l 24 1092 z "},"Ĭ":{"ha":385,"x_min":-100,"x_max":485,"o":"m 131 1000 l 256 1000 l 256 0 l 131 0 l 131 1000 m 78 1289 q 1 1179 -3 1240 q 69 1108 4 1118 q 193 1167 133 1097 l 193 1093 q 8 1035 92 1021 q -88 1126 -76 1050 q -15 1289 -100 1203 l 78 1289 m 401 1290 q 474 1127 486 1204 q 378 1035 463 1050 q 193 1093 294 1021 l 193 1167 q 317 1108 253 1097 q 385 1179 382 1118 q 308 1290 389 1240 l 401 1290 z "},"Î":{"ha":385,"x_min":-15,"x_max":401,"o":"m 131 1000 l 256 1000 l 256 0 l 131 0 l 131 1000 m 125 1118 l -15 1118 l 113 1289 l 253 1289 l 125 1118 m 274 1289 l 401 1118 l 261 1118 l 133 1289 l 274 1289 z "},"Ï":{"ha":385,"x_min":-33,"x_max":419,"o":"m 131 1000 l 256 1000 l 256 0 l 131 0 l 131 1000 m 260 1279 l 419 1279 l 419 1126 l 260 1126 l 260 1279 m -33 1279 l 126 1279 l 126 1126 l -33 1126 l -33 1279 z "},"İ":{"ha":385,"x_min":110,"x_max":276,"o":"m 131 1000 l 256 1000 l 256 0 l 131 0 l 131 1000 m 110 1279 l 276 1279 l 276 1125 l 110 1125 l 110 1279 z "},"Ị":{"ha":385,"x_min":110,"x_max":276,"o":"m 131 1000 l 256 1000 l 256 0 l 131 0 l 131 1000 z "},"Ì":{"ha":385,"x_min":49,"x_max":406,"o":"m 131 1000 l 256 1000 l 256 0 l 131 0 l 131 1000 m 342 1092 q 337 1219 369 1164 q 226 1276 304 1275 q 49 1210 149 1278 l 49 1301 q 263 1364 175 1372 q 378 1281 350 1356 q 363 1092 406 1206 l 342 1092 z "},"Ī":{"ha":385,"x_min":-32,"x_max":417,"o":"m 131 1000 l 256 1000 l 256 0 l 131 0 l 131 1000 m -32 1279 l 417 1279 l 417 1161 l -32 1161 l -32 1279 z "},"Į":{"ha":385,"x_min":75,"x_max":344,"o":"m 131 1000 l 256 1000 l 256 0 l 131 0 l 131 1000 m 165 0 q 140 -134 124 -71 q 216 -201 157 -197 q 344 -129 275 -204 l 344 -222 q 181 -292 251 -301 q 93 -199 110 -282 q 131 0 76 -117 l 165 0 z "},"Ĩ":{"ha":385,"x_min":-110,"x_max":494,"o":"m 131 1000 l 256 1000 l 256 0 l 131 0 l 131 1000 m 408 1321 q 482 1179 494 1247 q 383 1099 469 1111 q 193 1160 296 1088 l 193 1233 q 321 1172 254 1165 q 392 1231 388 1178 q 315 1321 397 1283 l 408 1321 m -22 1097 q -96 1239 -108 1171 q 3 1319 -83 1307 q 193 1258 90 1331 l 193 1185 q 65 1247 132 1253 q -6 1188 -1 1240 q 71 1097 -11 1135 l -22 1097 z "},"J":{"ha":832,"x_min":39,"x_max":774,"o":"m 217 260 q 148 99 133 179 q 244 0 163 18 q 407 58 326 -18 l 407 -25 q 181 -82 282 -104 q 60 39 81 -60 q 124 260 39 138 l 217 260 m 689 264 q 753 40 774 139 q 632 -82 732 -60 q 407 -25 532 -104 l 407 58 q 569 0 488 -17 q 664 99 650 17 q 596 264 678 181 l 689 264 m 564 1000 l 689 1000 l 689 264 l 564 264 l 564 1000 z "},"Ĵ":{"ha":832,"x_min":39,"x_max":836,"o":"m 217 260 q 148 99 133 179 q 244 0 163 18 q 407 58 326 -18 l 407 -25 q 181 -82 282 -104 q 60 39 81 -60 q 124 260 39 138 l 217 260 m 689 264 q 753 40 774 139 q 632 -82 732 -60 q 407 -25 532 -104 l 407 58 q 569 0 488 -17 q 664 99 650 17 q 596 264 678 181 l 689 264 m 564 1000 l 689 1000 l 689 264 l 564 264 l 564 1000 m 560 1124 l 419 1124 l 547 1294 l 688 1294 l 560 1124 m 708 1294 l 836 1124 l 696 1124 l 568 1294 l 708 1294 z "},"K":{"ha":989,"x_min":132,"x_max":951,"o":"m 250 331 q 233 542 214 463 q 316 628 251 621 q 469 565 381 635 l 469 476 q 337 539 392 542 q 261 477 282 536 q 257 331 240 418 l 250 331 m 469 565 l 951 0 l 793 0 l 311 565 l 469 565 m 775 1000 l 940 1000 l 469 565 l 304 565 l 775 1000 m 132 1000 l 257 1000 l 257 0 l 132 0 l 132 1000 z "},"Ķ":{"ha":989,"x_min":132,"x_max":951,"o":"m 250 331 q 233 542 214 463 q 316 628 251 621 q 469 565 381 635 l 469 476 q 337 539 392 542 q 261 477 282 536 q 257 331 240 418 l 250 331 m 469 565 l 951 0 l 793 0 l 311 565 l 469 565 m 775 1000 l 940 1000 l 469 565 l 304 565 l 775 1000 m 132 1000 l 257 1000 l 257 0 l 132 0 l 132 1000 m 426 -78 l 593 -78 l 593 -218 l 426 -218 l 426 -78 m 593 -218 q 640 -378 651 -311 q 562 -451 629 -444 q 403 -393 494 -457 l 403 -319 q 521 -376 468 -379 q 581 -322 574 -372 q 542 -218 589 -271 l 593 -218 z "},"L":{"ha":772,"x_min":132,"x_max":732,"o":"m 257 111 l 732 111 l 732 0 l 257 0 l 257 111 m 132 1000 l 257 1000 l 257 0 l 132 0 l 132 1000 z "},"Ĺ":{"ha":772,"x_min":-18,"x_max":732,"o":"m 257 111 l 732 111 l 732 0 l 257 0 l 257 111 m 132 1000 l 257 1000 l 257 0 l 132 0 l 132 1000 m 25 1097 q 10 1286 -18 1211 q 125 1369 38 1361 q 339 1307 213 1378 l 339 1215 q 161 1282 239 1283 q 51 1225 83 1281 q 46 1097 18 1169 l 25 1097 z "},"Ľ":{"ha":772,"x_min":-14,"x_max":732,"o":"m 257 111 l 732 111 l 732 0 l 257 0 l 257 111 m 132 1000 l 257 1000 l 257 0 l 132 0 l 132 1000 z "},"Ļ":{"ha":772,"x_min":132,"x_max":732,"o":"m 257 111 l 732 111 l 732 0 l 257 0 l 257 111 m 132 1000 l 257 1000 l 257 0 l 132 0 l 132 1000 m 360 -78 l 526 -78 l 526 -218 l 360 -218 l 360 -78 m 526 -218 q 574 -378 585 -311 q 495 -451 563 -444 q 336 -393 428 -457 l 336 -319 q 454 -376 401 -379 q 515 -322 507 -372 q 475 -218 522 -271 l 526 -218 z "},"Ŀ":{"ha":776,"x_min":132,"x_max":732,"o":"m 257 111 l 732 111 l 732 0 l 257 0 l 257 111 m 132 1000 l 257 1000 l 257 0 l 132 0 l 132 1000 z "},"Ł":{"ha":876,"x_min":19,"x_max":838,"o":"m 490 672 l 644 672 l 174 243 l 19 243 l 490 672 m 238 1000 l 363 1000 l 363 0 l 238 0 l 238 1000 m 363 111 l 838 111 l 838 0 l 363 0 l 363 111 z "},"M":{"ha":1221,"x_min":132,"x_max":1089,"o":"m 892 1000 l 1007 1000 l 678 0 l 563 0 l 892 1000 m 964 0 l 964 1000 l 1089 1000 l 1089 0 l 964 0 m 132 1000 l 257 1000 l 257 0 l 132 0 l 132 1000 m 539 0 l 210 1000 l 329 1000 l 658 0 l 539 0 z "},"N":{"ha":1050,"x_min":132,"x_max":918,"o":"m 793 1000 l 918 1000 l 918 0 l 793 0 l 793 1000 m 132 1000 l 257 1000 l 257 0 l 132 0 l 132 1000 m 769 0 l 156 1000 l 288 1000 l 901 0 l 769 0 z "},"Ń":{"ha":1050,"x_min":132,"x_max":918,"o":"m 793 1000 l 918 1000 l 918 0 l 793 0 l 793 1000 m 132 1000 l 257 1000 l 257 0 l 132 0 l 132 1000 m 769 0 l 156 1000 l 288 1000 l 901 0 l 769 0 m 372 1097 q 357 1286 329 1211 q 472 1369 385 1361 q 686 1307 560 1378 l 686 1215 q 508 1282 586 1283 q 398 1225 431 1281 q 393 1097 365 1169 l 372 1097 z "},"Ň":{"ha":1050,"x_min":132,"x_max":918,"o":"m 793 1000 l 918 1000 l 918 0 l 793 0 l 793 1000 m 132 1000 l 257 1000 l 257 0 l 132 0 l 132 1000 m 769 0 l 156 1000 l 288 1000 l 901 0 l 769 0 z "},"Ņ":{"ha":1050,"x_min":132,"x_max":918,"o":"m 793 1000 l 918 1000 l 918 0 l 793 0 l 793 1000 m 132 1000 l 257 1000 l 257 0 l 132 0 l 132 1000 m 769 0 l 156 1000 l 288 1000 l 901 0 l 769 0 m 461 -78 l 628 -78 l 628 -218 l 461 -218 l 461 -78 m 628 -218 q 675 -378 686 -311 q 597 -451 664 -444 q 438 -393 529 -457 l 438 -319 q 556 -376 503 -379 q 616 -322 608 -372 q 576 -218 624 -271 l 628 -218 z "},"Ŋ":{"ha":1126,"x_min":132,"x_max":1006,"o":"m 918 0 q 983 -235 1006 -132 q 856 -359 960 -339 q 626 -293 753 -379 l 626 -200 q 793 -269 708 -283 q 894 -170 878 -254 q 825 0 911 -86 l 918 0 m 769 0 l 156 1000 l 288 1000 l 901 0 l 769 0 m 132 1000 l 257 1000 l 257 0 l 132 0 l 132 1000 m 793 1000 l 918 1000 l 918 0 l 793 0 l 793 1000 z "},"Ñ":{"ha":1050,"x_min":132,"x_max":918,"o":"m 793 1000 l 918 1000 l 918 0 l 793 0 l 793 1000 m 132 1000 l 257 1000 l 257 0 l 132 0 l 132 1000 m 769 0 l 156 1000 l 288 1000 l 901 0 l 769 0 m 757 1326 q 831 1185 843 1253 q 731 1105 818 1117 q 542 1165 644 1093 l 542 1239 q 669 1177 603 1171 q 741 1236 736 1183 q 664 1326 746 1289 l 757 1326 m 326 1103 q 253 1244 240 1176 q 352 1324 265 1313 q 542 1264 439 1336 l 542 1190 q 414 1252 481 1258 q 342 1193 347 1246 q 419 1103 338 1140 l 326 1103 z "},"O":{"ha":1228,"x_min":72,"x_max":1156,"o":"m 1079 500 q 1116 133 1156 279 q 942 -56 1076 -12 q 614 -25 808 -99 l 614 58 q 875 29 758 -11 q 1027 199 992 69 q 986 500 1063 328 l 1079 500 m 986 500 q 1027 801 1063 672 q 875 971 992 931 q 614 942 758 1011 l 614 1025 q 942 1056 808 1099 q 1116 867 1076 1013 q 1079 500 1156 721 l 986 500 m 242 500 q 201 199 165 328 q 353 29 236 69 q 614 58 469 -11 l 614 -25 q 285 -56 419 -99 q 112 133 151 -12 q 149 500 72 279 l 242 500 m 149 500 q 112 867 72 721 q 285 1056 151 1013 q 614 1025 419 1099 l 614 942 q 353 971 469 1011 q 201 801 236 931 q 242 500 165 672 l 149 500 z "},"Ó":{"ha":1228,"x_min":72,"x_max":1156,"o":"m 1079 500 q 1116 133 1156 279 q 942 -56 1076 -12 q 614 -25 808 -99 l 614 58 q 875 29 758 -11 q 1027 199 992 69 q 986 500 1063 328 l 1079 500 m 986 500 q 1027 801 1063 672 q 875 971 992 931 q 614 942 758 1011 l 614 1025 q 942 1056 808 1099 q 1116 867 1076 1013 q 1079 500 1156 721 l 986 500 m 242 500 q 201 199 165 328 q 353 29 236 69 q 614 58 469 -11 l 614 -25 q 285 -56 419 -99 q 112 133 151 -12 q 149 500 72 279 l 242 500 m 149 500 q 112 867 72 721 q 285 1056 151 1013 q 614 1025 419 1099 l 614 942 q 353 971 469 1011 q 201 801 236 931 q 242 500 165 672 l 149 500 m 444 1097 q 429 1286 401 1211 q 544 1369 457 1361 q 758 1307 632 1378 l 758 1215 q 581 1282 658 1283 q 470 1225 503 1281 q 465 1097 438 1169 l 444 1097 z "},"Ŏ":{"ha":1228,"x_min":72,"x_max":1156,"o":"m 1079 500 q 1116 133 1156 279 q 942 -56 1076 -12 q 614 -25 808 -99 l 614 58 q 875 29 758 -11 q 1027 199 992 69 q 986 500 1063 328 l 1079 500 m 986 500 q 1027 801 1063 672 q 875 971 992 931 q 614 942 758 1011 l 614 1025 q 942 1056 808 1099 q 1116 867 1076 1013 q 1079 500 1156 721 l 986 500 m 242 500 q 201 199 165 328 q 353 29 236 69 q 614 58 469 -11 l 614 -25 q 285 -56 419 -99 q 112 133 151 -12 q 149 500 72 279 l 242 500 m 149 500 q 112 867 72 721 q 285 1056 151 1013 q 614 1025 419 1099 l 614 942 q 353 971 469 1011 q 201 801 236 931 q 242 500 165 672 l 149 500 m 499 1294 q 422 1185 418 1246 q 490 1113 425 1124 q 614 1172 554 1103 l 614 1099 q 428 1041 513 1026 q 333 1132 344 1056 q 406 1294 321 1208 l 499 1294 m 822 1296 q 895 1133 907 1210 q 799 1041 883 1056 q 614 1099 715 1026 l 614 1172 q 738 1113 674 1103 q 806 1185 803 1124 q 729 1296 810 1246 l 822 1296 z "},"Ô":{"ha":1228,"x_min":72,"x_max":1156,"o":"m 1079 500 q 1116 133 1156 279 q 942 -56 1076 -12 q 614 -25 808 -99 l 614 58 q 875 29 758 -11 q 1027 199 992 69 q 986 500 1063 328 l 1079 500 m 986 500 q 1027 801 1063 672 q 875 971 992 931 q 614 942 758 1011 l 614 1025 q 942 1056 808 1099 q 1116 867 1076 1013 q 1079 500 1156 721 l 986 500 m 242 500 q 201 199 165 328 q 353 29 236 69 q 614 58 469 -11 l 614 -25 q 285 -56 419 -99 q 112 133 151 -12 q 149 500 72 279 l 242 500 m 149 500 q 112 867 72 721 q 285 1056 151 1013 q 614 1025 419 1099 l 614 942 q 353 971 469 1011 q 201 801 236 931 q 242 500 165 672 l 149 500 m 546 1124 l 406 1124 l 533 1294 l 674 1294 l 546 1124 m 694 1294 l 822 1124 l 682 1124 l 554 1294 l 694 1294 z "},"Ö":{"ha":1228,"x_min":72,"x_max":1156,"o":"m 1079 500 q 1116 133 1156 279 q 942 -56 1076 -12 q 614 -25 808 -99 l 614 58 q 875 29 758 -11 q 1027 199 992 69 q 986 500 1063 328 l 1079 500 m 986 500 q 1027 801 1063 672 q 875 971 992 931 q 614 942 758 1011 l 614 1025 q 942 1056 808 1099 q 1116 867 1076 1013 q 1079 500 1156 721 l 986 500 m 242 500 q 201 199 165 328 q 353 29 236 69 q 614 58 469 -11 l 614 -25 q 285 -56 419 -99 q 112 133 151 -12 q 149 500 72 279 l 242 500 m 149 500 q 112 867 72 721 q 285 1056 151 1013 q 614 1025 419 1099 l 614 942 q 353 971 469 1011 q 201 801 236 931 q 242 500 165 672 l 149 500 m 681 1285 l 840 1285 l 840 1132 l 681 1132 l 681 1285 m 388 1285 l 547 1285 l 547 1132 l 388 1132 l 388 1285 z "},"Ọ":{"ha":1228,"x_min":72,"x_max":1156,"o":"m 1079 500 q 1116 133 1156 279 q 942 -56 1076 -12 q 614 -25 808 -99 l 614 58 q 875 29 758 -11 q 1027 199 992 69 q 986 500 1063 328 l 1079 500 m 986 500 q 1027 801 1063 672 q 875 971 992 931 q 614 942 758 1011 l 614 1025 q 942 1056 808 1099 q 1116 867 1076 1013 q 1079 500 1156 721 l 986 500 m 242 500 q 201 199 165 328 q 353 29 236 69 q 614 58 469 -11 l 614 -25 q 285 -56 419 -99 q 112 133 151 -12 q 149 500 72 279 l 242 500 m 149 500 q 112 867 72 721 q 285 1056 151 1013 q 614 1025 419 1099 l 614 942 q 353 971 469 1011 q 201 801 236 931 q 242 500 165 672 l 149 500 z "},"Ò":{"ha":1228,"x_min":72,"x_max":1156,"o":"m 1079 500 q 1116 133 1156 279 q 942 -56 1076 -12 q 614 -25 808 -99 l 614 58 q 875 29 758 -11 q 1027 199 992 69 q 986 500 1063 328 l 1079 500 m 986 500 q 1027 801 1063 672 q 875 971 992 931 q 614 942 758 1011 l 614 1025 q 942 1056 808 1099 q 1116 867 1076 1013 q 1079 500 1156 721 l 986 500 m 242 500 q 201 199 165 328 q 353 29 236 69 q 614 58 469 -11 l 614 -25 q 285 -56 419 -99 q 112 133 151 -12 q 149 500 72 279 l 242 500 m 149 500 q 112 867 72 721 q 285 1056 151 1013 q 614 1025 419 1099 l 614 942 q 353 971 469 1011 q 201 801 236 931 q 242 500 165 672 l 149 500 m 763 1097 q 758 1225 790 1169 q 647 1282 725 1281 q 469 1215 569 1283 l 469 1307 q 683 1369 596 1378 q 799 1286 771 1361 q 783 1097 826 1211 l 763 1097 z "},"Ő":{"ha":1228,"x_min":72,"x_max":1156,"o":"m 1079 500 q 1116 133 1156 279 q 942 -56 1076 -12 q 614 -25 808 -99 l 614 58 q 875 29 758 -11 q 1027 199 992 69 q 986 500 1063 328 l 1079 500 m 986 500 q 1027 801 1063 672 q 875 971 992 931 q 614 942 758 1011 l 614 1025 q 942 1056 808 1099 q 1116 867 1076 1013 q 1079 500 1156 721 l 986 500 m 242 500 q 201 199 165 328 q 353 29 236 69 q 614 58 469 -11 l 614 -25 q 285 -56 419 -99 q 112 133 151 -12 q 149 500 72 279 l 242 500 m 149 500 q 112 867 72 721 q 285 1056 151 1013 q 614 1025 419 1099 l 614 942 q 353 971 469 1011 q 201 801 236 931 q 242 500 165 672 l 149 500 m 704 1097 q 674 1294 658 1217 q 752 1378 689 1372 q 897 1308 815 1385 l 897 1215 q 780 1287 832 1288 q 712 1228 728 1286 q 726 1097 696 1169 l 704 1097 m 444 1097 q 414 1294 399 1217 q 492 1378 429 1372 q 638 1308 556 1385 l 638 1215 q 520 1287 572 1288 q 452 1228 468 1286 q 467 1097 436 1169 l 444 1097 z "},"Ō":{"ha":1228,"x_min":72,"x_max":1156,"o":"m 1079 500 q 1116 133 1156 279 q 942 -56 1076 -12 q 614 -25 808 -99 l 614 58 q 875 29 758 -11 q 1027 199 992 69 q 986 500 1063 328 l 1079 500 m 986 500 q 1027 801 1063 672 q 875 971 992 931 q 614 942 758 1011 l 614 1025 q 942 1056 808 1099 q 1116 867 1076 1013 q 1079 500 1156 721 l 986 500 m 242 500 q 201 199 165 328 q 353 29 236 69 q 614 58 469 -11 l 614 -25 q 285 -56 419 -99 q 112 133 151 -12 q 149 500 72 279 l 242 500 m 149 500 q 112 867 72 721 q 285 1056 151 1013 q 614 1025 419 1099 l 614 942 q 353 971 469 1011 q 201 801 236 931 q 242 500 165 672 l 149 500 m 389 1285 l 838 1285 l 838 1167 l 389 1167 l 389 1285 z "},"Ø":{"ha":1228,"x_min":72,"x_max":1156,"o":"m 1079 500 q 1116 133 1156 279 q 942 -56 1076 -12 q 614 -25 808 -99 l 614 58 q 875 29 758 -11 q 1027 199 992 69 q 986 500 1063 328 l 1079 500 m 986 500 q 1027 801 1063 672 q 875 971 992 931 q 614 942 758 1011 l 614 1025 q 942 1056 808 1099 q 1116 867 1076 1013 q 1079 500 1156 721 l 986 500 m 242 500 q 201 199 165 328 q 353 29 236 69 q 614 58 469 -11 l 614 -25 q 285 -56 419 -99 q 112 133 151 -12 q 149 500 72 279 l 242 500 m 149 500 q 112 867 72 721 q 285 1056 151 1013 q 614 1025 419 1099 l 614 942 q 353 971 469 1011 q 201 801 236 931 q 242 500 165 672 l 149 500 m 261 14 l 138 14 l 965 985 l 1089 985 l 261 14 z "},"Ǿ":{"ha":1228,"x_min":72,"x_max":1156,"o":"m 1079 500 q 1116 133 1156 279 q 942 -56 1076 -12 q 614 -25 808 -99 l 614 58 q 875 29 758 -11 q 1027 199 992 69 q 986 500 1063 328 l 1079 500 m 986 500 q 1027 801 1063 672 q 875 971 992 931 q 614 942 758 1011 l 614 1025 q 942 1056 808 1099 q 1116 867 1076 1013 q 1079 500 1156 721 l 986 500 m 242 500 q 201 199 165 328 q 353 29 236 69 q 614 58 469 -11 l 614 -25 q 285 -56 419 -99 q 112 133 151 -12 q 149 500 72 279 l 242 500 m 149 500 q 112 867 72 721 q 285 1056 151 1013 q 614 1025 419 1099 l 614 942 q 353 971 469 1011 q 201 801 236 931 q 242 500 165 672 l 149 500 m 261 14 l 138 14 l 965 985 l 1089 985 l 261 14 m 444 1097 q 429 1286 401 1211 q 544 1369 457 1361 q 758 1307 632 1378 l 758 1215 q 581 1282 658 1283 q 470 1225 503 1281 q 465 1097 438 1169 l 444 1097 z "},"Õ":{"ha":1228,"x_min":72,"x_max":1156,"o":"m 1079 500 q 1116 133 1156 279 q 942 -56 1076 -12 q 614 -25 808 -99 l 614 58 q 875 29 758 -11 q 1027 199 992 69 q 986 500 1063 328 l 1079 500 m 986 500 q 1027 801 1063 672 q 875 971 992 931 q 614 942 758 1011 l 614 1025 q 942 1056 808 1099 q 1116 867 1076 1013 q 1079 500 1156 721 l 986 500 m 242 500 q 201 199 165 328 q 353 29 236 69 q 614 58 469 -11 l 614 -25 q 285 -56 419 -99 q 112 133 151 -12 q 149 500 72 279 l 242 500 m 149 500 q 112 867 72 721 q 285 1056 151 1013 q 614 1025 419 1099 l 614 942 q 353 971 469 1011 q 201 801 236 931 q 242 500 165 672 l 149 500 m 829 1326 q 903 1185 915 1253 q 803 1105 890 1117 q 614 1165 717 1093 l 614 1239 q 742 1177 675 1171 q 813 1236 808 1183 q 736 1326 818 1289 l 829 1326 m 399 1103 q 325 1244 313 1176 q 424 1324 338 1313 q 614 1264 511 1336 l 614 1190 q 486 1252 553 1258 q 415 1193 419 1246 q 492 1103 410 1140 l 399 1103 z "},"Œ":{"ha":1681,"x_min":72,"x_max":1617,"o":"m 1079 111 l 1617 111 l 1617 0 l 1079 0 l 1079 111 m 1079 568 l 1560 568 l 1560 457 l 1079 457 l 1079 568 m 1079 1000 l 1601 1000 l 1601 889 l 1079 889 l 1079 1000 m 954 1000 l 1079 1000 l 1079 0 l 954 0 l 954 1000 m 1035 500 q 1060 153 1094 304 q 906 -51 1025 3 q 614 -25 788 -104 l 614 58 q 848 30 743 -14 q 990 205 953 74 q 969 500 1026 336 l 1035 500 m 969 500 q 990 795 1026 664 q 848 970 953 926 q 614 942 743 1014 l 614 1025 q 906 1051 788 1104 q 1060 847 1025 997 q 1035 500 1094 696 l 969 500 m 242 500 q 201 199 165 328 q 353 29 236 69 q 614 58 469 -11 l 614 -25 q 285 -56 419 -99 q 112 133 151 -12 q 149 500 72 279 l 242 500 m 149 500 q 112 867 72 721 q 285 1056 151 1013 q 614 1025 419 1099 l 614 942 q 353 971 469 1011 q 201 801 236 931 q 242 500 165 672 l 149 500 z "},"P":{"ha":1015,"x_min":131,"x_max":958,"o":"m 781 696 q 842 869 863 785 q 729 972 821 953 q 540 917 638 990 l 540 1000 q 794 1053 683 1076 q 932 928 906 1029 q 874 696 958 828 l 781 696 m 540 496 l 540 383 l 256 383 l 256 496 l 540 496 m 874 696 q 931 458 957 561 q 794 331 904 356 q 540 383 683 307 l 540 467 q 729 413 638 393 q 842 518 821 432 q 781 696 863 604 l 874 696 m 256 1000 l 540 1000 l 540 888 l 256 888 l 256 1000 m 131 1000 l 256 1000 l 256 0 l 131 0 l 131 1000 z "},"Þ":{"ha":969,"x_min":125,"x_max":914,"o":"m 735 446 q 801 595 817 519 q 702 685 786 671 q 535 625 618 700 l 535 708 q 766 766 663 786 q 892 653 869 746 q 826 446 914 561 l 735 446 m 535 288 l 535 175 l 250 175 l 250 288 l 535 288 m 826 446 q 890 233 913 328 q 765 118 868 139 q 535 175 663 97 l 535 258 q 702 199 618 183 q 801 292 786 214 q 735 446 817 369 l 826 446 m 250 708 l 535 708 l 535 596 l 250 596 l 250 708 m 125 1000 l 250 1000 l 250 0 l 125 0 l 125 1000 z "},"Q":{"ha":1221,"x_min":72,"x_max":1156,"o":"m 628 -11 q 634 -156 596 -93 q 762 -223 672 -218 q 965 -160 851 -228 l 965 -253 q 720 -310 819 -324 q 589 -214 621 -296 q 601 -11 557 -132 l 628 -11 m 149 500 q 112 867 72 721 q 285 1056 151 1013 q 614 1025 419 1099 l 614 942 q 353 971 469 1011 q 201 801 236 931 q 242 500 165 672 l 149 500 m 242 500 q 201 199 165 328 q 353 29 236 69 q 614 58 469 -11 l 614 -25 q 285 -56 419 -99 q 112 133 151 -12 q 149 500 72 279 l 242 500 m 986 500 q 1027 801 1063 672 q 875 971 992 931 q 614 942 758 1011 l 614 1025 q 942 1056 808 1099 q 1116 867 1076 1013 q 1079 500 1156 721 l 986 500 m 1079 500 q 1116 133 1156 279 q 942 -56 1076 -12 q 614 -25 808 -99 l 614 58 q 875 29 758 -11 q 1027 199 992 69 q 986 500 1063 328 l 1079 500 z "},"R":{"ha":1032,"x_min":129,"x_max":957,"o":"m 765 0 q 806 270 832 154 q 681 437 781 386 q 447 457 582 488 l 447 489 q 749 473 631 524 q 899 299 867 422 q 864 0 931 175 l 765 0 m 778 717 q 840 878 860 800 q 727 974 819 957 q 538 917 635 990 l 538 1000 q 792 1053 681 1075 q 931 936 904 1032 q 871 717 957 840 l 778 717 m 538 532 l 538 419 l 254 419 l 254 532 l 538 532 m 871 717 q 931 496 957 593 q 792 376 904 399 q 538 431 681 354 l 538 514 q 727 456 635 440 q 840 553 819 472 q 778 717 860 633 l 871 717 m 254 1000 l 538 1000 l 538 889 l 254 889 l 254 1000 m 129 1000 l 254 1000 l 254 0 l 129 0 l 129 1000 z "},"Ŕ":{"ha":1032,"x_min":129,"x_max":957,"o":"m 765 0 q 806 270 832 154 q 681 437 781 386 q 447 457 582 488 l 447 489 q 749 473 631 524 q 899 299 867 422 q 864 0 931 175 l 765 0 m 778 717 q 840 878 860 800 q 727 974 819 957 q 538 917 635 990 l 538 1000 q 792 1053 681 1075 q 931 936 904 1032 q 871 717 957 840 l 778 717 m 538 532 l 538 419 l 254 419 l 254 532 l 538 532 m 871 717 q 931 496 957 593 q 792 376 904 399 q 538 431 681 354 l 538 514 q 727 456 635 440 q 840 553 819 472 q 778 717 860 633 l 871 717 m 254 1000 l 538 1000 l 538 889 l 254 889 l 254 1000 m 129 1000 l 254 1000 l 254 0 l 129 0 l 129 1000 m 314 1097 q 299 1286 271 1211 q 414 1369 326 1361 q 628 1307 501 1378 l 628 1215 q 450 1282 528 1283 q 340 1225 372 1281 q 335 1097 307 1169 l 314 1097 z "},"Ř":{"ha":1032,"x_min":129,"x_max":957,"o":"m 765 0 q 806 270 832 154 q 681 437 781 386 q 447 457 582 488 l 447 489 q 749 473 631 524 q 899 299 867 422 q 864 0 931 175 l 765 0 m 778 717 q 840 878 860 800 q 727 974 819 957 q 538 917 635 990 l 538 1000 q 792 1053 681 1075 q 931 936 904 1032 q 871 717 957 840 l 778 717 m 538 532 l 538 419 l 254 419 l 254 532 l 538 532 m 871 717 q 931 496 957 593 q 792 376 904 399 q 538 431 681 354 l 538 514 q 727 456 635 440 q 840 553 819 472 q 778 717 860 633 l 871 717 m 254 1000 l 538 1000 l 538 889 l 254 889 l 254 1000 m 129 1000 l 254 1000 l 254 0 l 129 0 l 129 1000 z "},"Ŗ":{"ha":1032,"x_min":129,"x_max":957,"o":"m 765 0 q 806 270 832 154 q 681 437 781 386 q 447 457 582 488 l 447 489 q 749 473 631 524 q 899 299 867 422 q 864 0 931 175 l 765 0 m 778 717 q 840 878 860 800 q 727 974 819 957 q 538 917 635 990 l 538 1000 q 792 1053 681 1075 q 931 936 904 1032 q 871 717 957 840 l 778 717 m 538 532 l 538 419 l 254 419 l 254 532 l 538 532 m 871 717 q 931 496 957 593 q 792 376 904 399 q 538 431 681 354 l 538 514 q 727 456 635 440 q 840 553 819 472 q 778 717 860 633 l 871 717 m 254 1000 l 538 1000 l 538 889 l 254 889 l 254 1000 m 129 1000 l 254 1000 l 254 0 l 129 0 l 129 1000 m 411 -78 l 578 -78 l 578 -218 l 411 -218 l 411 -78 m 578 -218 q 625 -378 636 -311 q 547 -451 614 -444 q 388 -393 479 -457 l 388 -319 q 506 -376 453 -379 q 566 -322 558 -372 q 526 -218 574 -271 l 578 -218 z "},"S":{"ha":1081,"x_min":56,"x_max":1017,"o":"m 233 300 q 181 115 151 201 q 317 8 210 28 q 544 58 424 -11 l 544 -25 q 249 -73 375 -99 q 89 56 122 -47 q 142 300 56 160 l 233 300 m 926 286 q 980 51 1011 151 q 826 -74 949 -50 q 544 -25 704 -99 l 544 58 q 760 6 657 -12 q 889 109 863 25 q 833 286 915 193 l 926 286 m 833 286 q 894 460 919 375 q 769 560 869 544 q 568 490 668 575 l 568 589 q 833 653 714 675 q 985 526 953 631 q 926 286 1017 421 l 833 286 m 269 747 q 212 581 182 663 q 349 487 242 500 q 568 556 457 474 l 568 457 q 283 394 410 374 q 121 515 156 414 q 178 747 86 617 l 269 747 m 804 719 q 861 893 886 810 q 735 994 836 976 q 525 942 635 1013 l 525 1025 q 801 1076 681 1100 q 952 951 921 1051 q 897 719 983 851 l 804 719 m 178 747 q 118 964 90 869 q 261 1079 146 1058 q 525 1025 376 1100 l 525 942 q 328 998 424 1014 q 209 905 232 982 q 269 747 186 828 l 178 747 z "},"Ś":{"ha":1081,"x_min":56,"x_max":1017,"o":"m 233 300 q 181 115 151 201 q 317 8 210 28 q 544 58 424 -11 l 544 -25 q 249 -73 375 -99 q 89 56 122 -47 q 142 300 56 160 l 233 300 m 926 286 q 980 51 1011 151 q 826 -74 949 -50 q 544 -25 704 -99 l 544 58 q 760 6 657 -12 q 889 109 863 25 q 833 286 915 193 l 926 286 m 833 286 q 894 460 919 375 q 769 560 869 544 q 568 490 668 575 l 568 589 q 833 653 714 675 q 985 526 953 631 q 926 286 1017 421 l 833 286 m 269 747 q 212 581 182 663 q 349 487 242 500 q 568 556 457 474 l 568 457 q 283 394 410 374 q 121 515 156 414 q 178 747 86 617 l 269 747 m 804 719 q 861 893 886 810 q 735 994 836 976 q 525 942 635 1013 l 525 1025 q 801 1076 681 1100 q 952 951 921 1051 q 897 719 983 851 l 804 719 m 178 747 q 118 964 90 869 q 261 1079 146 1058 q 525 1025 376 1100 l 525 942 q 328 998 424 1014 q 209 905 232 982 q 269 747 186 828 l 178 747 m 368 1097 q 353 1286 325 1211 q 468 1369 381 1361 q 682 1307 556 1378 l 682 1215 q 504 1282 582 1283 q 394 1225 426 1281 q 389 1097 361 1169 l 368 1097 z "},"Š":{"ha":1081,"x_min":56,"x_max":1017,"o":"m 233 300 q 181 115 151 201 q 317 8 210 28 q 544 58 424 -11 l 544 -25 q 249 -73 375 -99 q 89 56 122 -47 q 142 300 56 160 l 233 300 m 926 286 q 980 51 1011 151 q 826 -74 949 -50 q 544 -25 704 -99 l 544 58 q 760 6 657 -12 q 889 109 863 25 q 833 286 915 193 l 926 286 m 833 286 q 894 460 919 375 q 769 560 869 544 q 568 490 668 575 l 568 589 q 833 653 714 675 q 985 526 953 631 q 926 286 1017 421 l 833 286 m 269 747 q 212 581 182 663 q 349 487 242 500 q 568 556 457 474 l 568 457 q 283 394 410 374 q 121 515 156 414 q 178 747 86 617 l 269 747 m 804 719 q 861 893 886 810 q 735 994 836 976 q 525 942 635 1013 l 525 1025 q 801 1076 681 1100 q 952 951 921 1051 q 897 719 983 851 l 804 719 m 178 747 q 118 964 90 869 q 261 1079 146 1058 q 525 1025 376 1100 l 525 942 q 328 998 424 1014 q 209 905 232 982 q 269 747 186 828 l 178 747 z "},"Ş":{"ha":1081,"x_min":56,"x_max":1017,"o":"m 233 300 q 181 115 151 201 q 317 8 210 28 q 544 58 424 -11 l 544 -25 q 249 -73 375 -99 q 89 56 122 -47 q 142 300 56 160 l 233 300 m 926 286 q 980 51 1011 151 q 826 -74 949 -50 q 544 -25 704 -99 l 544 58 q 760 6 657 -12 q 889 109 863 25 q 833 286 915 193 l 926 286 m 833 286 q 894 460 919 375 q 769 560 869 544 q 568 490 668 575 l 568 589 q 833 653 714 675 q 985 526 953 631 q 926 286 1017 421 l 833 286 m 269 747 q 212 581 182 663 q 349 487 242 500 q 568 556 457 474 l 568 457 q 283 394 410 374 q 121 515 156 414 q 178 747 86 617 l 269 747 m 804 719 q 861 893 886 810 q 735 994 836 976 q 525 942 635 1013 l 525 1025 q 801 1076 681 1100 q 952 951 921 1051 q 897 719 983 851 l 804 719 m 178 747 q 118 964 90 869 q 261 1079 146 1058 q 525 1025 376 1100 l 525 942 q 328 998 424 1014 q 209 905 232 982 q 269 747 186 828 l 178 747 m 693 -89 q 737 15 746 -37 q 673 69 728 68 q 560 3 618 71 l 560 86 q 715 153 644 158 q 797 76 785 147 q 746 -89 810 6 l 693 -89 m 746 -89 q 784 -270 811 -193 q 659 -357 757 -347 q 435 -290 561 -367 l 435 -197 q 611 -269 528 -271 q 722 -208 694 -267 q 693 -89 750 -150 l 746 -89 z "},"Ŝ":{"ha":1081,"x_min":56,"x_max":1017,"o":"m 233 300 q 181 115 151 201 q 317 8 210 28 q 544 58 424 -11 l 544 -25 q 249 -73 375 -99 q 89 56 122 -47 q 142 300 56 160 l 233 300 m 926 286 q 980 51 1011 151 q 826 -74 949 -50 q 544 -25 704 -99 l 544 58 q 760 6 657 -12 q 889 109 863 25 q 833 286 915 193 l 926 286 m 833 286 q 894 460 919 375 q 769 560 869 544 q 568 490 668 575 l 568 589 q 833 653 714 675 q 985 526 953 631 q 926 286 1017 421 l 833 286 m 269 747 q 212 581 182 663 q 349 487 242 500 q 568 556 457 474 l 568 457 q 283 394 410 374 q 121 515 156 414 q 178 747 86 617 l 269 747 m 804 719 q 861 893 886 810 q 735 994 836 976 q 525 942 635 1013 l 525 1025 q 801 1076 681 1100 q 952 951 921 1051 q 897 719 983 851 l 804 719 m 178 747 q 118 964 90 869 q 261 1079 146 1058 q 525 1025 376 1100 l 525 942 q 328 998 424 1014 q 209 905 232 982 q 269 747 186 828 l 178 747 m 469 1124 l 329 1124 l 457 1294 l 597 1294 l 469 1124 m 618 1294 l 746 1124 l 606 1124 l 478 1294 l 618 1294 z "},"Ș":{"ha":1081,"x_min":56,"x_max":1017,"o":"m 233 300 q 181 115 151 201 q 317 8 210 28 q 544 58 424 -11 l 544 -25 q 249 -73 375 -99 q 89 56 122 -47 q 142 300 56 160 l 233 300 m 926 286 q 980 51 1011 151 q 826 -74 949 -50 q 544 -25 704 -99 l 544 58 q 760 6 657 -12 q 889 109 863 25 q 833 286 915 193 l 926 286 m 833 286 q 894 460 919 375 q 769 560 869 544 q 568 490 668 575 l 568 589 q 833 653 714 675 q 985 526 953 631 q 926 286 1017 421 l 833 286 m 269 747 q 212 581 182 663 q 349 487 242 500 q 568 556 457 474 l 568 457 q 283 394 410 374 q 121 515 156 414 q 178 747 86 617 l 269 747 m 804 719 q 861 893 886 810 q 735 994 836 976 q 525 942 635 1013 l 525 1025 q 801 1076 681 1100 q 952 951 921 1051 q 897 719 983 851 l 804 719 m 178 747 q 118 964 90 869 q 261 1079 146 1058 q 525 1025 376 1100 l 525 942 q 328 998 424 1014 q 209 905 232 982 q 269 747 186 828 l 178 747 m 476 -81 l 643 -81 l 643 -221 l 476 -221 l 476 -81 m 643 -221 q 690 -381 701 -314 q 612 -453 679 -447 q 453 -396 544 -460 l 453 -322 q 571 -378 518 -382 q 631 -324 624 -375 q 592 -221 639 -274 l 643 -221 z "},"ẞ":{"ha":1039,"x_min":131,"x_max":982,"o":"m 583 457 l 425 457 l 425 569 l 583 569 l 583 457 m 583 0 l 425 0 l 425 113 l 583 113 l 583 0 m 696 888 l 854 888 l 583 569 l 425 569 l 696 888 m 256 888 l 256 1000 l 854 1000 l 854 888 l 256 888 m 897 289 q 958 65 982 164 q 826 -56 933 -33 q 583 0 718 -78 l 583 83 q 762 26 674 10 q 868 124 850 43 q 804 289 886 204 l 897 289 m 804 289 q 868 449 886 369 q 762 544 850 528 q 583 486 674 560 l 583 569 q 826 624 718 646 q 958 507 933 603 q 897 289 982 411 l 804 289 m 131 1000 l 256 1000 l 256 0 l 131 0 l 131 1000 z "},"T":{"ha":868,"x_min":42,"x_max":825,"o":"m 42 1000 l 825 1000 l 825 889 l 42 889 l 42 1000 m 371 889 l 496 889 l 496 0 l 371 0 l 371 889 z "},"Ŧ":{"ha":869,"x_min":42,"x_max":825,"o":"m 168 551 l 696 551 l 696 446 l 168 446 l 168 551 m 371 889 l 496 889 l 496 0 l 371 0 l 371 889 m 42 1000 l 825 1000 l 825 889 l 42 889 l 42 1000 z "},"Ť":{"ha":868,"x_min":42,"x_max":825,"o":"m 42 1000 l 825 1000 l 825 889 l 42 889 l 42 1000 m 371 889 l 496 889 l 496 0 l 371 0 l 371 889 z "},"Ţ":{"ha":868,"x_min":42,"x_max":825,"o":"m 42 1000 l 825 1000 l 825 889 l 42 889 l 42 1000 m 371 889 l 496 889 l 496 0 l 371 0 l 371 889 m 504 -86 q 548 18 557 -35 q 484 72 539 71 q 371 6 429 74 l 371 89 q 526 156 456 161 q 608 79 596 150 q 557 -86 621 8 l 504 -86 m 557 -86 q 595 -267 622 -190 q 470 -354 568 -344 q 246 -287 372 -364 l 246 -194 q 422 -266 339 -268 q 533 -206 506 -264 q 504 -86 561 -147 l 557 -86 z "},"Ț":{"ha":868,"x_min":42,"x_max":825,"o":"m 42 1000 l 825 1000 l 825 889 l 42 889 l 42 1000 m 371 889 l 496 889 l 496 0 l 371 0 l 371 889 m 350 -78 l 517 -78 l 517 -218 l 350 -218 l 350 -78 m 517 -218 q 564 -378 575 -311 q 485 -451 553 -444 q 326 -393 418 -457 l 326 -319 q 444 -376 392 -379 q 505 -322 497 -372 q 465 -218 513 -271 l 517 -218 z "},"U":{"ha":1036,"x_min":61,"x_max":979,"o":"m 771 338 l 771 1000 l 896 1000 l 896 338 l 771 338 m 896 338 q 949 69 979 182 q 799 -72 918 -43 q 519 -25 679 -100 l 519 58 q 733 10 632 -14 q 859 131 833 35 q 804 338 885 226 l 896 338 m 143 1000 l 268 1000 l 268 338 l 143 338 l 143 1000 m 236 338 q 181 131 156 226 q 308 10 207 35 q 519 58 408 -14 l 519 -25 q 242 -72 361 -100 q 92 69 122 -43 q 143 338 61 182 l 236 338 z "},"Ú":{"ha":1036,"x_min":61,"x_max":979,"o":"m 771 338 l 771 1000 l 896 1000 l 896 338 l 771 338 m 896 338 q 949 69 979 182 q 799 -72 918 -43 q 519 -25 679 -100 l 519 58 q 733 10 632 -14 q 859 131 833 35 q 804 338 885 226 l 896 338 m 143 1000 l 268 1000 l 268 338 l 143 338 l 143 1000 m 236 338 q 181 131 156 226 q 308 10 207 35 q 519 58 408 -14 l 519 -25 q 242 -72 361 -100 q 92 69 122 -43 q 143 338 61 182 l 236 338 m 350 1097 q 335 1286 307 1211 q 450 1369 363 1361 q 664 1307 538 1378 l 664 1215 q 486 1282 564 1283 q 376 1225 408 1281 q 371 1097 343 1169 l 350 1097 z "},"Ŭ":{"ha":1036,"x_min":61,"x_max":979,"o":"m 771 338 l 771 1000 l 896 1000 l 896 338 l 771 338 m 896 338 q 949 69 979 182 q 799 -72 918 -43 q 519 -25 679 -100 l 519 58 q 733 10 632 -14 q 859 131 833 35 q 804 338 885 226 l 896 338 m 143 1000 l 268 1000 l 268 338 l 143 338 l 143 1000 m 236 338 q 181 131 156 226 q 308 10 207 35 q 519 58 408 -14 l 519 -25 q 242 -72 361 -100 q 92 69 122 -43 q 143 338 61 182 l 236 338 m 404 1294 q 327 1185 324 1246 q 395 1113 331 1124 q 519 1172 460 1103 l 519 1099 q 334 1041 418 1026 q 238 1132 250 1056 q 311 1294 226 1208 l 404 1294 m 728 1296 q 801 1133 813 1210 q 705 1041 789 1056 q 519 1099 621 1026 l 519 1172 q 644 1113 579 1103 q 712 1185 708 1124 q 635 1296 715 1246 l 728 1296 z "},"Û":{"ha":1036,"x_min":61,"x_max":979,"o":"m 771 338 l 771 1000 l 896 1000 l 896 338 l 771 338 m 896 338 q 949 69 979 182 q 799 -72 918 -43 q 519 -25 679 -100 l 519 58 q 733 10 632 -14 q 859 131 833 35 q 804 338 885 226 l 896 338 m 143 1000 l 268 1000 l 268 338 l 143 338 l 143 1000 m 236 338 q 181 131 156 226 q 308 10 207 35 q 519 58 408 -14 l 519 -25 q 242 -72 361 -100 q 92 69 122 -43 q 143 338 61 182 l 236 338 m 451 1124 l 311 1124 l 439 1294 l 579 1294 l 451 1124 m 600 1294 l 728 1124 l 588 1124 l 460 1294 l 600 1294 z "},"Ü":{"ha":1036,"x_min":61,"x_max":979,"o":"m 771 338 l 771 1000 l 896 1000 l 896 338 l 771 338 m 896 338 q 949 69 979 182 q 799 -72 918 -43 q 519 -25 679 -100 l 519 58 q 733 10 632 -14 q 859 131 833 35 q 804 338 885 226 l 896 338 m 143 1000 l 268 1000 l 268 338 l 143 338 l 143 1000 m 236 338 q 181 131 156 226 q 308 10 207 35 q 519 58 408 -14 l 519 -25 q 242 -72 361 -100 q 92 69 122 -43 q 143 338 61 182 l 236 338 m 586 1285 l 746 1285 l 746 1132 l 586 1132 l 586 1285 m 293 1285 l 453 1285 l 453 1132 l 293 1132 l 293 1285 z "},"Ụ":{"ha":1036,"x_min":61,"x_max":979,"o":"m 771 338 l 771 1000 l 896 1000 l 896 338 l 771 338 m 896 338 q 949 69 979 182 q 799 -72 918 -43 q 519 -25 679 -100 l 519 58 q 733 10 632 -14 q 859 131 833 35 q 804 338 885 226 l 896 338 m 143 1000 l 268 1000 l 268 338 l 143 338 l 143 1000 m 236 338 q 181 131 156 226 q 308 10 207 35 q 519 58 408 -14 l 519 -25 q 242 -72 361 -100 q 92 69 122 -43 q 143 338 61 182 l 236 338 z "},"Ù":{"ha":1036,"x_min":61,"x_max":979,"o":"m 771 338 l 771 1000 l 896 1000 l 896 338 l 771 338 m 896 338 q 949 69 979 182 q 799 -72 918 -43 q 519 -25 679 -100 l 519 58 q 733 10 632 -14 q 859 131 833 35 q 804 338 885 226 l 896 338 m 143 1000 l 268 1000 l 268 338 l 143 338 l 143 1000 m 236 338 q 181 131 156 226 q 308 10 207 35 q 519 58 408 -14 l 519 -25 q 242 -72 361 -100 q 92 69 122 -43 q 143 338 61 182 l 236 338 m 668 1097 q 663 1225 696 1169 q 553 1282 631 1281 q 375 1215 475 1283 l 375 1307 q 589 1369 501 1378 q 704 1286 676 1361 q 689 1097 732 1211 l 668 1097 z "},"Ű":{"ha":1036,"x_min":61,"x_max":979,"o":"m 771 338 l 771 1000 l 896 1000 l 896 338 l 771 338 m 896 338 q 949 69 979 182 q 799 -72 918 -43 q 519 -25 679 -100 l 519 58 q 733 10 632 -14 q 859 131 833 35 q 804 338 885 226 l 896 338 m 143 1000 l 268 1000 l 268 338 l 143 338 l 143 1000 m 236 338 q 181 131 156 226 q 308 10 207 35 q 519 58 408 -14 l 519 -25 q 242 -72 361 -100 q 92 69 122 -43 q 143 338 61 182 l 236 338 m 610 1097 q 579 1294 564 1217 q 658 1378 594 1372 q 803 1308 721 1385 l 803 1215 q 685 1287 738 1288 q 617 1228 633 1286 q 632 1097 601 1169 l 610 1097 m 350 1097 q 319 1294 304 1217 q 398 1378 335 1372 q 543 1308 461 1385 l 543 1215 q 426 1287 478 1288 q 358 1228 374 1286 q 372 1097 342 1169 l 350 1097 z "},"Ū":{"ha":1036,"x_min":61,"x_max":979,"o":"m 771 338 l 771 1000 l 896 1000 l 896 338 l 771 338 m 896 338 q 949 69 979 182 q 799 -72 918 -43 q 519 -25 679 -100 l 519 58 q 733 10 632 -14 q 859 131 833 35 q 804 338 885 226 l 896 338 m 143 1000 l 268 1000 l 268 338 l 143 338 l 143 1000 m 236 338 q 181 131 156 226 q 308 10 207 35 q 519 58 408 -14 l 519 -25 q 242 -72 361 -100 q 92 69 122 -43 q 143 338 61 182 l 236 338 m 294 1285 l 743 1285 l 743 1167 l 294 1167 l 294 1285 z "},"Ų":{"ha":1036,"x_min":61,"x_max":979,"o":"m 771 338 l 771 1000 l 896 1000 l 896 338 l 771 338 m 896 338 q 949 69 979 182 q 799 -72 918 -43 q 519 -25 679 -100 l 519 58 q 733 10 632 -14 q 859 131 833 35 q 804 338 885 226 l 896 338 m 143 1000 l 268 1000 l 268 338 l 143 338 l 143 1000 m 236 338 q 181 131 156 226 q 308 10 207 35 q 519 58 408 -14 l 519 -25 q 242 -72 361 -100 q 92 69 122 -43 q 143 338 61 182 l 236 338 m 499 -8 q 474 -142 457 -79 q 549 -209 490 -206 q 678 -137 608 -212 l 678 -231 q 514 -300 585 -310 q 426 -208 443 -290 q 464 -8 410 -125 l 499 -8 z "},"Ů":{"ha":1036,"x_min":61,"x_max":979,"o":"m 771 338 l 771 1000 l 896 1000 l 896 338 l 771 338 m 896 338 q 949 69 979 182 q 799 -72 918 -43 q 519 -25 679 -100 l 519 58 q 733 10 632 -14 q 859 131 833 35 q 804 338 885 226 l 896 338 m 143 1000 l 268 1000 l 268 338 l 143 338 l 143 1000 m 236 338 q 181 131 156 226 q 308 10 207 35 q 519 58 408 -14 l 519 -25 q 242 -72 361 -100 q 92 69 122 -43 q 143 338 61 182 l 236 338 m 364 1243 q 308 1376 304 1322 q 372 1435 313 1429 q 519 1392 432 1442 l 519 1338 q 417 1377 460 1383 q 377 1328 375 1371 q 429 1243 379 1285 l 364 1243 m 610 1243 q 662 1328 660 1285 q 622 1377 664 1371 q 519 1338 579 1383 l 519 1392 q 667 1435 607 1442 q 731 1376 726 1429 q 675 1243 735 1322 l 610 1243 m 429 1243 q 377 1158 379 1201 q 417 1109 375 1115 q 519 1149 460 1103 l 519 1094 q 372 1051 432 1044 q 308 1110 313 1057 q 364 1243 304 1164 l 429 1243 m 675 1243 q 731 1110 735 1164 q 667 1051 726 1057 q 519 1094 607 1044 l 519 1149 q 622 1109 579 1103 q 662 1158 664 1115 q 610 1243 660 1201 l 675 1243 z "},"Ũ":{"ha":1036,"x_min":61,"x_max":979,"o":"m 771 338 l 771 1000 l 896 1000 l 896 338 l 771 338 m 896 338 q 949 69 979 182 q 799 -72 918 -43 q 519 -25 679 -100 l 519 58 q 733 10 632 -14 q 859 131 833 35 q 804 338 885 226 l 896 338 m 143 1000 l 268 1000 l 268 338 l 143 338 l 143 1000 m 236 338 q 181 131 156 226 q 308 10 207 35 q 519 58 408 -14 l 519 -25 q 242 -72 361 -100 q 92 69 122 -43 q 143 338 61 182 l 236 338 m 735 1326 q 808 1185 821 1253 q 709 1105 796 1117 q 519 1165 622 1093 l 519 1239 q 647 1177 581 1171 q 719 1236 714 1183 q 642 1326 724 1289 l 735 1326 m 304 1103 q 231 1244 218 1176 q 330 1324 243 1313 q 519 1264 417 1336 l 519 1190 q 392 1252 458 1258 q 320 1193 325 1246 q 397 1103 315 1140 l 304 1103 z "},"V":{"ha":928,"x_min":42,"x_max":885,"o":"m 538 0 l 410 0 l 757 1000 l 885 1000 l 538 0 m 176 1000 l 524 0 l 389 0 l 42 1000 l 176 1000 z "},"W":{"ha":1404,"x_min":47,"x_max":1358,"o":"m 776 1000 l 1040 0 l 914 0 l 650 1000 l 776 1000 m 1088 0 l 963 0 l 1235 1000 l 1358 1000 l 1088 0 m 489 0 l 368 0 l 628 1000 l 749 1000 l 489 0 m 174 1000 l 446 0 l 318 0 l 47 1000 l 174 1000 z "},"Ẃ":{"ha":1404,"x_min":47,"x_max":1358,"o":"m 776 1000 l 1040 0 l 914 0 l 650 1000 l 776 1000 m 1088 0 l 963 0 l 1235 1000 l 1358 1000 l 1088 0 m 489 0 l 368 0 l 628 1000 l 749 1000 l 489 0 m 174 1000 l 446 0 l 318 0 l 47 1000 l 174 1000 m 533 1097 q 518 1286 490 1211 q 633 1369 546 1361 q 847 1307 721 1378 l 847 1215 q 669 1282 747 1283 q 559 1225 592 1281 q 554 1097 526 1169 l 533 1097 z "},"Ŵ":{"ha":1404,"x_min":47,"x_max":1358,"o":"m 776 1000 l 1040 0 l 914 0 l 650 1000 l 776 1000 m 1088 0 l 963 0 l 1235 1000 l 1358 1000 l 1088 0 m 489 0 l 368 0 l 628 1000 l 749 1000 l 489 0 m 174 1000 l 446 0 l 318 0 l 47 1000 l 174 1000 m 635 1124 l 494 1124 l 622 1294 l 763 1294 l 635 1124 m 783 1294 l 911 1124 l 771 1124 l 643 1294 l 783 1294 z "},"Ẅ":{"ha":1404,"x_min":47,"x_max":1358,"o":"m 776 1000 l 1040 0 l 914 0 l 650 1000 l 776 1000 m 1088 0 l 963 0 l 1235 1000 l 1358 1000 l 1088 0 m 489 0 l 368 0 l 628 1000 l 749 1000 l 489 0 m 174 1000 l 446 0 l 318 0 l 47 1000 l 174 1000 m 769 1285 l 929 1285 l 929 1132 l 769 1132 l 769 1285 m 476 1285 l 636 1285 l 636 1132 l 476 1132 l 476 1285 z "},"Ẁ":{"ha":1404,"x_min":47,"x_max":1358,"o":"m 776 1000 l 1040 0 l 914 0 l 650 1000 l 776 1000 m 1088 0 l 963 0 l 1235 1000 l 1358 1000 l 1088 0 m 489 0 l 368 0 l 628 1000 l 749 1000 l 489 0 m 174 1000 l 446 0 l 318 0 l 47 1000 l 174 1000 m 851 1097 q 847 1225 879 1169 q 736 1282 814 1281 q 558 1215 658 1283 l 558 1307 q 772 1369 685 1378 q 888 1286 860 1361 q 872 1097 915 1211 l 851 1097 z "},"X":{"ha":950,"x_min":42,"x_max":910,"o":"m 192 0 l 42 0 l 747 1000 l 897 1000 l 192 0 m 756 0 l 50 1000 l 204 1000 l 910 0 l 756 0 z "},"Y":{"ha":943,"x_min":38,"x_max":914,"o":"m 322 0 l 176 0 l 768 1000 l 914 1000 l 322 0 m 399 375 l 38 1000 l 183 1000 l 544 375 l 399 375 z "},"Ý":{"ha":943,"x_min":38,"x_max":914,"o":"m 322 0 l 176 0 l 768 1000 l 914 1000 l 322 0 m 399 375 l 38 1000 l 183 1000 l 544 375 l 399 375 m 310 1097 q 294 1286 267 1211 q 410 1369 322 1361 q 624 1307 497 1378 l 624 1215 q 446 1282 524 1283 q 335 1225 368 1281 q 331 1097 303 1169 l 310 1097 z "},"Ŷ":{"ha":943,"x_min":38,"x_max":914,"o":"m 322 0 l 176 0 l 768 1000 l 914 1000 l 322 0 m 399 375 l 38 1000 l 183 1000 l 544 375 l 399 375 m 411 1124 l 271 1124 l 399 1294 l 539 1294 l 411 1124 m 560 1294 l 688 1124 l 547 1124 l 419 1294 l 560 1294 z "},"Ÿ":{"ha":943,"x_min":38,"x_max":914,"o":"m 322 0 l 176 0 l 768 1000 l 914 1000 l 322 0 m 399 375 l 38 1000 l 183 1000 l 544 375 l 399 375 m 546 1285 l 706 1285 l 706 1132 l 546 1132 l 546 1285 m 253 1285 l 413 1285 l 413 1132 l 253 1132 l 253 1285 z "},"Ỳ":{"ha":943,"x_min":38,"x_max":914,"o":"m 322 0 l 176 0 l 768 1000 l 914 1000 l 322 0 m 399 375 l 38 1000 l 183 1000 l 544 375 l 399 375 m 628 1097 q 623 1225 656 1169 q 513 1282 590 1281 q 335 1215 435 1283 l 335 1307 q 549 1369 461 1378 q 664 1286 636 1361 q 649 1097 692 1211 l 628 1097 z "},"Ȳ":{"ha":943,"x_min":38,"x_max":914,"o":"m 322 0 l 176 0 l 768 1000 l 914 1000 l 322 0 m 399 375 l 38 1000 l 183 1000 l 544 375 l 399 375 m 254 1285 l 703 1285 l 703 1167 l 254 1167 l 254 1285 z "},"Z":{"ha":903,"x_min":54,"x_max":839,"o":"m 682 889 l 838 889 l 210 111 l 54 111 l 682 889 m 99 1000 l 838 1000 l 838 889 l 99 889 l 99 1000 m 54 111 l 839 111 l 839 0 l 54 0 l 54 111 z "},"Ź":{"ha":903,"x_min":54,"x_max":839,"o":"m 682 889 l 838 889 l 210 111 l 54 111 l 682 889 m 99 1000 l 838 1000 l 838 889 l 99 889 l 99 1000 m 54 111 l 839 111 l 839 0 l 54 0 l 54 111 m 283 1097 q 268 1286 240 1211 q 383 1369 296 1361 q 597 1307 471 1378 l 597 1215 q 419 1282 497 1283 q 309 1225 342 1281 q 304 1097 276 1169 l 283 1097 z "},"Ž":{"ha":903,"x_min":54,"x_max":839,"o":"m 682 889 l 838 889 l 210 111 l 54 111 l 682 889 m 99 1000 l 838 1000 l 838 889 l 99 889 l 99 1000 m 54 111 l 839 111 l 839 0 l 54 0 l 54 111 z "},"Ż":{"ha":903,"x_min":54,"x_max":839,"o":"m 682 889 l 838 889 l 210 111 l 54 111 l 682 889 m 99 1000 l 838 1000 l 838 889 l 99 889 l 99 1000 m 54 111 l 839 111 l 839 0 l 54 0 l 54 111 m 369 1285 l 536 1285 l 536 1131 l 369 1131 l 369 1285 z "},"a":{"ha":864,"x_min":51,"x_max":824,"o":"m 618 481 q 636 299 656 365 q 549 233 617 233 q 381 300 481 232 l 381 386 q 526 320 468 322 q 606 365 583 318 q 611 481 628 411 l 618 481 m 628 304 q 640 48 660 149 q 551 -74 619 -53 q 376 -24 482 -96 l 376 65 q 525 13 464 -1 q 610 107 586 26 q 621 304 635 188 l 628 304 m 736 0 l 611 0 l 611 485 l 736 485 l 736 0 m 168 513 q 102 695 81 611 q 228 794 124 779 q 457 733 332 810 l 457 650 q 290 713 375 724 q 191 637 206 703 q 261 513 176 571 l 168 513 m 644 485 q 713 626 728 553 q 617 712 699 699 q 457 649 536 725 l 457 733 q 681 793 581 811 q 803 685 782 775 q 736 485 824 594 l 644 485 m 232 199 q 157 72 147 140 q 240 -7 167 3 q 376 65 314 -17 l 376 -24 q 178 -93 271 -108 q 68 10 85 -78 q 139 199 51 99 l 232 199 m 139 199 q 68 381 51 296 q 178 481 85 465 q 381 415 272 497 l 381 329 q 241 399 315 408 q 157 322 167 390 q 232 199 147 254 l 139 199 z "},"á":{"ha":864,"x_min":51,"x_max":824,"o":"m 618 481 q 636 299 656 365 q 549 233 617 233 q 381 300 481 232 l 381 386 q 526 320 468 322 q 606 365 583 318 q 611 481 628 411 l 618 481 m 628 304 q 640 48 660 149 q 551 -74 619 -53 q 376 -24 482 -96 l 376 65 q 525 13 464 -1 q 610 107 586 26 q 621 304 635 188 l 628 304 m 736 0 l 611 0 l 611 485 l 736 485 l 736 0 m 168 513 q 102 695 81 611 q 228 794 124 779 q 457 733 332 810 l 457 650 q 290 713 375 724 q 191 637 206 703 q 261 513 176 571 l 168 513 m 644 485 q 713 626 728 553 q 617 712 699 699 q 457 649 536 725 l 457 733 q 681 793 581 811 q 803 685 782 775 q 736 485 824 594 l 644 485 m 232 199 q 157 72 147 140 q 240 -7 167 3 q 376 65 314 -17 l 376 -24 q 178 -93 271 -108 q 68 10 85 -78 q 139 199 51 99 l 232 199 m 139 199 q 68 381 51 296 q 178 481 85 465 q 381 415 272 497 l 381 329 q 241 399 315 408 q 157 322 167 390 q 232 199 147 254 l 139 199 m 285 806 q 269 994 242 919 q 385 1078 297 1069 q 599 1015 472 1086 l 599 924 q 421 990 499 992 q 310 933 343 989 q 306 806 278 878 l 285 806 z "},"ă":{"ha":864,"x_min":51,"x_max":824,"o":"m 618 481 q 636 299 656 365 q 549 233 617 233 q 381 300 481 232 l 381 386 q 526 320 468 322 q 606 365 583 318 q 611 481 628 411 l 618 481 m 628 304 q 640 48 660 149 q 551 -74 619 -53 q 376 -24 482 -96 l 376 65 q 525 13 464 -1 q 610 107 586 26 q 621 304 635 188 l 628 304 m 736 0 l 611 0 l 611 485 l 736 485 l 736 0 m 168 513 q 102 695 81 611 q 228 794 124 779 q 457 733 332 810 l 457 650 q 290 713 375 724 q 191 637 206 703 q 261 513 176 571 l 168 513 m 644 485 q 713 626 728 553 q 617 712 699 699 q 457 649 536 725 l 457 733 q 681 793 581 811 q 803 685 782 775 q 736 485 824 594 l 644 485 m 232 199 q 157 72 147 140 q 240 -7 167 3 q 376 65 314 -17 l 376 -24 q 178 -93 271 -108 q 68 10 85 -78 q 139 199 51 99 l 232 199 m 139 199 q 68 381 51 296 q 178 481 85 465 q 381 415 272 497 l 381 329 q 241 399 315 408 q 157 322 167 390 q 232 199 147 254 l 139 199 m 339 1003 q 262 893 258 954 q 330 822 265 832 q 454 881 394 811 l 454 807 q 269 749 353 735 q 173 840 185 764 q 246 1003 161 917 l 339 1003 m 663 1004 q 735 841 747 918 q 640 749 724 764 q 454 807 556 735 l 454 881 q 578 822 514 811 q 647 893 643 832 q 569 1004 650 954 l 663 1004 z "},"â":{"ha":864,"x_min":51,"x_max":824,"o":"m 618 481 q 636 299 656 365 q 549 233 617 233 q 381 300 481 232 l 381 386 q 526 320 468 322 q 606 365 583 318 q 611 481 628 411 l 618 481 m 628 304 q 640 48 660 149 q 551 -74 619 -53 q 376 -24 482 -96 l 376 65 q 525 13 464 -1 q 610 107 586 26 q 621 304 635 188 l 628 304 m 736 0 l 611 0 l 611 485 l 736 485 l 736 0 m 168 513 q 102 695 81 611 q 228 794 124 779 q 457 733 332 810 l 457 650 q 290 713 375 724 q 191 637 206 703 q 261 513 176 571 l 168 513 m 644 485 q 713 626 728 553 q 617 712 699 699 q 457 649 536 725 l 457 733 q 681 793 581 811 q 803 685 782 775 q 736 485 824 594 l 644 485 m 232 199 q 157 72 147 140 q 240 -7 167 3 q 376 65 314 -17 l 376 -24 q 178 -93 271 -108 q 68 10 85 -78 q 139 199 51 99 l 232 199 m 139 199 q 68 381 51 296 q 178 481 85 465 q 381 415 272 497 l 381 329 q 241 399 315 408 q 157 322 167 390 q 232 199 147 254 l 139 199 m 386 832 l 246 832 l 374 1003 l 514 1003 l 386 832 m 535 1003 l 663 832 l 522 832 l 394 1003 l 535 1003 z "},"ä":{"ha":864,"x_min":51,"x_max":824,"o":"m 618 481 q 636 299 656 365 q 549 233 617 233 q 381 300 481 232 l 381 386 q 526 320 468 322 q 606 365 583 318 q 611 481 628 411 l 618 481 m 628 304 q 640 48 660 149 q 551 -74 619 -53 q 376 -24 482 -96 l 376 65 q 525 13 464 -1 q 610 107 586 26 q 621 304 635 188 l 628 304 m 736 0 l 611 0 l 611 485 l 736 485 l 736 0 m 168 513 q 102 695 81 611 q 228 794 124 779 q 457 733 332 810 l 457 650 q 290 713 375 724 q 191 637 206 703 q 261 513 176 571 l 168 513 m 644 485 q 713 626 728 553 q 617 712 699 699 q 457 649 536 725 l 457 733 q 681 793 581 811 q 803 685 782 775 q 736 485 824 594 l 644 485 m 232 199 q 157 72 147 140 q 240 -7 167 3 q 376 65 314 -17 l 376 -24 q 178 -93 271 -108 q 68 10 85 -78 q 139 199 51 99 l 232 199 m 139 199 q 68 381 51 296 q 178 481 85 465 q 381 415 272 497 l 381 329 q 241 399 315 408 q 157 322 167 390 q 232 199 147 254 l 139 199 m 521 993 l 681 993 l 681 840 l 521 840 l 521 993 m 228 993 l 388 993 l 388 840 l 228 840 l 228 993 z "},"ȧ":{"ha":864,"x_min":51,"x_max":824,"o":"m 618 481 q 636 299 656 365 q 549 233 617 233 q 381 300 481 232 l 381 386 q 526 320 468 322 q 606 365 583 318 q 611 481 628 411 l 618 481 m 628 304 q 640 48 660 149 q 551 -74 619 -53 q 376 -24 482 -96 l 376 65 q 525 13 464 -1 q 610 107 586 26 q 621 304 635 188 l 628 304 m 736 0 l 611 0 l 611 485 l 736 485 l 736 0 m 168 513 q 102 695 81 611 q 228 794 124 779 q 457 733 332 810 l 457 650 q 290 713 375 724 q 191 637 206 703 q 261 513 176 571 l 168 513 m 644 485 q 713 626 728 553 q 617 712 699 699 q 457 649 536 725 l 457 733 q 681 793 581 811 q 803 685 782 775 q 736 485 824 594 l 644 485 m 232 199 q 157 72 147 140 q 240 -7 167 3 q 376 65 314 -17 l 376 -24 q 178 -93 271 -108 q 68 10 85 -78 q 139 199 51 99 l 232 199 m 139 199 q 68 381 51 296 q 178 481 85 465 q 381 415 272 497 l 381 329 q 241 399 315 408 q 157 322 167 390 q 232 199 147 254 l 139 199 m 371 993 l 538 993 l 538 839 l 371 839 l 371 993 z "},"ạ":{"ha":864,"x_min":51,"x_max":824,"o":"m 618 481 q 636 299 656 365 q 549 233 617 233 q 381 300 481 232 l 381 386 q 526 320 468 322 q 606 365 583 318 q 611 481 628 411 l 618 481 m 628 304 q 640 48 660 149 q 551 -74 619 -53 q 376 -24 482 -96 l 376 65 q 525 13 464 -1 q 610 107 586 26 q 621 304 635 188 l 628 304 m 736 0 l 611 0 l 611 485 l 736 485 l 736 0 m 168 513 q 102 695 81 611 q 228 794 124 779 q 457 733 332 810 l 457 650 q 290 713 375 724 q 191 637 206 703 q 261 513 176 571 l 168 513 m 644 485 q 713 626 728 553 q 617 712 699 699 q 457 649 536 725 l 457 733 q 681 793 581 811 q 803 685 782 775 q 736 485 824 594 l 644 485 m 232 199 q 157 72 147 140 q 240 -7 167 3 q 376 65 314 -17 l 376 -24 q 178 -93 271 -108 q 68 10 85 -78 q 139 199 51 99 l 232 199 m 139 199 q 68 381 51 296 q 178 481 85 465 q 381 415 272 497 l 381 329 q 241 399 315 408 q 157 322 167 390 q 232 199 147 254 l 139 199 z "},"à":{"ha":864,"x_min":51,"x_max":824,"o":"m 618 481 q 636 299 656 365 q 549 233 617 233 q 381 300 481 232 l 381 386 q 526 320 468 322 q 606 365 583 318 q 611 481 628 411 l 618 481 m 628 304 q 640 48 660 149 q 551 -74 619 -53 q 376 -24 482 -96 l 376 65 q 525 13 464 -1 q 610 107 586 26 q 621 304 635 188 l 628 304 m 736 0 l 611 0 l 611 485 l 736 485 l 736 0 m 168 513 q 102 695 81 611 q 228 794 124 779 q 457 733 332 810 l 457 650 q 290 713 375 724 q 191 637 206 703 q 261 513 176 571 l 168 513 m 644 485 q 713 626 728 553 q 617 712 699 699 q 457 649 536 725 l 457 733 q 681 793 581 811 q 803 685 782 775 q 736 485 824 594 l 644 485 m 232 199 q 157 72 147 140 q 240 -7 167 3 q 376 65 314 -17 l 376 -24 q 178 -93 271 -108 q 68 10 85 -78 q 139 199 51 99 l 232 199 m 139 199 q 68 381 51 296 q 178 481 85 465 q 381 415 272 497 l 381 329 q 241 399 315 408 q 157 322 167 390 q 232 199 147 254 l 139 199 m 603 806 q 598 933 631 878 q 488 990 565 989 q 310 924 410 992 l 310 1015 q 524 1078 436 1086 q 639 994 611 1069 q 624 806 667 919 l 603 806 z "},"ā":{"ha":864,"x_min":51,"x_max":824,"o":"m 618 481 q 636 299 656 365 q 549 233 617 233 q 381 300 481 232 l 381 386 q 526 320 468 322 q 606 365 583 318 q 611 481 628 411 l 618 481 m 628 304 q 640 48 660 149 q 551 -74 619 -53 q 376 -24 482 -96 l 376 65 q 525 13 464 -1 q 610 107 586 26 q 621 304 635 188 l 628 304 m 736 0 l 611 0 l 611 485 l 736 485 l 736 0 m 168 513 q 102 695 81 611 q 228 794 124 779 q 457 733 332 810 l 457 650 q 290 713 375 724 q 191 637 206 703 q 261 513 176 571 l 168 513 m 644 485 q 713 626 728 553 q 617 712 699 699 q 457 649 536 725 l 457 733 q 681 793 581 811 q 803 685 782 775 q 736 485 824 594 l 644 485 m 232 199 q 157 72 147 140 q 240 -7 167 3 q 376 65 314 -17 l 376 -24 q 178 -93 271 -108 q 68 10 85 -78 q 139 199 51 99 l 232 199 m 139 199 q 68 381 51 296 q 178 481 85 465 q 381 415 272 497 l 381 329 q 241 399 315 408 q 157 322 167 390 q 232 199 147 254 l 139 199 m 229 993 l 678 993 l 678 875 l 229 875 l 229 993 z "},"ą":{"ha":864,"x_min":51,"x_max":825,"o":"m 618 481 q 636 299 656 365 q 549 233 617 233 q 381 300 481 232 l 381 386 q 526 320 468 322 q 606 365 583 318 q 611 481 628 411 l 618 481 m 628 304 q 640 48 660 149 q 551 -74 619 -53 q 376 -24 482 -96 l 376 65 q 525 13 464 -1 q 610 107 586 26 q 621 304 635 188 l 628 304 m 736 0 l 611 0 l 611 485 l 736 485 l 736 0 m 168 513 q 102 695 81 611 q 228 794 124 779 q 457 733 332 810 l 457 650 q 290 713 375 724 q 191 637 206 703 q 261 513 176 571 l 168 513 m 644 485 q 713 626 728 553 q 617 712 699 699 q 457 649 536 725 l 457 733 q 681 793 581 811 q 803 685 782 775 q 736 485 824 594 l 644 485 m 232 199 q 157 72 147 140 q 240 -7 167 3 q 376 65 314 -17 l 376 -24 q 178 -93 271 -108 q 68 10 85 -78 q 139 199 51 99 l 232 199 m 139 199 q 68 381 51 296 q 178 481 85 465 q 381 415 272 497 l 381 329 q 241 399 315 408 q 157 322 167 390 q 232 199 147 254 l 139 199 m 646 0 q 621 -134 604 -71 q 697 -201 638 -197 q 825 -129 756 -204 l 825 -222 q 661 -292 732 -301 q 574 -199 590 -282 q 611 0 557 -117 l 646 0 z "},"å":{"ha":864,"x_min":51,"x_max":824,"o":"m 618 481 q 636 299 656 365 q 549 233 617 233 q 381 300 481 232 l 381 386 q 526 320 468 322 q 606 365 583 318 q 611 481 628 411 l 618 481 m 628 304 q 640 48 660 149 q 551 -74 619 -53 q 376 -24 482 -96 l 376 65 q 525 13 464 -1 q 610 107 586 26 q 621 304 635 188 l 628 304 m 736 0 l 611 0 l 611 485 l 736 485 l 736 0 m 168 513 q 102 695 81 611 q 228 794 124 779 q 457 733 332 810 l 457 650 q 290 713 375 724 q 191 637 206 703 q 261 513 176 571 l 168 513 m 644 485 q 713 626 728 553 q 617 712 699 699 q 457 649 536 725 l 457 733 q 681 793 581 811 q 803 685 782 775 q 736 485 824 594 l 644 485 m 232 199 q 157 72 147 140 q 240 -7 167 3 q 376 65 314 -17 l 376 -24 q 178 -93 271 -108 q 68 10 85 -78 q 139 199 51 99 l 232 199 m 139 199 q 68 381 51 296 q 178 481 85 465 q 381 415 272 497 l 381 329 q 241 399 315 408 q 157 322 167 390 q 232 199 147 254 l 139 199 m 299 951 q 243 1084 239 1031 q 307 1144 247 1138 q 454 1100 367 1150 l 454 1046 q 352 1085 394 1092 q 312 1036 310 1079 q 364 951 314 993 l 299 951 m 544 951 q 597 1036 594 993 q 556 1085 599 1079 q 454 1046 514 1092 l 454 1100 q 601 1144 542 1150 q 665 1084 661 1138 q 610 951 669 1031 l 544 951 m 364 951 q 312 867 314 910 q 352 817 310 824 q 454 857 394 811 l 454 803 q 307 759 367 753 q 243 819 247 765 q 299 951 239 872 l 364 951 m 610 951 q 665 819 669 872 q 601 759 661 765 q 454 803 542 753 l 454 857 q 556 817 514 811 q 597 867 599 824 q 544 951 594 910 l 610 951 z "},"ǻ":{"ha":864,"x_min":51,"x_max":824,"o":"m 618 481 q 636 299 656 365 q 549 233 617 233 q 381 300 481 232 l 381 386 q 526 320 468 322 q 606 365 583 318 q 611 481 628 411 l 618 481 m 628 304 q 640 48 660 149 q 551 -74 619 -53 q 376 -24 482 -96 l 376 65 q 525 13 464 -1 q 610 107 586 26 q 621 304 635 188 l 628 304 m 736 0 l 611 0 l 611 485 l 736 485 l 736 0 m 168 513 q 102 695 81 611 q 228 794 124 779 q 457 733 332 810 l 457 650 q 290 713 375 724 q 191 637 206 703 q 261 513 176 571 l 168 513 m 644 485 q 713 626 728 553 q 617 712 699 699 q 457 649 536 725 l 457 733 q 681 793 581 811 q 803 685 782 775 q 736 485 824 594 l 644 485 m 232 199 q 157 72 147 140 q 240 -7 167 3 q 376 65 314 -17 l 376 -24 q 178 -93 271 -108 q 68 10 85 -78 q 139 199 51 99 l 232 199 m 139 199 q 68 381 51 296 q 178 481 85 465 q 381 415 272 497 l 381 329 q 241 399 315 408 q 157 322 167 390 q 232 199 147 254 l 139 199 m 299 951 q 243 1084 239 1031 q 307 1144 247 1138 q 454 1100 367 1150 l 454 1046 q 352 1085 394 1092 q 312 1036 310 1079 q 364 951 314 993 l 299 951 m 544 951 q 597 1036 594 993 q 556 1085 599 1079 q 454 1046 514 1092 l 454 1100 q 601 1144 542 1150 q 665 1084 661 1138 q 610 951 669 1031 l 544 951 m 364 951 q 312 867 314 910 q 352 817 310 824 q 454 857 394 811 l 454 803 q 307 759 367 753 q 243 819 247 765 q 299 951 239 872 l 364 951 m 610 951 q 665 819 669 872 q 601 759 661 765 q 454 803 542 753 l 454 857 q 556 817 514 811 q 597 867 599 824 q 544 951 594 910 l 610 951 m 285 1107 q 269 1296 242 1221 q 385 1379 297 1371 q 599 1317 472 1388 l 599 1225 q 421 1292 499 1293 q 310 1235 343 1290 q 306 1107 278 1179 l 285 1107 z "},"ã":{"ha":864,"x_min":51,"x_max":824,"o":"m 618 481 q 636 299 656 365 q 549 233 617 233 q 381 300 481 232 l 381 386 q 526 320 468 322 q 606 365 583 318 q 611 481 628 411 l 618 481 m 628 304 q 640 48 660 149 q 551 -74 619 -53 q 376 -24 482 -96 l 376 65 q 525 13 464 -1 q 610 107 586 26 q 621 304 635 188 l 628 304 m 736 0 l 611 0 l 611 485 l 736 485 l 736 0 m 168 513 q 102 695 81 611 q 228 794 124 779 q 457 733 332 810 l 457 650 q 290 713 375 724 q 191 637 206 703 q 261 513 176 571 l 168 513 m 644 485 q 713 626 728 553 q 617 712 699 699 q 457 649 536 725 l 457 733 q 681 793 581 811 q 803 685 782 775 q 736 485 824 594 l 644 485 m 232 199 q 157 72 147 140 q 240 -7 167 3 q 376 65 314 -17 l 376 -24 q 178 -93 271 -108 q 68 10 85 -78 q 139 199 51 99 l 232 199 m 139 199 q 68 381 51 296 q 178 481 85 465 q 381 415 272 497 l 381 329 q 241 399 315 408 q 157 322 167 390 q 232 199 147 254 l 139 199 m 669 1035 q 743 893 756 961 q 644 813 731 825 q 454 874 557 801 l 454 947 q 582 885 515 879 q 653 944 649 892 q 576 1035 658 997 l 669 1035 m 239 811 q 165 953 153 885 q 265 1033 178 1021 q 454 972 351 1044 l 454 899 q 326 960 393 967 q 255 901 260 954 q 332 811 250 849 l 239 811 z "},"æ":{"ha":1394,"x_min":54,"x_max":1340,"o":"m 693 301 q 729 56 754 164 q 608 -78 704 -51 q 381 -25 513 -106 l 381 64 q 558 8 475 -11 q 666 113 640 26 q 639 301 692 200 l 693 301 m 739 189 l 614 189 l 614 483 l 739 483 l 739 189 m 615 347 q 561 631 535 513 q 696 781 588 750 q 949 733 804 811 l 949 650 q 760 698 850 725 q 649 569 669 671 q 708 347 629 468 l 615 347 m 1250 257 q 1312 38 1335 135 q 1183 -81 1289 -58 q 943 -25 1076 -103 l 943 58 q 1117 0 1031 -17 q 1222 97 1204 17 q 1157 257 1239 176 l 1250 257 m 710 347 q 649 133 629 232 q 757 9 668 35 q 943 58 846 -17 l 943 -25 q 692 -74 799 -103 q 560 72 585 -44 q 617 347 535 188 l 710 347 m 739 340 l 739 444 l 1174 444 l 1174 340 l 739 340 m 1168 340 q 1229 566 1246 463 q 1127 697 1213 669 q 949 650 1042 725 l 949 733 q 1190 782 1088 813 q 1317 630 1293 751 q 1260 340 1340 508 l 1168 340 m 622 483 q 639 297 660 365 q 550 228 618 229 q 385 296 482 226 l 385 383 q 528 316 471 318 q 610 363 586 314 q 615 483 633 411 l 622 483 m 172 501 q 106 689 85 603 q 232 792 128 775 q 461 732 336 810 l 461 649 q 295 711 379 722 q 196 631 211 700 q 265 501 181 563 l 172 501 m 647 483 q 716 624 731 551 q 621 710 701 697 q 461 649 540 724 l 461 732 q 685 792 585 811 q 806 683 785 774 q 739 483 826 593 l 647 483 m 236 197 q 161 70 151 139 q 244 -8 171 1 q 381 64 318 -18 l 381 -25 q 182 -94 275 -110 q 72 9 89 -79 q 143 197 56 97 l 236 197 m 143 197 q 72 382 54 296 q 183 483 89 468 q 385 414 278 499 l 385 326 q 245 398 319 407 q 160 321 171 389 q 236 197 150 253 l 143 197 z "},"ǽ":{"ha":1394,"x_min":54,"x_max":1340,"o":"m 693 301 q 729 56 754 164 q 608 -78 704 -51 q 381 -25 513 -106 l 381 64 q 558 8 475 -11 q 666 113 640 26 q 639 301 692 200 l 693 301 m 739 189 l 614 189 l 614 483 l 739 483 l 739 189 m 615 347 q 561 631 535 513 q 696 781 588 750 q 949 733 804 811 l 949 650 q 760 698 850 725 q 649 569 669 671 q 708 347 629 468 l 615 347 m 1250 257 q 1312 38 1335 135 q 1183 -81 1289 -58 q 943 -25 1076 -103 l 943 58 q 1117 0 1031 -17 q 1222 97 1204 17 q 1157 257 1239 176 l 1250 257 m 710 347 q 649 133 629 232 q 757 9 668 35 q 943 58 846 -17 l 943 -25 q 692 -74 799 -103 q 560 72 585 -44 q 617 347 535 188 l 710 347 m 739 340 l 739 444 l 1174 444 l 1174 340 l 739 340 m 1168 340 q 1229 566 1246 463 q 1127 697 1213 669 q 949 650 1042 725 l 949 733 q 1190 782 1088 813 q 1317 630 1293 751 q 1260 340 1340 508 l 1168 340 m 622 483 q 639 297 660 365 q 550 228 618 229 q 385 296 482 226 l 385 383 q 528 316 471 318 q 610 363 586 314 q 615 483 633 411 l 622 483 m 172 501 q 106 689 85 603 q 232 792 128 775 q 461 732 336 810 l 461 649 q 295 711 379 722 q 196 631 211 700 q 265 501 181 563 l 172 501 m 647 483 q 716 624 731 551 q 621 710 701 697 q 461 649 540 724 l 461 732 q 685 792 585 811 q 806 683 785 774 q 739 483 826 593 l 647 483 m 236 197 q 161 70 151 139 q 244 -8 171 1 q 381 64 318 -18 l 381 -25 q 182 -94 275 -110 q 72 9 89 -79 q 143 197 56 97 l 236 197 m 143 197 q 72 382 54 296 q 183 483 89 468 q 385 414 278 499 l 385 326 q 245 398 319 407 q 160 321 171 389 q 236 197 150 253 l 143 197 m 532 782 q 517 971 489 896 q 632 1054 544 1046 q 846 992 719 1063 l 846 900 q 668 967 746 968 q 558 910 590 965 q 553 782 525 854 l 532 782 z "},"ǣ":{"ha":1394,"x_min":54,"x_max":1340,"o":"m 693 301 q 729 56 754 164 q 608 -78 704 -51 q 381 -25 513 -106 l 381 64 q 558 8 475 -11 q 666 113 640 26 q 639 301 692 200 l 693 301 m 739 189 l 614 189 l 614 483 l 739 483 l 739 189 m 615 347 q 561 631 535 513 q 696 781 588 750 q 949 733 804 811 l 949 650 q 760 698 850 725 q 649 569 669 671 q 708 347 629 468 l 615 347 m 1250 257 q 1312 38 1335 135 q 1183 -81 1289 -58 q 943 -25 1076 -103 l 943 58 q 1117 0 1031 -17 q 1222 97 1204 17 q 1157 257 1239 176 l 1250 257 m 710 347 q 649 133 629 232 q 757 9 668 35 q 943 58 846 -17 l 943 -25 q 692 -74 799 -103 q 560 72 585 -44 q 617 347 535 188 l 710 347 m 739 340 l 739 444 l 1174 444 l 1174 340 l 739 340 m 1168 340 q 1229 566 1246 463 q 1127 697 1213 669 q 949 650 1042 725 l 949 733 q 1190 782 1088 813 q 1317 630 1293 751 q 1260 340 1340 508 l 1168 340 m 622 483 q 639 297 660 365 q 550 228 618 229 q 385 296 482 226 l 385 383 q 528 316 471 318 q 610 363 586 314 q 615 483 633 411 l 622 483 m 172 501 q 106 689 85 603 q 232 792 128 775 q 461 732 336 810 l 461 649 q 295 711 379 722 q 196 631 211 700 q 265 501 181 563 l 172 501 m 647 483 q 716 624 731 551 q 621 710 701 697 q 461 649 540 724 l 461 732 q 685 792 585 811 q 806 683 785 774 q 739 483 826 593 l 647 483 m 236 197 q 161 70 151 139 q 244 -8 171 1 q 381 64 318 -18 l 381 -25 q 182 -94 275 -110 q 72 9 89 -79 q 143 197 56 97 l 236 197 m 143 197 q 72 382 54 296 q 183 483 89 468 q 385 414 278 499 l 385 326 q 245 398 319 407 q 160 321 171 389 q 236 197 150 253 l 143 197 m 476 969 l 925 969 l 925 851 l 476 851 l 476 969 z "},"b":{"ha":900,"x_min":104,"x_max":843,"o":"m 215 354 q 198 77 182 190 q 278 -67 214 -36 q 443 -24 342 -97 l 443 60 q 306 15 363 -7 q 229 131 250 38 q 228 354 208 224 l 215 354 m 228 354 q 229 578 208 485 q 306 693 250 671 q 443 649 363 715 l 443 732 q 278 775 342 806 q 198 631 214 744 q 215 354 182 518 l 228 354 m 669 354 q 731 137 749 238 q 625 10 713 36 q 443 60 538 -15 l 443 -24 q 690 -72 583 -101 q 819 75 796 -43 q 763 354 843 193 l 669 354 m 763 354 q 819 633 843 515 q 690 781 796 751 q 443 732 583 810 l 443 649 q 625 698 538 724 q 731 572 713 672 q 669 354 749 471 l 763 354 m 229 1000 l 104 1000 l 104 0 l 229 0 l 229 1000 z "},"c":{"ha":894,"x_min":56,"x_max":850,"o":"m 665 454 q 733 613 749 533 q 633 708 717 692 q 467 649 550 724 l 467 732 q 697 789 594 810 q 822 672 800 768 q 758 454 844 575 l 665 454 m 765 269 q 828 43 850 143 q 703 -80 806 -57 q 469 -24 600 -103 l 469 60 q 638 3 554 -15 q 738 103 722 21 q 672 269 754 185 l 765 269 m 231 350 q 171 135 151 235 q 281 11 190 36 q 469 60 371 -14 l 469 -24 q 216 -72 325 -101 q 81 74 107 -43 q 138 350 56 190 l 231 350 m 138 350 q 82 632 57 514 q 215 780 107 750 q 467 732 322 810 l 467 649 q 280 697 369 722 q 171 569 190 671 q 231 350 151 468 l 138 350 z "},"ć":{"ha":894,"x_min":56,"x_max":850,"o":"m 665 454 q 733 613 749 533 q 633 708 717 692 q 467 649 550 724 l 467 732 q 697 789 594 810 q 822 672 800 768 q 758 454 844 575 l 665 454 m 765 269 q 828 43 850 143 q 703 -80 806 -57 q 469 -24 600 -103 l 469 60 q 638 3 554 -15 q 738 103 722 21 q 672 269 754 185 l 765 269 m 231 350 q 171 135 151 235 q 281 11 190 36 q 469 60 371 -14 l 469 -24 q 216 -72 325 -101 q 81 74 107 -43 q 138 350 56 190 l 231 350 m 138 350 q 82 632 57 514 q 215 780 107 750 q 467 732 322 810 l 467 649 q 280 697 369 722 q 171 569 190 671 q 231 350 151 468 l 138 350 m 289 800 q 274 989 246 914 q 389 1072 301 1064 q 603 1010 476 1081 l 603 918 q 425 985 503 986 q 315 928 347 983 q 310 800 282 872 l 289 800 z "},"č":{"ha":894,"x_min":56,"x_max":850,"o":"m 665 454 q 733 613 749 533 q 633 708 717 692 q 467 649 550 724 l 467 732 q 697 789 594 810 q 822 672 800 768 q 758 454 844 575 l 665 454 m 765 269 q 828 43 850 143 q 703 -80 806 -57 q 469 -24 600 -103 l 469 60 q 638 3 554 -15 q 738 103 722 21 q 672 269 754 185 l 765 269 m 231 350 q 171 135 151 235 q 281 11 190 36 q 469 60 371 -14 l 469 -24 q 216 -72 325 -101 q 81 74 107 -43 q 138 350 56 190 l 231 350 m 138 350 q 82 632 57 514 q 215 780 107 750 q 467 732 322 810 l 467 649 q 280 697 369 722 q 171 569 190 671 q 231 350 151 468 l 138 350 z "},"ç":{"ha":894,"x_min":56,"x_max":850,"o":"m 665 454 q 733 613 749 533 q 633 708 717 692 q 467 649 550 724 l 467 732 q 697 789 594 810 q 822 672 800 768 q 758 454 844 575 l 665 454 m 765 269 q 828 43 850 143 q 703 -80 806 -57 q 469 -24 600 -103 l 469 60 q 638 3 554 -15 q 738 103 722 21 q 672 269 754 185 l 765 269 m 231 350 q 171 135 151 235 q 281 11 190 36 q 469 60 371 -14 l 469 -24 q 216 -72 325 -101 q 81 74 107 -43 q 138 350 56 190 l 231 350 m 138 350 q 82 632 57 514 q 215 780 107 750 q 467 732 322 810 l 467 649 q 280 697 369 722 q 171 569 190 671 q 231 350 151 468 l 138 350 m 603 -86 q 647 18 656 -35 q 583 72 638 71 q 469 6 528 74 l 469 89 q 624 156 554 161 q 707 79 694 150 q 656 -86 719 8 l 603 -86 m 656 -86 q 694 -267 721 -190 q 569 -354 667 -344 q 344 -287 471 -364 l 344 -194 q 521 -266 438 -268 q 632 -206 604 -264 q 603 -86 660 -147 l 656 -86 z "},"ĉ":{"ha":894,"x_min":56,"x_max":850,"o":"m 665 454 q 733 613 749 533 q 633 708 717 692 q 467 649 550 724 l 467 732 q 697 789 594 810 q 822 672 800 768 q 758 454 844 575 l 665 454 m 765 269 q 828 43 850 143 q 703 -80 806 -57 q 469 -24 600 -103 l 469 60 q 638 3 554 -15 q 738 103 722 21 q 672 269 754 185 l 765 269 m 231 350 q 171 135 151 235 q 281 11 190 36 q 469 60 371 -14 l 469 -24 q 216 -72 325 -101 q 81 74 107 -43 q 138 350 56 190 l 231 350 m 138 350 q 82 632 57 514 q 215 780 107 750 q 467 732 322 810 l 467 649 q 280 697 369 722 q 171 569 190 671 q 231 350 151 468 l 138 350 m 390 826 l 250 826 l 378 997 l 518 997 l 390 826 m 539 997 l 667 826 l 526 826 l 399 997 l 539 997 z "},"ċ":{"ha":894,"x_min":56,"x_max":850,"o":"m 665 454 q 733 613 749 533 q 633 708 717 692 q 467 649 550 724 l 467 732 q 697 789 594 810 q 822 672 800 768 q 758 454 844 575 l 665 454 m 765 269 q 828 43 850 143 q 703 -80 806 -57 q 469 -24 600 -103 l 469 60 q 638 3 554 -15 q 738 103 722 21 q 672 269 754 185 l 765 269 m 231 350 q 171 135 151 235 q 281 11 190 36 q 469 60 371 -14 l 469 -24 q 216 -72 325 -101 q 81 74 107 -43 q 138 350 56 190 l 231 350 m 138 350 q 82 632 57 514 q 215 780 107 750 q 467 732 322 810 l 467 649 q 280 697 369 722 q 171 569 190 671 q 231 350 151 468 l 138 350 m 375 988 l 542 988 l 542 833 l 375 833 l 375 988 z "},"d":{"ha":900,"x_min":57,"x_max":796,"o":"m 685 354 q 702 77 718 190 q 622 -67 686 -36 q 457 -24 558 -97 l 457 60 q 594 15 538 -7 q 671 131 650 38 q 672 354 692 224 l 685 354 m 672 354 q 671 578 692 485 q 594 693 650 671 q 457 649 538 715 l 457 732 q 622 775 558 806 q 702 631 686 744 q 685 354 718 518 l 672 354 m 231 354 q 169 137 151 238 q 275 10 188 36 q 457 60 363 -15 l 457 -24 q 210 -72 317 -101 q 81 75 104 -43 q 138 354 57 193 l 231 354 m 138 354 q 81 633 57 515 q 210 781 104 751 q 457 732 317 810 l 457 649 q 275 698 363 724 q 169 572 188 672 q 231 354 151 471 l 138 354 m 671 1000 l 796 1000 l 796 0 l 671 0 l 671 1000 z "},"ð":{"ha":921,"x_min":38,"x_max":869,"o":"m 664 1033 l 810 1033 l 506 774 l 361 774 l 664 1033 m 122 301 q 64 541 38 438 q 202 669 90 644 q 458 617 314 693 l 458 533 q 267 588 360 607 q 153 481 174 568 q 214 301 132 394 l 122 301 m 701 321 q 726 686 769 529 q 554 899 682 843 q 264 886 426 954 l 264 969 q 616 984 471 1044 q 810 749 761 924 q 789 321 858 574 l 701 321 m 789 321 q 842 72 869 183 q 702 -72 814 -40 q 449 -24 590 -103 l 449 60 q 640 10 547 -14 q 756 128 733 35 q 701 321 778 222 l 789 321 m 672 322 q 671 501 692 426 q 593 587 650 575 q 458 533 536 599 l 458 617 q 619 670 554 688 q 703 560 685 653 q 685 322 721 467 l 672 322 m 214 301 q 153 116 133 204 q 263 7 172 28 q 449 60 353 -14 l 449 -24 q 198 -75 307 -100 q 64 56 89 -50 q 122 301 39 163 l 214 301 z "},"ď":{"ha":1099,"x_min":46,"x_max":1090,"o":"m 674 354 q 691 77 707 190 q 611 -67 675 -36 q 446 -24 547 -97 l 446 60 q 583 15 526 -7 q 660 131 639 38 q 661 354 681 224 l 674 354 m 661 354 q 660 578 681 485 q 583 693 639 671 q 446 649 526 715 l 446 732 q 611 775 547 806 q 691 631 675 744 q 674 354 707 518 l 661 354 m 219 354 q 158 137 140 238 q 264 10 176 36 q 446 60 351 -15 l 446 -24 q 199 -72 306 -101 q 69 75 93 -43 q 126 354 46 193 l 219 354 m 126 354 q 69 633 46 515 q 199 781 93 751 q 446 732 306 810 l 446 649 q 264 698 351 724 q 158 572 176 672 q 219 354 140 471 l 126 354 m 660 1000 l 785 1000 l 785 0 l 660 0 l 660 1000 z "},"đ":{"ha":897,"x_min":57,"x_max":864,"o":"m 439 928 l 864 928 l 864 831 l 439 831 l 439 928 m 671 1000 l 796 1000 l 796 0 l 671 0 l 671 1000 m 138 354 q 81 633 57 515 q 210 781 104 751 q 457 732 317 810 l 457 649 q 275 698 363 724 q 169 572 188 672 q 231 354 151 471 l 138 354 m 231 354 q 169 137 151 238 q 275 10 188 36 q 457 60 363 -15 l 457 -24 q 210 -72 317 -101 q 81 75 104 -43 q 138 354 57 193 l 231 354 m 672 354 q 671 578 692 485 q 594 693 650 671 q 457 649 538 715 l 457 732 q 622 775 558 806 q 702 631 686 744 q 685 354 718 518 l 672 354 m 685 354 q 702 77 718 190 q 622 -67 686 -36 q 457 -24 558 -97 l 457 60 q 594 15 538 -7 q 671 131 650 38 q 672 354 692 224 l 685 354 z "},"e":{"ha":917,"x_min":56,"x_max":861,"o":"m 138 347 q 83 631 57 513 q 217 781 108 750 q 471 733 325 811 l 471 650 q 281 698 372 725 q 171 569 190 671 q 231 347 151 468 l 138 347 m 775 257 q 838 38 861 135 q 708 -81 814 -58 q 468 -25 601 -103 l 468 58 q 644 0 557 -17 q 748 97 731 17 q 682 257 765 176 l 775 257 m 231 347 q 171 133 151 232 q 280 10 190 35 q 468 58 369 -15 l 468 -25 q 215 -74 324 -103 q 81 72 107 -44 q 138 347 56 188 l 231 347 m 224 340 l 226 444 l 697 444 l 694 340 l 224 340 m 689 340 q 751 566 768 463 q 649 697 733 669 q 471 650 564 725 l 471 733 q 713 782 610 813 q 838 630 815 751 q 782 340 861 508 l 689 340 z "},"é":{"ha":917,"x_min":56,"x_max":861,"o":"m 138 347 q 83 631 57 513 q 217 781 108 750 q 471 733 325 811 l 471 650 q 281 698 372 725 q 171 569 190 671 q 231 347 151 468 l 138 347 m 775 257 q 838 38 861 135 q 708 -81 814 -58 q 468 -25 601 -103 l 468 58 q 644 0 557 -17 q 748 97 731 17 q 682 257 765 176 l 775 257 m 231 347 q 171 133 151 232 q 280 10 190 35 q 468 58 369 -15 l 468 -25 q 215 -74 324 -103 q 81 72 107 -44 q 138 347 56 188 l 231 347 m 224 340 l 226 444 l 697 444 l 694 340 l 224 340 m 689 340 q 751 566 768 463 q 649 697 733 669 q 471 650 564 725 l 471 733 q 713 782 610 813 q 838 630 815 751 q 782 340 861 508 l 689 340 m 297 800 q 282 989 254 914 q 397 1072 310 1064 q 611 1010 485 1081 l 611 918 q 433 985 511 986 q 323 928 356 983 q 318 800 290 872 l 297 800 z "},"ĕ":{"ha":917,"x_min":56,"x_max":861,"o":"m 138 347 q 83 631 57 513 q 217 781 108 750 q 471 733 325 811 l 471 650 q 281 698 372 725 q 171 569 190 671 q 231 347 151 468 l 138 347 m 775 257 q 838 38 861 135 q 708 -81 814 -58 q 468 -25 601 -103 l 468 58 q 644 0 557 -17 q 748 97 731 17 q 682 257 765 176 l 775 257 m 231 347 q 171 133 151 232 q 280 10 190 35 q 468 58 369 -15 l 468 -25 q 215 -74 324 -103 q 81 72 107 -44 q 138 347 56 188 l 231 347 m 224 340 l 226 444 l 697 444 l 694 340 l 224 340 m 689 340 q 751 566 768 463 q 649 697 733 669 q 471 650 564 725 l 471 733 q 713 782 610 813 q 838 630 815 751 q 782 340 861 508 l 689 340 m 351 997 q 274 888 271 949 q 342 816 278 826 q 467 875 407 806 l 467 801 q 281 744 365 729 q 185 835 197 758 q 258 997 174 911 l 351 997 m 675 999 q 748 835 760 913 q 652 744 736 758 q 467 801 568 729 l 467 875 q 591 816 526 806 q 659 888 656 826 q 582 999 663 949 l 675 999 z "},"ě":{"ha":917,"x_min":56,"x_max":861,"o":"m 138 347 q 83 631 57 513 q 217 781 108 750 q 471 733 325 811 l 471 650 q 281 698 372 725 q 171 569 190 671 q 231 347 151 468 l 138 347 m 775 257 q 838 38 861 135 q 708 -81 814 -58 q 468 -25 601 -103 l 468 58 q 644 0 557 -17 q 748 97 731 17 q 682 257 765 176 l 775 257 m 231 347 q 171 133 151 232 q 280 10 190 35 q 468 58 369 -15 l 468 -25 q 215 -74 324 -103 q 81 72 107 -44 q 138 347 56 188 l 231 347 m 224 340 l 226 444 l 697 444 l 694 340 l 224 340 m 689 340 q 751 566 768 463 q 649 697 733 669 q 471 650 564 725 l 471 733 q 713 782 610 813 q 838 630 815 751 q 782 340 861 508 l 689 340 z "},"ê":{"ha":917,"x_min":56,"x_max":861,"o":"m 138 347 q 83 631 57 513 q 217 781 108 750 q 471 733 325 811 l 471 650 q 281 698 372 725 q 171 569 190 671 q 231 347 151 468 l 138 347 m 775 257 q 838 38 861 135 q 708 -81 814 -58 q 468 -25 601 -103 l 468 58 q 644 0 557 -17 q 748 97 731 17 q 682 257 765 176 l 775 257 m 231 347 q 171 133 151 232 q 280 10 190 35 q 468 58 369 -15 l 468 -25 q 215 -74 324 -103 q 81 72 107 -44 q 138 347 56 188 l 231 347 m 224 340 l 226 444 l 697 444 l 694 340 l 224 340 m 689 340 q 751 566 768 463 q 649 697 733 669 q 471 650 564 725 l 471 733 q 713 782 610 813 q 838 630 815 751 q 782 340 861 508 l 689 340 m 399 826 l 258 826 l 386 997 l 526 997 l 399 826 m 547 997 l 675 826 l 535 826 l 407 997 l 547 997 z "},"ë":{"ha":917,"x_min":56,"x_max":861,"o":"m 138 347 q 83 631 57 513 q 217 781 108 750 q 471 733 325 811 l 471 650 q 281 698 372 725 q 171 569 190 671 q 231 347 151 468 l 138 347 m 775 257 q 838 38 861 135 q 708 -81 814 -58 q 468 -25 601 -103 l 468 58 q 644 0 557 -17 q 748 97 731 17 q 682 257 765 176 l 775 257 m 231 347 q 171 133 151 232 q 280 10 190 35 q 468 58 369 -15 l 468 -25 q 215 -74 324 -103 q 81 72 107 -44 q 138 347 56 188 l 231 347 m 224 340 l 226 444 l 697 444 l 694 340 l 224 340 m 689 340 q 751 566 768 463 q 649 697 733 669 q 471 650 564 725 l 471 733 q 713 782 610 813 q 838 630 815 751 q 782 340 861 508 l 689 340 m 533 988 l 693 988 l 693 835 l 533 835 l 533 988 m 240 988 l 400 988 l 400 835 l 240 835 l 240 988 z "},"ė":{"ha":917,"x_min":56,"x_max":861,"o":"m 138 347 q 83 631 57 513 q 217 781 108 750 q 471 733 325 811 l 471 650 q 281 698 372 725 q 171 569 190 671 q 231 347 151 468 l 138 347 m 775 257 q 838 38 861 135 q 708 -81 814 -58 q 468 -25 601 -103 l 468 58 q 644 0 557 -17 q 748 97 731 17 q 682 257 765 176 l 775 257 m 231 347 q 171 133 151 232 q 280 10 190 35 q 468 58 369 -15 l 468 -25 q 215 -74 324 -103 q 81 72 107 -44 q 138 347 56 188 l 231 347 m 224 340 l 226 444 l 697 444 l 694 340 l 224 340 m 689 340 q 751 566 768 463 q 649 697 733 669 q 471 650 564 725 l 471 733 q 713 782 610 813 q 838 630 815 751 q 782 340 861 508 l 689 340 m 383 988 l 550 988 l 550 833 l 383 833 l 383 988 z "},"ẹ":{"ha":917,"x_min":56,"x_max":861,"o":"m 138 347 q 83 631 57 513 q 217 781 108 750 q 471 733 325 811 l 471 650 q 281 698 372 725 q 171 569 190 671 q 231 347 151 468 l 138 347 m 775 257 q 838 38 861 135 q 708 -81 814 -58 q 468 -25 601 -103 l 468 58 q 644 0 557 -17 q 748 97 731 17 q 682 257 765 176 l 775 257 m 231 347 q 171 133 151 232 q 280 10 190 35 q 468 58 369 -15 l 468 -25 q 215 -74 324 -103 q 81 72 107 -44 q 138 347 56 188 l 231 347 m 224 340 l 226 444 l 697 444 l 694 340 l 224 340 m 689 340 q 751 566 768 463 q 649 697 733 669 q 471 650 564 725 l 471 733 q 713 782 610 813 q 838 630 815 751 q 782 340 861 508 l 689 340 z "},"è":{"ha":917,"x_min":56,"x_max":861,"o":"m 138 347 q 83 631 57 513 q 217 781 108 750 q 471 733 325 811 l 471 650 q 281 698 372 725 q 171 569 190 671 q 231 347 151 468 l 138 347 m 775 257 q 838 38 861 135 q 708 -81 814 -58 q 468 -25 601 -103 l 468 58 q 644 0 557 -17 q 748 97 731 17 q 682 257 765 176 l 775 257 m 231 347 q 171 133 151 232 q 280 10 190 35 q 468 58 369 -15 l 468 -25 q 215 -74 324 -103 q 81 72 107 -44 q 138 347 56 188 l 231 347 m 224 340 l 226 444 l 697 444 l 694 340 l 224 340 m 689 340 q 751 566 768 463 q 649 697 733 669 q 471 650 564 725 l 471 733 q 713 782 610 813 q 838 630 815 751 q 782 340 861 508 l 689 340 m 615 800 q 610 928 643 872 q 500 985 578 983 q 322 918 422 986 l 322 1010 q 536 1072 449 1081 q 651 989 624 1064 q 636 800 679 914 l 615 800 z "},"ē":{"ha":917,"x_min":56,"x_max":861,"o":"m 138 347 q 83 631 57 513 q 217 781 108 750 q 471 733 325 811 l 471 650 q 281 698 372 725 q 171 569 190 671 q 231 347 151 468 l 138 347 m 775 257 q 838 38 861 135 q 708 -81 814 -58 q 468 -25 601 -103 l 468 58 q 644 0 557 -17 q 748 97 731 17 q 682 257 765 176 l 775 257 m 231 347 q 171 133 151 232 q 280 10 190 35 q 468 58 369 -15 l 468 -25 q 215 -74 324 -103 q 81 72 107 -44 q 138 347 56 188 l 231 347 m 224 340 l 226 444 l 697 444 l 694 340 l 224 340 m 689 340 q 751 566 768 463 q 649 697 733 669 q 471 650 564 725 l 471 733 q 713 782 610 813 q 838 630 815 751 q 782 340 861 508 l 689 340 m 242 988 l 690 988 l 690 869 l 242 869 l 242 988 z "},"ę":{"ha":917,"x_min":56,"x_max":861,"o":"m 138 347 q 83 631 57 513 q 217 781 108 750 q 471 733 325 811 l 471 650 q 281 698 372 725 q 171 569 190 671 q 231 347 151 468 l 138 347 m 775 257 q 838 38 861 135 q 708 -81 814 -58 q 468 -25 601 -103 l 468 58 q 644 0 557 -17 q 748 97 731 17 q 682 257 765 176 l 775 257 m 231 347 q 171 133 151 232 q 280 10 190 35 q 468 58 369 -15 l 468 -25 q 215 -74 324 -103 q 81 72 107 -44 q 138 347 56 188 l 231 347 m 224 340 l 226 444 l 697 444 l 694 340 l 224 340 m 689 340 q 751 566 768 463 q 649 697 733 669 q 471 650 564 725 l 471 733 q 713 782 610 813 q 838 630 815 751 q 782 340 861 508 l 689 340 m 490 -15 q 465 -149 449 -86 q 541 -216 482 -212 q 669 -144 600 -219 l 669 -237 q 506 -307 576 -317 q 418 -215 435 -297 q 456 -15 401 -132 l 490 -15 z "},"ẽ":{"ha":917,"x_min":56,"x_max":861,"o":"m 138 347 q 83 631 57 513 q 217 781 108 750 q 471 733 325 811 l 471 650 q 281 698 372 725 q 171 569 190 671 q 231 347 151 468 l 138 347 m 775 257 q 838 38 861 135 q 708 -81 814 -58 q 468 -25 601 -103 l 468 58 q 644 0 557 -17 q 748 97 731 17 q 682 257 765 176 l 775 257 m 231 347 q 171 133 151 232 q 280 10 190 35 q 468 58 369 -15 l 468 -25 q 215 -74 324 -103 q 81 72 107 -44 q 138 347 56 188 l 231 347 m 224 340 l 226 444 l 697 444 l 694 340 l 224 340 m 689 340 q 751 566 768 463 q 649 697 733 669 q 471 650 564 725 l 471 733 q 713 782 610 813 q 838 630 815 751 q 782 340 861 508 l 689 340 m 682 1029 q 756 888 768 956 q 656 808 743 819 q 467 868 569 796 l 467 942 q 594 880 528 874 q 666 939 661 886 q 589 1029 671 992 l 682 1029 m 251 806 q 178 947 165 879 q 277 1027 190 1015 q 467 967 364 1039 l 467 893 q 339 955 406 961 q 267 896 272 949 q 344 806 263 843 l 251 806 z "},"f":{"ha":506,"x_min":31,"x_max":472,"o":"m 31 708 l 443 708 l 443 604 l 31 604 l 31 708 m 163 708 q 99 953 72 844 q 235 1083 125 1063 q 472 1010 344 1104 l 472 908 q 298 985 389 1000 q 187 883 207 971 q 256 708 167 796 l 163 708 m 288 0 l 163 0 l 163 604 l 288 604 l 288 0 z "},"g":{"ha":913,"x_min":21,"x_max":875,"o":"m 714 490 q 781 294 800 383 q 661 188 761 206 q 439 249 561 169 l 439 331 q 597 268 517 256 q 691 352 678 281 q 621 490 704 424 l 714 490 m 621 490 q 691 628 704 557 q 597 713 678 700 q 439 650 517 725 l 439 732 q 661 793 561 811 q 781 686 761 775 q 714 490 800 597 l 621 490 m 644 758 q 611 926 592 860 q 706 994 631 993 q 874 921 781 994 l 874 828 q 740 902 801 899 q 658 858 678 906 q 676 758 638 811 l 644 758 m 354 133 l 546 133 l 546 22 l 354 22 l 354 133 m 353 -165 l 546 -165 l 546 -278 l 353 -278 l 353 -165 m 203 -100 q 128 -200 118 -142 q 212 -265 138 -258 q 353 -194 286 -271 l 353 -278 q 150 -344 244 -357 q 38 -256 56 -332 q 111 -100 21 -181 l 203 -100 m 788 -72 q 858 -247 875 -164 q 748 -344 842 -329 q 546 -278 654 -358 l 546 -194 q 686 -262 613 -271 q 769 -190 760 -254 q 694 -72 778 -125 l 788 -72 m 694 -72 q 769 44 778 -19 q 686 117 760 108 q 546 50 613 126 l 546 133 q 749 198 656 213 q 858 101 842 183 q 788 -72 875 19 l 694 -72 m 111 -100 q 49 25 39 -31 q 143 96 58 81 q 361 72 228 111 l 361 38 q 208 55 272 71 q 141 -8 144 39 q 203 -100 138 -54 l 111 -100 m 242 147 q 203 73 194 113 q 258 38 211 33 q 354 106 306 42 l 354 24 q 199 -47 271 -49 q 115 14 126 -44 q 172 147 103 72 l 242 147 m 172 147 q 131 267 121 221 q 214 322 140 313 q 418 297 288 331 l 418 261 q 282 278 332 288 q 222 234 232 269 q 242 147 213 199 l 172 147 m 258 490 q 188 352 174 424 q 281 268 201 281 q 439 331 361 256 l 439 249 q 217 188 317 169 q 98 294 118 206 q 165 490 78 383 l 258 490 m 165 490 q 98 686 78 597 q 217 793 118 775 q 439 732 317 811 l 439 650 q 281 713 361 725 q 188 628 201 700 q 258 490 174 557 l 165 490 z "},"ğ":{"ha":913,"x_min":21,"x_max":875,"o":"m 714 490 q 781 294 800 383 q 661 188 761 206 q 439 249 561 169 l 439 331 q 597 268 517 256 q 691 352 678 281 q 621 490 704 424 l 714 490 m 621 490 q 691 628 704 557 q 597 713 678 700 q 439 650 517 725 l 439 732 q 661 793 561 811 q 781 686 761 775 q 714 490 800 597 l 621 490 m 644 758 q 611 926 592 860 q 706 994 631 993 q 874 921 781 994 l 874 828 q 740 902 801 899 q 658 858 678 906 q 676 758 638 811 l 644 758 m 354 133 l 546 133 l 546 22 l 354 22 l 354 133 m 353 -165 l 546 -165 l 546 -278 l 353 -278 l 353 -165 m 203 -100 q 128 -200 118 -142 q 212 -265 138 -258 q 353 -194 286 -271 l 353 -278 q 150 -344 244 -357 q 38 -256 56 -332 q 111 -100 21 -181 l 203 -100 m 788 -72 q 858 -247 875 -164 q 748 -344 842 -329 q 546 -278 654 -358 l 546 -194 q 686 -262 613 -271 q 769 -190 760 -254 q 694 -72 778 -125 l 788 -72 m 694 -72 q 769 44 778 -19 q 686 117 760 108 q 546 50 613 126 l 546 133 q 749 198 656 213 q 858 101 842 183 q 788 -72 875 19 l 694 -72 m 111 -100 q 49 25 39 -31 q 143 96 58 81 q 361 72 228 111 l 361 38 q 208 55 272 71 q 141 -8 144 39 q 203 -100 138 -54 l 111 -100 m 242 147 q 203 73 194 113 q 258 38 211 33 q 354 106 306 42 l 354 24 q 199 -47 271 -49 q 115 14 126 -44 q 172 147 103 72 l 242 147 m 172 147 q 131 267 121 221 q 214 322 140 313 q 418 297 288 331 l 418 261 q 282 278 332 288 q 222 234 232 269 q 242 147 213 199 l 172 147 m 258 490 q 188 352 174 424 q 281 268 201 281 q 439 331 361 256 l 439 249 q 217 188 317 169 q 98 294 118 206 q 165 490 78 383 l 258 490 m 165 490 q 98 686 78 597 q 217 793 118 775 q 439 732 317 811 l 439 650 q 281 713 361 725 q 188 628 201 700 q 258 490 174 557 l 165 490 m 329 997 q 252 888 249 949 q 320 816 256 826 q 444 875 385 806 l 444 801 q 259 744 343 729 q 163 835 175 758 q 236 997 151 911 l 329 997 m 653 999 q 726 835 738 913 q 630 744 714 758 q 444 801 546 729 l 444 875 q 569 816 504 806 q 637 888 633 826 q 560 999 640 949 l 653 999 z "},"ĝ":{"ha":913,"x_min":21,"x_max":875,"o":"m 714 490 q 781 294 800 383 q 661 188 761 206 q 439 249 561 169 l 439 331 q 597 268 517 256 q 691 352 678 281 q 621 490 704 424 l 714 490 m 621 490 q 691 628 704 557 q 597 713 678 700 q 439 650 517 725 l 439 732 q 661 793 561 811 q 781 686 761 775 q 714 490 800 597 l 621 490 m 644 758 q 611 926 592 860 q 706 994 631 993 q 874 921 781 994 l 874 828 q 740 902 801 899 q 658 858 678 906 q 676 758 638 811 l 644 758 m 354 133 l 546 133 l 546 22 l 354 22 l 354 133 m 353 -165 l 546 -165 l 546 -278 l 353 -278 l 353 -165 m 203 -100 q 128 -200 118 -142 q 212 -265 138 -258 q 353 -194 286 -271 l 353 -278 q 150 -344 244 -357 q 38 -256 56 -332 q 111 -100 21 -181 l 203 -100 m 788 -72 q 858 -247 875 -164 q 748 -344 842 -329 q 546 -278 654 -358 l 546 -194 q 686 -262 613 -271 q 769 -190 760 -254 q 694 -72 778 -125 l 788 -72 m 694 -72 q 769 44 778 -19 q 686 117 760 108 q 546 50 613 126 l 546 133 q 749 198 656 213 q 858 101 842 183 q 788 -72 875 19 l 694 -72 m 111 -100 q 49 25 39 -31 q 143 96 58 81 q 361 72 228 111 l 361 38 q 208 55 272 71 q 141 -8 144 39 q 203 -100 138 -54 l 111 -100 m 242 147 q 203 73 194 113 q 258 38 211 33 q 354 106 306 42 l 354 24 q 199 -47 271 -49 q 115 14 126 -44 q 172 147 103 72 l 242 147 m 172 147 q 131 267 121 221 q 214 322 140 313 q 418 297 288 331 l 418 261 q 282 278 332 288 q 222 234 232 269 q 242 147 213 199 l 172 147 m 258 490 q 188 352 174 424 q 281 268 201 281 q 439 331 361 256 l 439 249 q 217 188 317 169 q 98 294 118 206 q 165 490 78 383 l 258 490 m 165 490 q 98 686 78 597 q 217 793 118 775 q 439 732 317 811 l 439 650 q 281 713 361 725 q 188 628 201 700 q 258 490 174 557 l 165 490 m 376 826 l 236 826 l 364 997 l 504 997 l 376 826 m 525 997 l 653 826 l 513 826 l 385 997 l 525 997 z "},"ģ":{"ha":913,"x_min":21,"x_max":875,"o":"m 714 490 q 781 294 800 383 q 661 188 761 206 q 439 249 561 169 l 439 331 q 597 268 517 256 q 691 352 678 281 q 621 490 704 424 l 714 490 m 621 490 q 691 628 704 557 q 597 713 678 700 q 439 650 517 725 l 439 732 q 661 793 561 811 q 781 686 761 775 q 714 490 800 597 l 621 490 m 644 758 q 611 926 592 860 q 706 994 631 993 q 874 921 781 994 l 874 828 q 740 902 801 899 q 658 858 678 906 q 676 758 638 811 l 644 758 m 354 133 l 546 133 l 546 22 l 354 22 l 354 133 m 353 -165 l 546 -165 l 546 -278 l 353 -278 l 353 -165 m 203 -100 q 128 -200 118 -142 q 212 -265 138 -258 q 353 -194 286 -271 l 353 -278 q 150 -344 244 -357 q 38 -256 56 -332 q 111 -100 21 -181 l 203 -100 m 788 -72 q 858 -247 875 -164 q 748 -344 842 -329 q 546 -278 654 -358 l 546 -194 q 686 -262 613 -271 q 769 -190 760 -254 q 694 -72 778 -125 l 788 -72 m 694 -72 q 769 44 778 -19 q 686 117 760 108 q 546 50 613 126 l 546 133 q 749 198 656 213 q 858 101 842 183 q 788 -72 875 19 l 694 -72 m 111 -100 q 49 25 39 -31 q 143 96 58 81 q 361 72 228 111 l 361 38 q 208 55 272 71 q 141 -8 144 39 q 203 -100 138 -54 l 111 -100 m 242 147 q 203 73 194 113 q 258 38 211 33 q 354 106 306 42 l 354 24 q 199 -47 271 -49 q 115 14 126 -44 q 172 147 103 72 l 242 147 m 172 147 q 131 267 121 221 q 214 322 140 313 q 418 297 288 331 l 418 261 q 282 278 332 288 q 222 234 232 269 q 242 147 213 199 l 172 147 m 258 490 q 188 352 174 424 q 281 268 201 281 q 439 331 361 256 l 439 249 q 217 188 317 169 q 98 294 118 206 q 165 490 78 383 l 258 490 m 165 490 q 98 686 78 597 q 217 793 118 775 q 439 732 317 811 l 439 650 q 281 713 361 725 q 188 628 201 700 q 258 490 174 557 l 165 490 m 528 822 l 361 822 l 361 963 l 528 963 l 528 822 m 361 963 q 314 1122 303 1056 q 392 1195 325 1189 q 551 1138 460 1201 l 551 1064 q 433 1120 486 1124 q 373 1066 381 1117 q 413 963 365 1015 l 361 963 z "},"ġ":{"ha":913,"x_min":21,"x_max":875,"o":"m 714 490 q 781 294 800 383 q 661 188 761 206 q 439 249 561 169 l 439 331 q 597 268 517 256 q 691 352 678 281 q 621 490 704 424 l 714 490 m 621 490 q 691 628 704 557 q 597 713 678 700 q 439 650 517 725 l 439 732 q 661 793 561 811 q 781 686 761 775 q 714 490 800 597 l 621 490 m 644 758 q 611 926 592 860 q 706 994 631 993 q 874 921 781 994 l 874 828 q 740 902 801 899 q 658 858 678 906 q 676 758 638 811 l 644 758 m 354 133 l 546 133 l 546 22 l 354 22 l 354 133 m 353 -165 l 546 -165 l 546 -278 l 353 -278 l 353 -165 m 203 -100 q 128 -200 118 -142 q 212 -265 138 -258 q 353 -194 286 -271 l 353 -278 q 150 -344 244 -357 q 38 -256 56 -332 q 111 -100 21 -181 l 203 -100 m 788 -72 q 858 -247 875 -164 q 748 -344 842 -329 q 546 -278 654 -358 l 546 -194 q 686 -262 613 -271 q 769 -190 760 -254 q 694 -72 778 -125 l 788 -72 m 694 -72 q 769 44 778 -19 q 686 117 760 108 q 546 50 613 126 l 546 133 q 749 198 656 213 q 858 101 842 183 q 788 -72 875 19 l 694 -72 m 111 -100 q 49 25 39 -31 q 143 96 58 81 q 361 72 228 111 l 361 38 q 208 55 272 71 q 141 -8 144 39 q 203 -100 138 -54 l 111 -100 m 242 147 q 203 73 194 113 q 258 38 211 33 q 354 106 306 42 l 354 24 q 199 -47 271 -49 q 115 14 126 -44 q 172 147 103 72 l 242 147 m 172 147 q 131 267 121 221 q 214 322 140 313 q 418 297 288 331 l 418 261 q 282 278 332 288 q 222 234 232 269 q 242 147 213 199 l 172 147 m 258 490 q 188 352 174 424 q 281 268 201 281 q 439 331 361 256 l 439 249 q 217 188 317 169 q 98 294 118 206 q 165 490 78 383 l 258 490 m 165 490 q 98 686 78 597 q 217 793 118 775 q 439 732 317 811 l 439 650 q 281 713 361 725 q 188 628 201 700 q 258 490 174 557 l 165 490 m 361 988 l 528 988 l 528 833 l 361 833 l 361 988 z "},"h":{"ha":811,"x_min":104,"x_max":772,"o":"m 215 333 q 196 624 182 503 q 270 778 210 744 q 431 732 331 811 l 431 644 q 299 691 353 715 q 227 568 246 667 q 228 333 208 469 l 215 333 m 686 0 l 561 0 l 561 476 l 686 476 l 686 0 m 104 1000 l 229 1000 l 229 0 l 104 0 l 104 1000 m 593 476 q 666 622 678 546 q 577 712 654 699 q 431 644 500 725 l 431 732 q 639 798 543 817 q 753 684 735 779 q 686 476 772 589 l 593 476 z "},"ħ":{"ha":826,"x_min":28,"x_max":793,"o":"m 28 928 l 453 928 l 453 831 l 28 831 l 28 928 m 613 476 q 685 622 697 546 q 597 712 674 699 q 450 644 521 725 l 450 732 q 658 798 563 817 q 774 684 754 779 q 706 476 793 589 l 613 476 m 124 1000 l 249 1000 l 249 0 l 124 0 l 124 1000 m 706 0 l 581 0 l 581 476 l 706 476 l 706 0 m 235 333 q 215 624 201 503 q 290 778 229 744 q 450 732 350 811 l 450 644 q 319 691 372 715 q 247 568 265 667 q 247 333 228 469 l 235 333 z "},"ĥ":{"ha":811,"x_min":104,"x_max":772,"o":"m 215 333 q 196 624 182 503 q 270 778 210 744 q 431 732 331 811 l 431 644 q 299 691 353 715 q 227 568 246 667 q 228 333 208 469 l 215 333 m 686 0 l 561 0 l 561 476 l 686 476 l 686 0 m 104 1000 l 229 1000 l 229 0 l 104 0 l 104 1000 m 593 476 q 666 622 678 546 q 577 712 654 699 q 431 644 500 725 l 431 732 q 639 798 543 817 q 753 684 735 779 q 686 476 772 589 l 593 476 m 349 1089 l 208 1089 l 336 1260 l 476 1260 l 349 1089 m 497 1260 l 625 1089 l 485 1089 l 357 1260 l 497 1260 z "},"i":{"ha":336,"x_min":85,"x_max":251,"o":"m 106 708 l 231 708 l 231 0 l 106 0 l 106 708 m 85 988 l 251 988 l 251 833 l 85 833 l 85 988 z "},"ı":{"ha":336,"x_min":106,"x_max":231,"o":"m 106 708 l 231 708 l 231 0 l 106 0 l 106 708 z "},"í":{"ha":336,"x_min":-44,"x_max":313,"o":"m 106 708 l 231 708 l 231 0 l 106 0 l 106 708 m -1 800 q -17 989 -44 914 q 99 1072 11 1064 q 313 1010 186 1081 l 313 918 q 135 985 213 986 q 24 928 57 983 q 19 800 -8 872 l -1 800 z "},"ĭ":{"ha":336,"x_min":-124,"x_max":461,"o":"m 106 708 l 231 708 l 231 0 l 106 0 l 106 708 m 53 997 q -24 888 -28 949 q 44 816 -21 826 q 168 875 108 806 l 168 801 q -17 744 67 729 q -113 835 -101 758 q -40 997 -125 911 l 53 997 m 376 999 q 449 835 461 913 q 353 744 438 758 q 168 801 269 729 l 168 875 q 292 816 228 806 q 360 888 357 826 q 283 999 364 949 l 376 999 z "},"î":{"ha":336,"x_min":-40,"x_max":376,"o":"m 106 708 l 231 708 l 231 0 l 106 0 l 106 708 m 100 826 l -40 826 l 88 997 l 228 997 l 100 826 m 249 997 l 376 826 l 236 826 l 108 997 l 249 997 z "},"ï":{"ha":336,"x_min":-58,"x_max":394,"o":"m 106 708 l 231 708 l 231 0 l 106 0 l 106 708 m 235 988 l 394 988 l 394 835 l 235 835 l 235 988 m -58 988 l 101 988 l 101 835 l -58 835 l -58 988 z "},"ị":{"ha":336,"x_min":85,"x_max":251,"o":"m 106 708 l 231 708 l 231 0 l 106 0 l 106 708 m 85 988 l 251 988 l 251 833 l 85 833 l 85 988 z "},"ì":{"ha":336,"x_min":24,"x_max":381,"o":"m 106 708 l 231 708 l 231 0 l 106 0 l 106 708 m 317 800 q 312 928 344 872 q 201 985 279 983 q 24 918 124 986 l 24 1010 q 238 1072 150 1081 q 353 989 325 1064 q 338 800 381 914 l 317 800 z "},"ĳ":{"ha":735,"x_min":85,"x_max":704,"o":"m 106 708 l 231 708 l 231 0 l 106 0 l 106 708 m 85 988 l 251 988 l 251 833 l 85 833 l 85 988 z "},"ī":{"ha":336,"x_min":-57,"x_max":392,"o":"m 106 708 l 231 708 l 231 0 l 106 0 l 106 708 m -57 988 l 392 988 l 392 869 l -57 869 l -57 988 z "},"į":{"ha":336,"x_min":85,"x_max":399,"o":"m 106 708 l 231 708 l 231 0 l 106 0 l 106 708 m 85 988 l 251 988 l 251 833 l 85 833 l 85 988 m 219 0 q 194 -134 178 -71 q 270 -201 211 -197 q 399 -129 329 -204 l 399 -222 q 235 -292 306 -301 q 147 -199 164 -282 q 185 0 131 -117 l 219 0 z "},"ĩ":{"ha":336,"x_min":-133,"x_max":469,"o":"m 106 708 l 231 708 l 231 0 l 106 0 l 106 708 m 383 1029 q 457 888 469 956 q 358 808 444 819 q 168 868 271 796 l 168 942 q 296 880 229 874 q 367 939 363 886 q 290 1029 372 992 l 383 1029 m -47 806 q -121 947 -133 879 q -22 1027 -108 1015 q 168 967 65 1039 l 168 893 q 40 955 107 961 q -31 896 -26 949 q 46 806 -36 843 l -47 806 z "},"j":{"ha":425,"x_min":15,"x_max":396,"o":"m 307 -25 q 372 -245 396 -147 q 244 -361 349 -343 q 15 -293 140 -379 l 15 -200 q 181 -272 96 -283 q 283 -181 267 -260 q 214 -25 300 -101 l 307 -25 m 182 708 l 307 708 l 307 -25 l 182 -25 l 182 708 m 161 958 l 328 958 l 328 804 l 161 804 l 161 958 z "},"ȷ":{"ha":425,"x_min":15,"x_max":396,"o":"m 307 -25 q 372 -245 396 -147 q 244 -361 349 -343 q 15 -293 140 -379 l 15 -200 q 181 -272 96 -283 q 283 -181 267 -260 q 214 -25 300 -101 l 307 -25 m 182 708 l 307 708 l 307 -25 l 182 -25 l 182 708 z "},"ĵ":{"ha":425,"x_min":15,"x_max":453,"o":"m 307 -25 q 372 -245 396 -147 q 244 -361 349 -343 q 15 -293 140 -379 l 15 -200 q 181 -272 96 -283 q 283 -181 267 -260 q 214 -25 300 -101 l 307 -25 m 182 708 l 307 708 l 307 -25 l 182 -25 l 182 708 m 176 797 l 36 797 l 164 968 l 304 968 l 176 797 m 325 968 l 453 797 l 313 797 l 185 968 l 325 968 z "},"k":{"ha":779,"x_min":106,"x_max":767,"o":"m 224 206 q 204 413 189 335 q 278 497 219 490 q 419 435 336 504 l 419 347 q 299 410 347 413 q 233 349 250 407 q 231 206 215 292 l 224 206 m 446 440 l 767 0 l 614 0 l 294 440 l 446 440 m 574 708 l 740 708 l 446 440 l 281 440 l 574 708 m 106 1000 l 231 1000 l 231 0 l 106 0 l 106 1000 z "},"ķ":{"ha":779,"x_min":106,"x_max":767,"o":"m 224 206 q 204 413 189 335 q 278 497 219 490 q 419 435 336 504 l 419 347 q 299 410 347 413 q 233 349 250 407 q 231 206 215 292 l 224 206 m 446 440 l 767 0 l 614 0 l 294 440 l 446 440 m 574 708 l 740 708 l 446 440 l 281 440 l 574 708 m 106 1000 l 231 1000 l 231 0 l 106 0 l 106 1000 m 300 -78 l 467 -78 l 467 -218 l 300 -218 l 300 -78 m 467 -218 q 514 -378 525 -311 q 435 -451 503 -444 q 276 -393 368 -457 l 276 -319 q 394 -376 342 -379 q 455 -322 447 -372 q 415 -218 463 -271 l 467 -218 z "},"l":{"ha":338,"x_min":106,"x_max":231,"o":"m 106 1000 l 231 1000 l 231 0 l 106 0 l 106 1000 z "},"ĺ":{"ha":338,"x_min":-44,"x_max":313,"o":"m 106 1000 l 231 1000 l 231 0 l 106 0 l 106 1000 m -1 1063 q -17 1251 -44 1176 q 99 1335 11 1326 q 313 1272 186 1343 l 313 1181 q 135 1247 213 1249 q 24 1190 57 1246 q 19 1063 -8 1135 l -1 1063 z "},"ľ":{"ha":338,"x_min":-40,"x_max":376,"o":"m 106 1000 l 231 1000 l 231 0 l 106 0 l 106 1000 z "},"ļ":{"ha":338,"x_min":61,"x_max":311,"o":"m 106 1000 l 231 1000 l 231 0 l 106 0 l 106 1000 m 85 -78 l 251 -78 l 251 -218 l 85 -218 l 85 -78 m 251 -218 q 299 -378 310 -311 q 220 -451 288 -444 q 61 -393 153 -457 l 61 -319 q 179 -376 126 -379 q 240 -322 232 -372 q 200 -218 247 -271 l 251 -218 z "},"ŀ":{"ha":540,"x_min":106,"x_max":521,"o":"m 106 1000 l 231 1000 l 231 0 l 106 0 l 106 1000 z "},"ł":{"ha":600,"x_min":0,"x_max":601,"o":"m 447 658 l 601 658 l 154 257 l 0 257 l 447 658 m 231 1000 l 356 1000 l 356 0 l 231 0 l 231 1000 z "},"m":{"ha":1207,"x_min":97,"x_max":1169,"o":"m 638 333 q 617 624 606 503 q 687 778 629 744 q 839 732 744 811 l 839 644 q 715 692 765 717 q 649 569 665 668 q 650 333 632 469 l 638 333 m 989 490 q 1063 628 1074 554 q 978 715 1053 703 q 839 644 904 726 l 839 732 q 1041 800 947 818 q 1152 690 1135 782 q 1081 490 1169 597 l 989 490 m 1081 0 l 956 0 l 956 490 l 1081 490 l 1081 0 m 208 333 q 188 624 176 503 q 258 778 200 744 q 410 732 315 811 l 410 644 q 286 692 336 717 q 219 569 236 668 q 221 333 203 469 l 208 333 m 560 490 q 634 628 644 554 q 549 715 624 703 q 410 644 475 726 l 410 732 q 612 800 518 818 q 723 690 706 782 q 651 490 740 597 l 560 490 m 651 0 l 526 0 l 526 490 l 651 490 l 651 0 m 97 708 l 222 708 l 222 0 l 97 0 l 97 708 z "},"n":{"ha":804,"x_min":97,"x_max":767,"o":"m 208 333 q 190 624 176 503 q 263 778 203 744 q 424 732 324 811 l 424 644 q 293 691 346 715 q 222 568 240 667 q 221 333 203 469 l 208 333 m 679 0 l 554 0 l 554 476 l 679 476 l 679 0 m 97 708 l 222 708 l 222 0 l 97 0 l 97 708 m 588 476 q 660 622 671 546 q 572 712 649 699 q 424 644 494 725 l 424 732 q 633 798 538 817 q 748 684 729 779 q 679 476 767 589 l 588 476 z "},"ń":{"ha":804,"x_min":97,"x_max":767,"o":"m 208 333 q 190 624 176 503 q 263 778 203 744 q 424 732 324 811 l 424 644 q 293 691 346 715 q 222 568 240 667 q 221 333 203 469 l 208 333 m 679 0 l 554 0 l 554 476 l 679 476 l 679 0 m 97 708 l 222 708 l 222 0 l 97 0 l 97 708 m 588 476 q 660 622 671 546 q 572 712 649 699 q 424 644 494 725 l 424 732 q 633 798 538 817 q 748 684 729 779 q 679 476 767 589 l 588 476 m 215 792 q 200 981 172 906 q 315 1064 228 1056 q 529 1001 403 1072 l 529 910 q 351 976 429 978 q 241 919 274 975 q 236 792 208 864 l 215 792 z "},"ň":{"ha":804,"x_min":97,"x_max":767,"o":"m 208 333 q 190 624 176 503 q 263 778 203 744 q 424 732 324 811 l 424 644 q 293 691 346 715 q 222 568 240 667 q 221 333 203 469 l 208 333 m 679 0 l 554 0 l 554 476 l 679 476 l 679 0 m 97 708 l 222 708 l 222 0 l 97 0 l 97 708 m 588 476 q 660 622 671 546 q 572 712 649 699 q 424 644 494 725 l 424 732 q 633 798 538 817 q 748 684 729 779 q 679 476 767 589 l 588 476 z "},"ņ":{"ha":804,"x_min":97,"x_max":767,"o":"m 208 333 q 190 624 176 503 q 263 778 203 744 q 424 732 324 811 l 424 644 q 293 691 346 715 q 222 568 240 667 q 221 333 203 469 l 208 333 m 679 0 l 554 0 l 554 476 l 679 476 l 679 0 m 97 708 l 222 708 l 222 0 l 97 0 l 97 708 m 588 476 q 660 622 671 546 q 572 712 649 699 q 424 644 494 725 l 424 732 q 633 798 538 817 q 748 684 729 779 q 679 476 767 589 l 588 476 m 301 -78 l 468 -78 l 468 -218 l 301 -218 l 301 -78 m 468 -218 q 515 -378 526 -311 q 437 -451 504 -444 q 278 -393 369 -457 l 278 -319 q 396 -376 343 -379 q 456 -322 449 -372 q 417 -218 464 -271 l 468 -218 z "},"ŋ":{"ha":804,"x_min":97,"x_max":767,"o":"m 679 0 q 744 -235 767 -132 q 618 -359 722 -339 q 388 -293 514 -379 l 388 -200 q 554 -269 469 -283 q 656 -170 639 -254 q 588 0 672 -86 l 679 0 m 588 476 q 660 622 671 546 q 572 712 649 699 q 424 644 494 725 l 424 732 q 633 798 538 817 q 748 684 729 779 q 679 476 767 589 l 588 476 m 97 708 l 222 708 l 222 0 l 97 0 l 97 708 m 679 0 l 554 0 l 554 476 l 679 476 l 679 0 m 208 333 q 190 624 176 503 q 263 778 203 744 q 424 732 324 811 l 424 644 q 293 691 346 715 q 222 568 240 667 q 221 333 203 469 l 208 333 z "},"ñ":{"ha":804,"x_min":83,"x_max":767,"o":"m 208 333 q 190 624 176 503 q 263 778 203 744 q 424 732 324 811 l 424 644 q 293 691 346 715 q 222 568 240 667 q 221 333 203 469 l 208 333 m 679 0 l 554 0 l 554 476 l 679 476 l 679 0 m 97 708 l 222 708 l 222 0 l 97 0 l 97 708 m 588 476 q 660 622 671 546 q 572 712 649 699 q 424 644 494 725 l 424 732 q 633 798 538 817 q 748 684 729 779 q 679 476 767 589 l 588 476 m 600 1021 q 674 879 686 947 q 574 799 661 811 q 385 860 488 788 l 385 933 q 513 872 446 865 q 584 931 579 878 q 507 1021 589 983 l 600 1021 m 169 797 q 96 939 83 871 q 195 1019 108 1007 q 385 958 282 1031 l 385 885 q 257 947 324 953 q 185 888 190 940 q 263 797 181 835 l 169 797 z "},"o":{"ha":949,"x_min":56,"x_max":893,"o":"m 811 354 q 867 74 893 192 q 731 -73 840 -43 q 474 -25 621 -103 l 474 58 q 667 10 575 -15 q 778 136 758 36 q 719 354 799 236 l 811 354 m 229 354 q 170 136 150 236 q 282 10 190 36 q 474 58 374 -15 l 474 -25 q 218 -73 328 -103 q 82 74 108 -43 q 136 354 56 192 l 229 354 m 719 354 q 778 572 799 472 q 667 698 758 672 q 474 650 575 724 l 474 733 q 731 781 621 811 q 867 634 840 751 q 811 354 893 517 l 719 354 m 136 354 q 82 634 56 517 q 218 781 108 751 q 474 733 328 811 l 474 650 q 282 698 374 724 q 170 572 190 672 q 229 354 150 472 l 136 354 z "},"ó":{"ha":949,"x_min":56,"x_max":893,"o":"m 811 354 q 867 74 893 192 q 731 -73 840 -43 q 474 -25 621 -103 l 474 58 q 667 10 575 -15 q 778 136 758 36 q 719 354 799 236 l 811 354 m 229 354 q 170 136 150 236 q 282 10 190 36 q 474 58 374 -15 l 474 -25 q 218 -73 328 -103 q 82 74 108 -43 q 136 354 56 192 l 229 354 m 719 354 q 778 572 799 472 q 667 698 758 672 q 474 650 575 724 l 474 733 q 731 781 621 811 q 867 634 840 751 q 811 354 893 517 l 719 354 m 136 354 q 82 634 56 517 q 218 781 108 751 q 474 733 328 811 l 474 650 q 282 698 374 724 q 170 572 190 672 q 229 354 150 472 l 136 354 m 304 792 q 289 981 261 906 q 404 1064 317 1056 q 618 1001 492 1072 l 618 910 q 440 976 518 978 q 330 919 363 975 q 325 792 297 864 l 304 792 z "},"ŏ":{"ha":949,"x_min":56,"x_max":893,"o":"m 811 354 q 867 74 893 192 q 731 -73 840 -43 q 474 -25 621 -103 l 474 58 q 667 10 575 -15 q 778 136 758 36 q 719 354 799 236 l 811 354 m 229 354 q 170 136 150 236 q 282 10 190 36 q 474 58 374 -15 l 474 -25 q 218 -73 328 -103 q 82 74 108 -43 q 136 354 56 192 l 229 354 m 719 354 q 778 572 799 472 q 667 698 758 672 q 474 650 575 724 l 474 733 q 731 781 621 811 q 867 634 840 751 q 811 354 893 517 l 719 354 m 136 354 q 82 634 56 517 q 218 781 108 751 q 474 733 328 811 l 474 650 q 282 698 374 724 q 170 572 190 672 q 229 354 150 472 l 136 354 m 358 989 q 281 879 278 940 q 349 808 285 818 q 474 867 414 797 l 474 793 q 288 735 372 721 q 192 826 204 750 q 265 989 181 903 l 358 989 m 682 990 q 755 827 767 904 q 659 735 743 750 q 474 793 575 721 l 474 867 q 598 808 533 797 q 666 879 663 818 q 589 990 669 940 l 682 990 z "},"ô":{"ha":949,"x_min":56,"x_max":893,"o":"m 811 354 q 867 74 893 192 q 731 -73 840 -43 q 474 -25 621 -103 l 474 58 q 667 10 575 -15 q 778 136 758 36 q 719 354 799 236 l 811 354 m 229 354 q 170 136 150 236 q 282 10 190 36 q 474 58 374 -15 l 474 -25 q 218 -73 328 -103 q 82 74 108 -43 q 136 354 56 192 l 229 354 m 719 354 q 778 572 799 472 q 667 698 758 672 q 474 650 575 724 l 474 733 q 731 781 621 811 q 867 634 840 751 q 811 354 893 517 l 719 354 m 136 354 q 82 634 56 517 q 218 781 108 751 q 474 733 328 811 l 474 650 q 282 698 374 724 q 170 572 190 672 q 229 354 150 472 l 136 354 m 406 818 l 265 818 l 393 989 l 533 989 l 406 818 m 554 989 l 682 818 l 542 818 l 414 989 l 554 989 z "},"ö":{"ha":949,"x_min":56,"x_max":893,"o":"m 811 354 q 867 74 893 192 q 731 -73 840 -43 q 474 -25 621 -103 l 474 58 q 667 10 575 -15 q 778 136 758 36 q 719 354 799 236 l 811 354 m 229 354 q 170 136 150 236 q 282 10 190 36 q 474 58 374 -15 l 474 -25 q 218 -73 328 -103 q 82 74 108 -43 q 136 354 56 192 l 229 354 m 719 354 q 778 572 799 472 q 667 698 758 672 q 474 650 575 724 l 474 733 q 731 781 621 811 q 867 634 840 751 q 811 354 893 517 l 719 354 m 136 354 q 82 634 56 517 q 218 781 108 751 q 474 733 328 811 l 474 650 q 282 698 374 724 q 170 572 190 672 q 229 354 150 472 l 136 354 m 540 979 l 700 979 l 700 826 l 540 826 l 540 979 m 247 979 l 407 979 l 407 826 l 247 826 l 247 979 z "},"ọ":{"ha":949,"x_min":56,"x_max":893,"o":"m 811 354 q 867 74 893 192 q 731 -73 840 -43 q 474 -25 621 -103 l 474 58 q 667 10 575 -15 q 778 136 758 36 q 719 354 799 236 l 811 354 m 229 354 q 170 136 150 236 q 282 10 190 36 q 474 58 374 -15 l 474 -25 q 218 -73 328 -103 q 82 74 108 -43 q 136 354 56 192 l 229 354 m 719 354 q 778 572 799 472 q 667 698 758 672 q 474 650 575 724 l 474 733 q 731 781 621 811 q 867 634 840 751 q 811 354 893 517 l 719 354 m 136 354 q 82 634 56 517 q 218 781 108 751 q 474 733 328 811 l 474 650 q 282 698 374 724 q 170 572 190 672 q 229 354 150 472 l 136 354 z "},"ò":{"ha":949,"x_min":56,"x_max":893,"o":"m 811 354 q 867 74 893 192 q 731 -73 840 -43 q 474 -25 621 -103 l 474 58 q 667 10 575 -15 q 778 136 758 36 q 719 354 799 236 l 811 354 m 229 354 q 170 136 150 236 q 282 10 190 36 q 474 58 374 -15 l 474 -25 q 218 -73 328 -103 q 82 74 108 -43 q 136 354 56 192 l 229 354 m 719 354 q 778 572 799 472 q 667 698 758 672 q 474 650 575 724 l 474 733 q 731 781 621 811 q 867 634 840 751 q 811 354 893 517 l 719 354 m 136 354 q 82 634 56 517 q 218 781 108 751 q 474 733 328 811 l 474 650 q 282 698 374 724 q 170 572 190 672 q 229 354 150 472 l 136 354 m 622 792 q 617 919 650 864 q 507 976 585 975 q 329 910 429 978 l 329 1001 q 543 1064 456 1072 q 658 981 631 1056 q 643 792 686 906 l 622 792 z "},"ő":{"ha":949,"x_min":56,"x_max":893,"o":"m 811 354 q 867 74 893 192 q 731 -73 840 -43 q 474 -25 621 -103 l 474 58 q 667 10 575 -15 q 778 136 758 36 q 719 354 799 236 l 811 354 m 229 354 q 170 136 150 236 q 282 10 190 36 q 474 58 374 -15 l 474 -25 q 218 -73 328 -103 q 82 74 108 -43 q 136 354 56 192 l 229 354 m 719 354 q 778 572 799 472 q 667 698 758 672 q 474 650 575 724 l 474 733 q 731 781 621 811 q 867 634 840 751 q 811 354 893 517 l 719 354 m 136 354 q 82 634 56 517 q 218 781 108 751 q 474 733 328 811 l 474 650 q 282 698 374 724 q 170 572 190 672 q 229 354 150 472 l 136 354 m 564 792 q 533 989 518 911 q 612 1073 549 1067 q 757 1003 675 1079 l 757 910 q 640 981 692 982 q 572 922 588 981 q 586 792 556 864 l 564 792 m 304 792 q 274 989 258 911 q 352 1073 289 1067 q 497 1003 415 1079 l 497 910 q 380 981 432 982 q 312 922 328 981 q 326 792 296 864 l 304 792 z "},"ō":{"ha":949,"x_min":56,"x_max":893,"o":"m 811 354 q 867 74 893 192 q 731 -73 840 -43 q 474 -25 621 -103 l 474 58 q 667 10 575 -15 q 778 136 758 36 q 719 354 799 236 l 811 354 m 229 354 q 170 136 150 236 q 282 10 190 36 q 474 58 374 -15 l 474 -25 q 218 -73 328 -103 q 82 74 108 -43 q 136 354 56 192 l 229 354 m 719 354 q 778 572 799 472 q 667 698 758 672 q 474 650 575 724 l 474 733 q 731 781 621 811 q 867 634 840 751 q 811 354 893 517 l 719 354 m 136 354 q 82 634 56 517 q 218 781 108 751 q 474 733 328 811 l 474 650 q 282 698 374 724 q 170 572 190 672 q 229 354 150 472 l 136 354 m 249 979 l 697 979 l 697 861 l 249 861 l 249 979 z "},"ø":{"ha":949,"x_min":56,"x_max":893,"o":"m 811 354 q 867 74 893 192 q 731 -73 840 -43 q 474 -25 621 -103 l 474 58 q 667 10 575 -15 q 778 136 758 36 q 719 354 799 236 l 811 354 m 229 354 q 170 136 150 236 q 282 10 190 36 q 474 58 374 -15 l 474 -25 q 218 -73 328 -103 q 82 74 108 -43 q 136 354 56 192 l 229 354 m 719 354 q 778 572 799 472 q 667 698 758 672 q 474 650 575 724 l 474 733 q 731 781 621 811 q 867 634 840 751 q 811 354 893 517 l 719 354 m 136 354 q 82 634 56 517 q 218 781 108 751 q 474 733 328 811 l 474 650 q 282 698 374 724 q 170 572 190 672 q 229 354 150 472 l 136 354 m 185 0 l 83 0 l 761 708 l 863 708 l 185 0 z "},"ǿ":{"ha":949,"x_min":56,"x_max":893,"o":"m 811 354 q 867 74 893 192 q 731 -73 840 -43 q 474 -25 621 -103 l 474 58 q 667 10 575 -15 q 778 136 758 36 q 719 354 799 236 l 811 354 m 229 354 q 170 136 150 236 q 282 10 190 36 q 474 58 374 -15 l 474 -25 q 218 -73 328 -103 q 82 74 108 -43 q 136 354 56 192 l 229 354 m 719 354 q 778 572 799 472 q 667 698 758 672 q 474 650 575 724 l 474 733 q 731 781 621 811 q 867 634 840 751 q 811 354 893 517 l 719 354 m 136 354 q 82 634 56 517 q 218 781 108 751 q 474 733 328 811 l 474 650 q 282 698 374 724 q 170 572 190 672 q 229 354 150 472 l 136 354 m 185 0 l 83 0 l 761 708 l 863 708 l 185 0 m 304 792 q 289 981 261 906 q 404 1064 317 1056 q 618 1001 492 1072 l 618 910 q 440 976 518 978 q 330 919 363 975 q 325 792 297 864 l 304 792 z "},"õ":{"ha":949,"x_min":56,"x_max":893,"o":"m 811 354 q 867 74 893 192 q 731 -73 840 -43 q 474 -25 621 -103 l 474 58 q 667 10 575 -15 q 778 136 758 36 q 719 354 799 236 l 811 354 m 229 354 q 170 136 150 236 q 282 10 190 36 q 474 58 374 -15 l 474 -25 q 218 -73 328 -103 q 82 74 108 -43 q 136 354 56 192 l 229 354 m 719 354 q 778 572 799 472 q 667 698 758 672 q 474 650 575 724 l 474 733 q 731 781 621 811 q 867 634 840 751 q 811 354 893 517 l 719 354 m 136 354 q 82 634 56 517 q 218 781 108 751 q 474 733 328 811 l 474 650 q 282 698 374 724 q 170 572 190 672 q 229 354 150 472 l 136 354 m 689 1021 q 763 879 775 947 q 663 799 750 811 q 474 860 576 788 l 474 933 q 601 872 535 865 q 673 931 668 878 q 596 1021 678 983 l 689 1021 m 258 797 q 185 939 172 871 q 284 1019 197 1007 q 474 958 371 1031 l 474 885 q 346 947 413 953 q 274 888 279 940 q 351 797 269 835 l 258 797 z "},"œ":{"ha":1457,"x_min":56,"x_max":1404,"o":"m 1318 257 q 1381 38 1404 135 q 1251 -81 1357 -58 q 1011 -25 1144 -103 l 1011 58 q 1187 0 1100 -17 q 1291 97 1274 17 q 1226 257 1308 176 l 1318 257 m 799 354 q 849 87 875 207 q 719 -69 824 -33 q 474 -25 614 -106 l 474 58 q 658 12 569 -17 q 767 142 746 40 q 715 354 789 243 l 799 354 m 229 354 q 170 136 150 236 q 282 10 190 36 q 474 58 374 -15 l 474 -25 q 218 -73 328 -103 q 82 74 108 -43 q 136 354 56 192 l 229 354 m 715 354 q 767 567 789 465 q 658 697 746 668 q 474 650 569 725 l 474 733 q 719 778 614 814 q 849 622 824 742 q 799 354 875 501 l 715 354 m 136 354 q 82 634 56 517 q 218 781 108 751 q 474 733 328 811 l 474 650 q 282 698 374 724 q 170 572 190 672 q 229 354 150 472 l 136 354 m 688 347 q 637 618 611 496 q 767 778 663 740 q 1008 733 871 815 l 1008 650 q 828 697 915 726 q 719 563 740 667 q 772 347 699 460 l 688 347 m 772 347 q 719 139 697 239 q 829 11 740 39 q 1011 58 918 -17 l 1011 -25 q 768 -71 874 -106 q 637 83 663 -36 q 688 347 611 203 l 772 347 m 799 340 l 799 444 l 1229 444 l 1229 340 l 799 340 m 1228 340 q 1289 566 1306 463 q 1187 697 1272 669 q 1008 650 1101 725 l 1008 733 q 1250 782 1147 813 q 1376 630 1353 751 q 1319 340 1400 508 l 1228 340 z "},"p":{"ha":894,"x_min":97,"x_max":838,"o":"m 221 354 q 223 131 203 224 q 299 15 243 38 q 436 60 356 -7 l 436 -24 q 271 -67 335 -97 q 191 77 207 -36 q 208 354 175 190 l 221 354 m 208 354 q 191 631 175 518 q 271 775 207 744 q 436 732 335 806 l 436 649 q 299 693 356 715 q 223 578 243 671 q 221 354 203 485 l 208 354 m 756 354 q 813 75 838 193 q 683 -72 789 -43 q 436 -24 578 -101 l 436 60 q 618 10 531 -15 q 724 137 706 36 q 664 354 743 238 l 756 354 m 664 354 q 724 572 743 471 q 618 698 706 672 q 436 649 531 724 l 436 732 q 683 781 578 810 q 813 633 789 751 q 756 354 838 515 l 664 354 m 222 -278 l 97 -278 l 97 708 l 222 708 l 222 -278 z "},"þ":{"ha":900,"x_min":104,"x_max":843,"o":"m 228 354 q 229 131 208 224 q 306 15 250 38 q 443 60 363 -7 l 443 -24 q 278 -67 342 -97 q 198 77 214 -36 q 215 354 182 190 l 228 354 m 215 354 q 198 631 182 518 q 278 775 214 744 q 443 732 342 806 l 443 649 q 306 693 363 715 q 229 578 250 671 q 228 354 208 485 l 215 354 m 763 354 q 819 75 843 193 q 689 -72 794 -43 q 443 -24 583 -101 l 443 60 q 625 10 538 -15 q 731 137 713 36 q 669 354 749 238 l 763 354 m 669 354 q 731 572 749 471 q 625 698 713 672 q 443 649 538 724 l 443 732 q 689 781 583 810 q 819 633 794 751 q 763 354 843 515 l 669 354 m 229 -278 l 104 -278 l 104 1000 l 229 1000 l 229 -278 z "},"q":{"ha":894,"x_min":57,"x_max":796,"o":"m 674 354 q 672 131 692 224 q 595 15 651 38 q 458 60 539 -7 l 458 -24 q 624 -67 560 -97 q 703 77 688 -36 q 686 354 719 190 l 674 354 m 686 354 q 703 631 719 518 q 624 775 688 744 q 458 732 560 806 l 458 649 q 595 693 539 715 q 672 578 651 671 q 674 354 692 485 l 686 354 m 139 354 q 81 75 57 193 q 211 -72 106 -43 q 458 -24 317 -101 l 458 60 q 276 10 364 -15 q 170 137 189 36 q 231 354 151 238 l 139 354 m 231 354 q 170 572 151 471 q 276 698 189 672 q 458 649 364 724 l 458 732 q 211 781 317 810 q 81 633 106 751 q 139 354 57 515 l 231 354 m 672 -278 l 797 -278 l 797 708 l 672 708 l 672 -278 z "},"r":{"ha":550,"x_min":101,"x_max":529,"o":"m 213 383 q 206 643 181 536 q 315 776 232 750 q 529 726 397 801 l 529 633 q 349 688 425 704 q 239 586 272 671 q 225 383 206 501 l 213 383 m 226 708 l 226 0 l 101 0 l 101 708 l 226 708 z "},"ŕ":{"ha":550,"x_min":92,"x_max":529,"o":"m 213 383 q 206 643 181 536 q 315 776 232 750 q 529 726 397 801 l 529 633 q 349 688 425 704 q 239 586 272 671 q 225 383 206 501 l 213 383 m 226 708 l 226 0 l 101 0 l 101 708 l 226 708 m 135 792 q 119 981 92 906 q 235 1064 147 1056 q 449 1001 322 1072 l 449 910 q 271 976 349 978 q 160 919 193 975 q 156 792 128 864 l 135 792 z "},"ř":{"ha":550,"x_min":96,"x_max":529,"o":"m 213 383 q 206 643 181 536 q 315 776 232 750 q 529 726 397 801 l 529 633 q 349 688 425 704 q 239 586 272 671 q 225 383 206 501 l 213 383 m 226 708 l 226 0 l 101 0 l 101 708 l 226 708 z "},"ŗ":{"ha":550,"x_min":57,"x_max":529,"o":"m 213 383 q 206 643 181 536 q 315 776 232 750 q 529 726 397 801 l 529 633 q 349 688 425 704 q 239 586 272 671 q 225 383 206 501 l 213 383 m 226 708 l 226 0 l 101 0 l 101 708 l 226 708 m 81 -78 l 247 -78 l 247 -218 l 81 -218 l 81 -78 m 247 -218 q 294 -378 306 -311 q 216 -451 283 -444 q 57 -393 149 -457 l 57 -319 q 175 -376 122 -379 q 235 -322 228 -372 q 196 -218 243 -271 l 247 -218 z "},"s":{"ha":876,"x_min":43,"x_max":822,"o":"m 636 215 q 708 345 726 275 q 603 422 690 415 q 440 342 517 429 l 440 439 q 667 513 560 528 q 798 409 774 499 q 729 215 822 319 l 636 215 m 729 215 q 794 22 815 110 q 670 -84 774 -67 q 440 -24 567 -101 l 440 60 q 606 -3 522 -15 q 704 80 689 10 q 636 215 719 150 l 729 215 m 225 200 q 157 74 139 140 q 264 -3 175 8 q 440 60 353 -14 l 440 -24 q 199 -83 307 -100 q 67 17 90 -67 q 132 200 43 100 l 225 200 m 613 550 q 684 652 699 594 q 585 717 669 710 q 422 650 501 724 l 422 733 q 649 797 546 810 q 774 708 753 783 q 706 550 796 633 l 613 550 m 156 529 q 87 701 68 621 q 205 797 106 782 q 422 733 304 811 l 422 651 q 268 717 347 725 q 176 645 189 708 q 249 529 164 582 l 156 529 m 249 529 q 176 401 158 471 q 278 325 193 332 q 440 406 364 318 l 440 308 q 215 234 321 219 q 86 338 110 249 q 156 529 63 426 l 249 529 z "},"ś":{"ha":876,"x_min":43,"x_max":822,"o":"m 636 215 q 708 345 726 275 q 603 422 690 415 q 440 342 517 429 l 440 439 q 667 513 560 528 q 798 409 774 499 q 729 215 822 319 l 636 215 m 729 215 q 794 22 815 110 q 670 -84 774 -67 q 440 -24 567 -101 l 440 60 q 606 -3 522 -15 q 704 80 689 10 q 636 215 719 150 l 729 215 m 225 200 q 157 74 139 140 q 264 -3 175 8 q 440 60 353 -14 l 440 -24 q 199 -83 307 -100 q 67 17 90 -67 q 132 200 43 100 l 225 200 m 613 550 q 684 652 699 594 q 585 717 669 710 q 422 650 501 724 l 422 733 q 649 797 546 810 q 774 708 753 783 q 706 550 796 633 l 613 550 m 156 529 q 87 701 68 621 q 205 797 106 782 q 422 733 304 811 l 422 651 q 268 717 347 725 q 176 645 189 708 q 249 529 164 582 l 156 529 m 249 529 q 176 401 158 471 q 278 325 193 332 q 440 406 364 318 l 440 308 q 215 234 321 219 q 86 338 110 249 q 156 529 63 426 l 249 529 m 265 792 q 250 981 222 906 q 365 1064 278 1056 q 579 1001 453 1072 l 579 910 q 401 976 479 978 q 291 919 324 975 q 286 792 258 864 l 265 792 z "},"š":{"ha":876,"x_min":43,"x_max":822,"o":"m 636 215 q 708 345 726 275 q 603 422 690 415 q 440 342 517 429 l 440 439 q 667 513 560 528 q 798 409 774 499 q 729 215 822 319 l 636 215 m 729 215 q 794 22 815 110 q 670 -84 774 -67 q 440 -24 567 -101 l 440 60 q 606 -3 522 -15 q 704 80 689 10 q 636 215 719 150 l 729 215 m 225 200 q 157 74 139 140 q 264 -3 175 8 q 440 60 353 -14 l 440 -24 q 199 -83 307 -100 q 67 17 90 -67 q 132 200 43 100 l 225 200 m 613 550 q 684 652 699 594 q 585 717 669 710 q 422 650 501 724 l 422 733 q 649 797 546 810 q 774 708 753 783 q 706 550 796 633 l 613 550 m 156 529 q 87 701 68 621 q 205 797 106 782 q 422 733 304 811 l 422 651 q 268 717 347 725 q 176 645 189 708 q 249 529 164 582 l 156 529 m 249 529 q 176 401 158 471 q 278 325 193 332 q 440 406 364 318 l 440 308 q 215 234 321 219 q 86 338 110 249 q 156 529 63 426 l 249 529 z "},"ş":{"ha":876,"x_min":43,"x_max":822,"o":"m 636 215 q 708 345 726 275 q 603 422 690 415 q 440 342 517 429 l 440 439 q 667 513 560 528 q 798 409 774 499 q 729 215 822 319 l 636 215 m 729 215 q 794 22 815 110 q 670 -84 774 -67 q 440 -24 567 -101 l 440 60 q 606 -3 522 -15 q 704 80 689 10 q 636 215 719 150 l 729 215 m 225 200 q 157 74 139 140 q 264 -3 175 8 q 440 60 353 -14 l 440 -24 q 199 -83 307 -100 q 67 17 90 -67 q 132 200 43 100 l 225 200 m 613 550 q 684 652 699 594 q 585 717 669 710 q 422 650 501 724 l 422 733 q 649 797 546 810 q 774 708 753 783 q 706 550 796 633 l 613 550 m 156 529 q 87 701 68 621 q 205 797 106 782 q 422 733 304 811 l 422 651 q 268 717 347 725 q 176 645 189 708 q 249 529 164 582 l 156 529 m 249 529 q 176 401 158 471 q 278 325 193 332 q 440 406 364 318 l 440 308 q 215 234 321 219 q 86 338 110 249 q 156 529 63 426 l 249 529 m 579 -86 q 623 18 632 -35 q 559 72 614 71 q 446 6 504 74 l 446 89 q 601 156 531 161 q 683 79 671 150 q 632 -86 696 8 l 579 -86 m 632 -86 q 670 -267 697 -190 q 545 -354 643 -344 q 321 -287 447 -364 l 321 -194 q 497 -266 414 -268 q 608 -206 581 -264 q 579 -86 636 -147 l 632 -86 z "},"ŝ":{"ha":876,"x_min":43,"x_max":822,"o":"m 636 215 q 708 345 726 275 q 603 422 690 415 q 440 342 517 429 l 440 439 q 667 513 560 528 q 798 409 774 499 q 729 215 822 319 l 636 215 m 729 215 q 794 22 815 110 q 670 -84 774 -67 q 440 -24 567 -101 l 440 60 q 606 -3 522 -15 q 704 80 689 10 q 636 215 719 150 l 729 215 m 225 200 q 157 74 139 140 q 264 -3 175 8 q 440 60 353 -14 l 440 -24 q 199 -83 307 -100 q 67 17 90 -67 q 132 200 43 100 l 225 200 m 613 550 q 684 652 699 594 q 585 717 669 710 q 422 650 501 724 l 422 733 q 649 797 546 810 q 774 708 753 783 q 706 550 796 633 l 613 550 m 156 529 q 87 701 68 621 q 205 797 106 782 q 422 733 304 811 l 422 651 q 268 717 347 725 q 176 645 189 708 q 249 529 164 582 l 156 529 m 249 529 q 176 401 158 471 q 278 325 193 332 q 440 406 364 318 l 440 308 q 215 234 321 219 q 86 338 110 249 q 156 529 63 426 l 249 529 m 367 818 l 226 818 l 354 989 l 494 989 l 367 818 m 515 989 l 643 818 l 503 818 l 375 989 l 515 989 z "},"ș":{"ha":876,"x_min":43,"x_max":822,"o":"m 636 215 q 708 345 726 275 q 603 422 690 415 q 440 342 517 429 l 440 439 q 667 513 560 528 q 798 409 774 499 q 729 215 822 319 l 636 215 m 729 215 q 794 22 815 110 q 670 -84 774 -67 q 440 -24 567 -101 l 440 60 q 606 -3 522 -15 q 704 80 689 10 q 636 215 719 150 l 729 215 m 225 200 q 157 74 139 140 q 264 -3 175 8 q 440 60 353 -14 l 440 -24 q 199 -83 307 -100 q 67 17 90 -67 q 132 200 43 100 l 225 200 m 613 550 q 684 652 699 594 q 585 717 669 710 q 422 650 501 724 l 422 733 q 649 797 546 810 q 774 708 753 783 q 706 550 796 633 l 613 550 m 156 529 q 87 701 68 621 q 205 797 106 782 q 422 733 304 811 l 422 651 q 268 717 347 725 q 176 645 189 708 q 249 529 164 582 l 156 529 m 249 529 q 176 401 158 471 q 278 325 193 332 q 440 406 364 318 l 440 308 q 215 234 321 219 q 86 338 110 249 q 156 529 63 426 l 249 529 m 363 -78 l 529 -78 l 529 -218 l 363 -218 l 363 -78 m 529 -218 q 576 -378 588 -311 q 498 -451 565 -444 q 339 -393 431 -457 l 339 -319 q 457 -376 404 -379 q 517 -322 510 -372 q 478 -218 525 -271 l 529 -218 z "},"ß":{"ha":922,"x_min":32,"x_max":888,"o":"m 742 744 q 795 614 808 668 q 690 541 782 560 q 442 547 599 522 l 442 568 q 623 569 551 549 q 702 640 694 590 q 649 744 710 689 l 742 744 m 117 703 q 57 946 32 840 q 190 1076 82 1051 q 439 1024 299 1101 l 439 940 q 255 994 344 1014 q 147 885 165 974 q 210 703 128 797 l 117 703 m 799 279 q 855 48 883 149 q 709 -76 826 -53 q 442 -24 592 -99 l 442 60 q 644 6 546 -12 q 765 106 742 24 q 706 279 788 189 l 799 279 m 649 744 q 715 903 732 825 q 612 999 697 982 q 439 940 526 1015 l 439 1024 q 676 1080 571 1101 q 804 963 782 1058 q 742 744 826 867 l 649 744 m 706 279 q 767 447 792 365 q 643 543 743 529 q 442 476 543 557 l 442 569 q 709 631 590 651 q 858 511 828 611 q 799 279 888 411 l 706 279 m 117 703 l 242 703 l 242 0 l 117 0 l 117 703 z "},"t":{"ha":496,"x_min":22,"x_max":475,"o":"m 475 604 l 22 604 l 22 708 l 475 708 l 475 604 m 186 929 l 311 929 l 311 0 l 186 0 l 186 929 z "},"ŧ":{"ha":496,"x_min":22,"x_max":475,"o":"m 60 426 l 443 426 l 443 329 l 60 329 l 60 426 m 186 929 l 311 929 l 311 0 l 186 0 l 186 929 m 475 604 l 22 604 l 22 708 l 475 708 l 475 604 z "},"ť":{"ha":599,"x_min":19,"x_max":599,"o":"m 472 604 l 19 604 l 19 708 l 472 708 l 472 604 m 183 929 l 308 929 l 308 0 l 183 0 l 183 929 z "},"ţ":{"ha":496,"x_min":22,"x_max":475,"o":"m 475 604 l 22 604 l 22 708 l 475 708 l 475 604 m 186 929 l 311 929 l 311 0 l 186 0 l 186 929 m 319 -94 q 363 10 372 -43 q 299 64 354 63 q 186 -3 244 65 l 186 81 q 341 147 271 153 q 424 71 411 142 q 372 -94 436 0 l 319 -94 m 372 -94 q 410 -276 438 -199 q 285 -362 383 -353 q 61 -296 188 -372 l 61 -203 q 238 -274 154 -276 q 349 -214 321 -272 q 319 -94 376 -156 l 372 -94 z "},"ț":{"ha":496,"x_min":22,"x_max":475,"o":"m 475 604 l 22 604 l 22 708 l 475 708 l 475 604 m 186 929 l 311 929 l 311 0 l 186 0 l 186 929 m 165 -78 l 332 -78 l 332 -218 l 165 -218 l 165 -78 m 332 -218 q 379 -378 390 -311 q 301 -451 368 -444 q 142 -393 233 -457 l 142 -319 q 260 -376 207 -379 q 320 -322 313 -372 q 281 -218 328 -271 l 332 -218 z "},"u":{"ha":789,"x_min":39,"x_max":692,"o":"m 581 375 q 601 84 614 206 q 528 -70 588 -37 q 372 -24 469 -103 l 372 65 q 500 17 449 -7 q 569 140 551 42 q 568 375 588 239 l 581 375 m 125 708 l 250 708 l 250 232 l 125 232 l 125 708 m 692 0 l 567 0 l 567 708 l 692 708 l 692 0 m 218 232 q 144 85 133 161 q 230 -4 156 8 q 372 65 304 -17 l 372 -24 q 167 -90 261 -108 q 56 24 74 -71 q 125 232 39 118 l 218 232 z "},"ú":{"ha":789,"x_min":39,"x_max":692,"o":"m 581 375 q 601 84 614 206 q 528 -70 588 -37 q 372 -24 469 -103 l 372 65 q 500 17 449 -7 q 569 140 551 42 q 568 375 588 239 l 581 375 m 125 708 l 250 708 l 250 232 l 125 232 l 125 708 m 692 0 l 567 0 l 567 708 l 692 708 l 692 0 m 218 232 q 144 85 133 161 q 230 -4 156 8 q 372 65 304 -17 l 372 -24 q 167 -90 261 -108 q 56 24 74 -71 q 125 232 39 118 l 218 232 m 243 792 q 228 981 200 906 q 343 1064 256 1056 q 557 1001 431 1072 l 557 910 q 379 976 457 978 q 269 919 301 975 q 264 792 236 864 l 243 792 z "},"ŭ":{"ha":789,"x_min":39,"x_max":706,"o":"m 581 375 q 601 84 614 206 q 528 -70 588 -37 q 372 -24 469 -103 l 372 65 q 500 17 449 -7 q 569 140 551 42 q 568 375 588 239 l 581 375 m 125 708 l 250 708 l 250 232 l 125 232 l 125 708 m 692 0 l 567 0 l 567 708 l 692 708 l 692 0 m 218 232 q 144 85 133 161 q 230 -4 156 8 q 372 65 304 -17 l 372 -24 q 167 -90 261 -108 q 56 24 74 -71 q 125 232 39 118 l 218 232 m 297 989 q 220 879 217 940 q 288 808 224 818 q 413 867 353 797 l 413 793 q 227 735 311 721 q 131 826 143 750 q 204 989 119 903 l 297 989 m 621 990 q 694 827 706 904 q 598 735 682 750 q 413 793 514 721 l 413 867 q 537 808 472 797 q 605 879 601 818 q 528 990 608 940 l 621 990 z "},"û":{"ha":789,"x_min":39,"x_max":692,"o":"m 581 375 q 601 84 614 206 q 528 -70 588 -37 q 372 -24 469 -103 l 372 65 q 500 17 449 -7 q 569 140 551 42 q 568 375 588 239 l 581 375 m 125 708 l 250 708 l 250 232 l 125 232 l 125 708 m 692 0 l 567 0 l 567 708 l 692 708 l 692 0 m 218 232 q 144 85 133 161 q 230 -4 156 8 q 372 65 304 -17 l 372 -24 q 167 -90 261 -108 q 56 24 74 -71 q 125 232 39 118 l 218 232 m 344 818 l 204 818 l 332 989 l 472 989 l 344 818 m 493 989 l 621 818 l 481 818 l 353 989 l 493 989 z "},"ü":{"ha":789,"x_min":39,"x_max":692,"o":"m 581 375 q 601 84 614 206 q 528 -70 588 -37 q 372 -24 469 -103 l 372 65 q 500 17 449 -7 q 569 140 551 42 q 568 375 588 239 l 581 375 m 125 708 l 250 708 l 250 232 l 125 232 l 125 708 m 692 0 l 567 0 l 567 708 l 692 708 l 692 0 m 218 232 q 144 85 133 161 q 230 -4 156 8 q 372 65 304 -17 l 372 -24 q 167 -90 261 -108 q 56 24 74 -71 q 125 232 39 118 l 218 232 m 479 979 l 639 979 l 639 826 l 479 826 l 479 979 m 186 979 l 346 979 l 346 826 l 186 826 l 186 979 z "},"ụ":{"ha":789,"x_min":39,"x_max":692,"o":"m 581 375 q 601 84 614 206 q 528 -70 588 -37 q 372 -24 469 -103 l 372 65 q 500 17 449 -7 q 569 140 551 42 q 568 375 588 239 l 581 375 m 125 708 l 250 708 l 250 232 l 125 232 l 125 708 m 692 0 l 567 0 l 567 708 l 692 708 l 692 0 m 218 232 q 144 85 133 161 q 230 -4 156 8 q 372 65 304 -17 l 372 -24 q 167 -90 261 -108 q 56 24 74 -71 q 125 232 39 118 l 218 232 z "},"ù":{"ha":789,"x_min":39,"x_max":692,"o":"m 581 375 q 601 84 614 206 q 528 -70 588 -37 q 372 -24 469 -103 l 372 65 q 500 17 449 -7 q 569 140 551 42 q 568 375 588 239 l 581 375 m 125 708 l 250 708 l 250 232 l 125 232 l 125 708 m 692 0 l 567 0 l 567 708 l 692 708 l 692 0 m 218 232 q 144 85 133 161 q 230 -4 156 8 q 372 65 304 -17 l 372 -24 q 167 -90 261 -108 q 56 24 74 -71 q 125 232 39 118 l 218 232 m 561 792 q 556 919 589 864 q 446 976 524 975 q 268 910 368 978 l 268 1001 q 482 1064 394 1072 q 597 981 569 1056 q 582 792 625 906 l 561 792 z "},"ű":{"ha":789,"x_min":39,"x_max":697,"o":"m 581 375 q 601 84 614 206 q 528 -70 588 -37 q 372 -24 469 -103 l 372 65 q 500 17 449 -7 q 569 140 551 42 q 568 375 588 239 l 581 375 m 125 708 l 250 708 l 250 232 l 125 232 l 125 708 m 692 0 l 567 0 l 567 708 l 692 708 l 692 0 m 218 232 q 144 85 133 161 q 230 -4 156 8 q 372 65 304 -17 l 372 -24 q 167 -90 261 -108 q 56 24 74 -71 q 125 232 39 118 l 218 232 m 503 792 q 472 989 457 911 q 551 1073 488 1067 q 696 1003 614 1079 l 696 910 q 578 981 631 982 q 510 922 526 981 q 525 792 494 864 l 503 792 m 243 792 q 213 989 197 911 q 291 1073 228 1067 q 436 1003 354 1079 l 436 910 q 319 981 371 982 q 251 922 267 981 q 265 792 235 864 l 243 792 z "},"ū":{"ha":789,"x_min":39,"x_max":692,"o":"m 581 375 q 601 84 614 206 q 528 -70 588 -37 q 372 -24 469 -103 l 372 65 q 500 17 449 -7 q 569 140 551 42 q 568 375 588 239 l 581 375 m 125 708 l 250 708 l 250 232 l 125 232 l 125 708 m 692 0 l 567 0 l 567 708 l 692 708 l 692 0 m 218 232 q 144 85 133 161 q 230 -4 156 8 q 372 65 304 -17 l 372 -24 q 167 -90 261 -108 q 56 24 74 -71 q 125 232 39 118 l 218 232 m 188 979 l 636 979 l 636 861 l 188 861 l 188 979 z "},"ų":{"ha":789,"x_min":39,"x_max":781,"o":"m 581 375 q 601 84 614 206 q 528 -70 588 -37 q 372 -24 469 -103 l 372 65 q 500 17 449 -7 q 569 140 551 42 q 568 375 588 239 l 581 375 m 125 708 l 250 708 l 250 232 l 125 232 l 125 708 m 692 0 l 567 0 l 567 708 l 692 708 l 692 0 m 218 232 q 144 85 133 161 q 230 -4 156 8 q 372 65 304 -17 l 372 -24 q 167 -90 261 -108 q 56 24 74 -71 q 125 232 39 118 l 218 232 m 601 0 q 576 -134 560 -71 q 652 -201 593 -197 q 781 -129 711 -204 l 781 -222 q 617 -292 688 -301 q 529 -199 546 -282 q 567 0 513 -117 l 601 0 z "},"ů":{"ha":789,"x_min":39,"x_max":692,"o":"m 581 375 q 601 84 614 206 q 528 -70 588 -37 q 372 -24 469 -103 l 372 65 q 500 17 449 -7 q 569 140 551 42 q 568 375 588 239 l 581 375 m 125 708 l 250 708 l 250 232 l 125 232 l 125 708 m 692 0 l 567 0 l 567 708 l 692 708 l 692 0 m 218 232 q 144 85 133 161 q 230 -4 156 8 q 372 65 304 -17 l 372 -24 q 167 -90 261 -108 q 56 24 74 -71 q 125 232 39 118 l 218 232 m 257 938 q 201 1070 197 1017 q 265 1130 206 1124 q 413 1086 325 1136 l 413 1032 q 310 1072 353 1078 q 270 1022 268 1065 q 322 938 272 979 l 257 938 m 503 938 q 555 1022 553 979 q 515 1072 557 1065 q 413 1032 472 1078 l 413 1086 q 560 1130 500 1136 q 624 1070 619 1124 q 568 938 628 1017 l 503 938 m 322 938 q 270 853 272 896 q 310 803 268 810 q 413 843 353 797 l 413 789 q 265 745 325 739 q 201 805 206 751 q 257 938 197 858 l 322 938 m 568 938 q 624 805 628 858 q 560 745 619 751 q 413 789 500 739 l 413 843 q 515 803 472 797 q 555 853 557 810 q 503 938 553 896 l 568 938 z "},"ũ":{"ha":789,"x_min":39,"x_max":714,"o":"m 581 375 q 601 84 614 206 q 528 -70 588 -37 q 372 -24 469 -103 l 372 65 q 500 17 449 -7 q 569 140 551 42 q 568 375 588 239 l 581 375 m 125 708 l 250 708 l 250 232 l 125 232 l 125 708 m 692 0 l 567 0 l 567 708 l 692 708 l 692 0 m 218 232 q 144 85 133 161 q 230 -4 156 8 q 372 65 304 -17 l 372 -24 q 167 -90 261 -108 q 56 24 74 -71 q 125 232 39 118 l 218 232 m 628 1021 q 701 879 714 947 q 602 799 689 811 q 413 860 515 788 l 413 933 q 540 872 474 865 q 612 931 607 878 q 535 1021 617 983 l 628 1021 m 197 797 q 124 939 111 871 q 223 1019 136 1007 q 413 958 310 1031 l 413 885 q 285 947 351 953 q 213 888 218 940 q 290 797 208 835 l 197 797 z "},"v":{"ha":726,"x_min":22,"x_max":703,"o":"m 450 0 l 325 0 l 578 708 l 703 708 l 450 0 m 154 708 l 407 0 l 275 0 l 22 708 l 154 708 z "},"w":{"ha":1086,"x_min":26,"x_max":1060,"o":"m 847 0 l 731 0 l 943 708 l 1060 708 l 847 0 m 635 708 l 794 0 l 681 0 l 519 708 l 635 708 m 407 0 l 300 0 l 460 708 l 568 708 l 407 0 m 151 708 l 364 0 l 239 0 l 26 708 l 151 708 z "},"ẃ":{"ha":1086,"x_min":26,"x_max":1060,"o":"m 847 0 l 731 0 l 943 708 l 1060 708 l 847 0 m 635 708 l 794 0 l 681 0 l 519 708 l 635 708 m 407 0 l 300 0 l 460 708 l 568 708 l 407 0 m 151 708 l 364 0 l 239 0 l 26 708 l 151 708 m 374 792 q 358 981 331 906 q 474 1064 386 1056 q 688 1001 561 1072 l 688 910 q 510 976 588 978 q 399 919 432 975 q 394 792 367 864 l 374 792 z "},"ŵ":{"ha":1086,"x_min":26,"x_max":1060,"o":"m 847 0 l 731 0 l 943 708 l 1060 708 l 847 0 m 635 708 l 794 0 l 681 0 l 519 708 l 635 708 m 407 0 l 300 0 l 460 708 l 568 708 l 407 0 m 151 708 l 364 0 l 239 0 l 26 708 l 151 708 m 475 818 l 335 818 l 463 989 l 603 989 l 475 818 m 624 989 l 751 818 l 611 818 l 483 989 l 624 989 z "},"ẅ":{"ha":1086,"x_min":26,"x_max":1060,"o":"m 847 0 l 731 0 l 943 708 l 1060 708 l 847 0 m 635 708 l 794 0 l 681 0 l 519 708 l 635 708 m 407 0 l 300 0 l 460 708 l 568 708 l 407 0 m 151 708 l 364 0 l 239 0 l 26 708 l 151 708 m 610 979 l 769 979 l 769 826 l 610 826 l 610 979 m 317 979 l 476 979 l 476 826 l 317 826 l 317 979 z "},"ẁ":{"ha":1086,"x_min":26,"x_max":1060,"o":"m 847 0 l 731 0 l 943 708 l 1060 708 l 847 0 m 635 708 l 794 0 l 681 0 l 519 708 l 635 708 m 407 0 l 300 0 l 460 708 l 568 708 l 407 0 m 151 708 l 364 0 l 239 0 l 26 708 l 151 708 m 692 792 q 687 919 719 864 q 576 976 654 975 q 399 910 499 978 l 399 1001 q 613 1064 525 1072 q 728 981 700 1056 q 713 792 756 906 l 692 792 z "},"x":{"ha":689,"x_min":24,"x_max":668,"o":"m 518 708 l 657 708 l 161 0 l 24 0 l 518 708 m 172 708 l 668 0 l 522 0 l 28 708 l 172 708 z "},"y":{"ha":685,"x_min":17,"x_max":668,"o":"m 299 -278 l 171 -278 l 540 708 l 668 708 l 299 -278 m 275 0 l 17 708 l 144 708 l 403 0 l 275 0 z "},"ý":{"ha":685,"x_min":17,"x_max":668,"o":"m 299 -278 l 171 -278 l 540 708 l 668 708 l 299 -278 m 275 0 l 17 708 l 144 708 l 403 0 l 275 0 m 176 792 q 161 981 133 906 q 276 1064 189 1056 q 490 1001 364 1072 l 490 910 q 313 976 390 978 q 202 919 235 975 q 197 792 169 864 l 176 792 z "},"ŷ":{"ha":685,"x_min":17,"x_max":668,"o":"m 299 -278 l 171 -278 l 540 708 l 668 708 l 299 -278 m 275 0 l 17 708 l 144 708 l 403 0 l 275 0 m 278 818 l 138 818 l 265 989 l 406 989 l 278 818 m 426 989 l 554 818 l 414 818 l 286 989 l 426 989 z "},"ÿ":{"ha":685,"x_min":17,"x_max":668,"o":"m 299 -278 l 171 -278 l 540 708 l 668 708 l 299 -278 m 275 0 l 17 708 l 144 708 l 403 0 l 275 0 m 413 979 l 572 979 l 572 826 l 413 826 l 413 979 m 119 979 l 279 979 l 279 826 l 119 826 l 119 979 z "},"ỳ":{"ha":685,"x_min":17,"x_max":668,"o":"m 299 -278 l 171 -278 l 540 708 l 668 708 l 299 -278 m 275 0 l 17 708 l 144 708 l 403 0 l 275 0 m 494 792 q 490 919 522 864 q 379 976 457 975 q 201 910 301 978 l 201 1001 q 415 1064 328 1072 q 531 981 503 1056 q 515 792 558 906 l 494 792 z "},"ȳ":{"ha":685,"x_min":17,"x_max":668,"o":"m 299 -278 l 171 -278 l 540 708 l 668 708 l 299 -278 m 275 0 l 17 708 l 144 708 l 403 0 l 275 0 m 121 979 l 569 979 l 569 861 l 121 861 l 121 979 z "},"z":{"ha":668,"x_min":49,"x_max":618,"o":"m 49 111 l 615 111 l 615 0 l 49 0 l 49 111 m 204 111 l 49 111 l 463 597 l 618 597 l 204 111 m 63 708 l 618 708 l 618 597 l 63 597 l 63 708 z "},"ź":{"ha":668,"x_min":49,"x_max":618,"o":"m 49 111 l 615 111 l 615 0 l 49 0 l 49 111 m 204 111 l 49 111 l 463 597 l 618 597 l 204 111 m 63 708 l 618 708 l 618 597 l 63 597 l 63 708 m 164 792 q 149 981 121 906 q 264 1064 176 1056 q 478 1001 351 1072 l 478 910 q 300 976 378 978 q 190 919 222 975 q 185 792 157 864 l 164 792 z "},"ž":{"ha":668,"x_min":49,"x_max":618,"o":"m 49 111 l 615 111 l 615 0 l 49 0 l 49 111 m 204 111 l 49 111 l 463 597 l 618 597 l 204 111 m 63 708 l 618 708 l 618 597 l 63 597 l 63 708 z "},"ż":{"ha":668,"x_min":49,"x_max":618,"o":"m 49 111 l 615 111 l 615 0 l 49 0 l 49 111 m 204 111 l 49 111 l 463 597 l 618 597 l 204 111 m 63 708 l 618 708 l 618 597 l 63 597 l 63 708 m 250 979 l 417 979 l 417 825 l 250 825 l 250 979 z "},"⁄":{"ha":822,"x_min":14,"x_max":822,"o":"m 693 1000 l 822 1000 l 143 0 l 14 0 l 693 1000 z "},".":{"ha":426,"x_min":133,"x_max":293,"o":"m 133 160 l 293 160 l 293 0 l 133 0 l 133 160 z "},",":{"ha":521,"x_min":133,"x_max":397,"o":"m 164 160 l 331 160 l 331 0 l 164 0 l 164 160 m 331 0 q 383 -197 397 -111 q 294 -294 368 -283 q 133 -222 221 -306 l 133 -129 q 251 -203 192 -208 q 322 -133 310 -199 q 276 0 333 -67 l 331 0 z "},":":{"ha":426,"x_min":133,"x_max":293,"o":"m 133 599 l 293 599 l 293 439 l 133 439 l 133 599 m 133 160 l 293 160 l 293 0 l 133 0 l 133 160 z "},";":{"ha":521,"x_min":133,"x_max":397,"o":"m 164 160 l 331 160 l 331 0 l 164 0 l 164 160 m 331 0 q 383 -197 397 -111 q 294 -294 368 -283 q 133 -222 221 -306 l 133 -129 q 251 -203 192 -208 q 322 -133 310 -199 q 276 0 333 -67 l 331 0 m 172 599 l 332 599 l 332 439 l 172 439 l 172 599 z "},"…":{"ha":1121,"x_min":133,"x_max":988,"o":"m 828 167 l 988 167 l 988 0 l 828 0 l 828 167 m 481 167 l 640 167 l 640 0 l 481 0 l 481 167 m 133 167 l 293 167 l 293 0 l 133 0 l 133 167 z "},"!":{"ha":426,"x_min":131,"x_max":297,"o":"m 131 167 l 297 167 l 297 0 l 131 0 l 131 167 m 151 944 l 276 944 l 276 300 l 151 300 l 151 944 z "},"¡":{"ha":426,"x_min":131,"x_max":297,"o":"m 297 708 l 297 542 l 131 542 l 131 708 l 297 708 m 276 -278 l 151 -278 l 151 408 l 276 408 l 276 -278 z "},"?":{"ha":950,"x_min":-1,"x_max":831,"o":"m 744 707 q 795 541 824 611 q 644 451 767 471 q 344 479 522 432 l 344 529 q 574 503 472 486 q 701 581 676 521 q 651 707 726 640 l 744 707 m 324 167 l 490 167 l 490 0 l 324 0 l 324 167 m 83 635 q 26 886 -1 778 q 164 1020 53 994 q 421 969 275 1046 l 421 886 q 228 938 321 960 q 115 826 136 917 q 176 635 94 735 l 83 635 m 651 707 q 716 856 735 782 q 606 945 697 931 q 421 886 514 960 l 421 969 q 670 1026 560 1046 q 806 915 781 1007 q 744 707 831 822 l 651 707 m 469 507 l 469 300 l 344 300 l 344 507 l 469 507 z "},"¿":{"ha":950,"x_min":107,"x_max":939,"o":"m 193 1 q 142 167 114 97 q 293 257 171 238 q 593 229 415 276 l 593 179 q 363 205 465 222 q 236 128 261 188 q 286 1 211 68 l 193 1 m 614 542 l 447 542 l 447 708 l 614 708 l 614 542 m 854 74 q 912 -178 939 -69 q 774 -312 885 -286 q 517 -261 663 -337 l 517 -178 q 709 -230 617 -251 q 822 -117 801 -208 q 761 74 843 -26 l 854 74 m 286 1 q 222 -148 203 -74 q 332 -237 240 -222 q 517 -178 424 -251 l 517 -261 q 267 -318 378 -337 q 132 -206 157 -299 q 193 1 107 -114 l 286 1 m 468 201 l 468 408 l 593 408 l 593 201 l 468 201 z "},"·":{"ha":457,"x_min":185,"x_max":344,"o":"m 185 496 l 344 496 l 344 336 l 185 336 l 185 496 z "},"•":{"ha":656,"x_min":147,"x_max":508,"o":"m 147 596 l 508 596 l 508 235 l 147 235 l 147 596 z "},"*":{"ha":614,"x_min":114,"x_max":499,"o":"m 332 729 q 313 602 297 660 q 381 543 329 544 q 499 615 433 542 l 499 522 q 352 451 417 444 q 272 535 288 457 q 306 729 257 614 l 332 729 m 307 729 q 342 535 357 614 q 262 451 326 457 q 114 522 197 444 l 114 615 q 232 543 179 542 q 300 602 285 544 q 281 729 315 660 l 307 729 m 306 729 q 272 923 257 844 q 352 1008 288 1001 q 499 936 417 1014 l 499 843 q 381 915 433 917 q 313 856 329 914 q 332 729 297 799 l 306 729 m 281 729 q 300 856 315 799 q 232 915 285 914 q 114 843 179 917 l 114 936 q 262 1008 197 1014 q 342 923 326 1001 q 307 729 357 844 l 281 729 z "},"#":{"ha":1010,"x_min":71,"x_max":939,"o":"m 71 347 l 860 347 l 860 236 l 71 236 l 71 347 m 150 707 l 939 707 l 939 596 l 150 596 l 150 707 m 731 946 l 846 946 l 604 0 l 489 0 l 731 946 m 410 946 l 525 946 l 283 0 l 168 0 l 410 946 z "},"/":{"ha":544,"x_min":15,"x_max":529,"o":"m 401 1000 l 529 1000 l 143 -83 l 15 -83 l 401 1000 z "},"\\":{"ha":547,"x_min":15,"x_max":532,"o":"m 401 -83 l 15 1000 l 146 1000 l 532 -83 l 401 -83 z "},"(":{"ha":607,"x_min":75,"x_max":561,"o":"m 144 394 q 108 835 75 664 q 262 1056 142 1007 q 561 1024 382 1104 l 561 936 q 326 964 431 1013 q 194 761 222 915 q 238 394 165 607 l 144 394 m 238 394 q 195 21 167 178 q 326 -186 224 -136 q 561 -161 429 -236 l 561 -247 q 261 -277 381 -328 q 109 -53 142 -226 q 144 394 76 121 l 238 394 z "},")":{"ha":607,"x_min":46,"x_max":532,"o":"m 463 394 q 499 835 532 664 q 345 1056 465 1007 q 46 1024 225 1104 l 46 936 q 281 964 176 1013 q 413 761 385 915 q 369 394 442 607 l 463 394 m 369 394 q 412 21 440 178 q 281 -186 383 -136 q 46 -161 178 -236 l 46 -247 q 346 -277 226 -328 q 498 -53 465 -226 q 463 394 531 121 l 369 394 z "},"{":{"ha":560,"x_min":50,"x_max":515,"o":"m 200 188 q 267 303 272 244 q 195 379 263 363 q 50 344 128 396 l 50 399 q 259 436 172 454 q 358 347 346 418 q 293 188 369 275 l 200 188 m 168 63 l 168 188 l 293 188 l 293 63 l 168 63 m 261 63 q 200 -114 178 -29 q 317 -217 222 -199 q 515 -164 413 -236 l 515 -247 q 252 -299 367 -324 q 110 -173 138 -275 q 168 63 82 -71 l 261 63 m 293 590 q 358 431 369 503 q 259 342 346 360 q 50 379 172 324 l 50 433 q 195 399 128 382 q 267 474 263 415 q 200 590 272 533 l 293 590 m 168 590 l 168 715 l 293 715 l 293 590 l 168 590 m 168 715 q 110 951 82 849 q 252 1077 138 1053 q 515 1025 367 1101 l 515 942 q 317 995 413 1014 q 200 892 222 976 q 261 715 178 807 l 168 715 z "},"}":{"ha":560,"x_min":44,"x_max":510,"o":"m 360 188 q 292 303 288 244 q 365 379 297 363 q 510 344 432 396 l 510 399 q 301 436 388 454 q 202 347 214 418 q 267 188 190 275 l 360 188 m 392 63 l 392 188 l 267 188 l 267 63 l 392 63 m 299 63 q 360 -114 382 -29 q 242 -217 338 -199 q 44 -164 147 -236 l 44 -247 q 308 -299 193 -324 q 450 -173 422 -275 q 392 63 478 -71 l 299 63 m 267 590 q 202 431 190 503 q 301 342 214 360 q 510 379 388 324 l 510 433 q 365 399 432 382 q 292 474 297 415 q 360 590 288 533 l 267 590 m 392 590 l 392 715 l 267 715 l 267 590 l 392 590 m 392 715 q 450 951 478 849 q 308 1077 422 1053 q 44 1025 193 1101 l 44 942 q 242 995 147 1014 q 360 892 338 976 q 299 715 382 807 l 392 715 z "},"[":{"ha":568,"x_min":131,"x_max":524,"o":"m 524 -115 l 524 -226 l 256 -226 l 256 -115 l 524 -115 m 524 1000 l 524 889 l 256 889 l 256 1000 l 524 1000 m 131 -226 l 131 1000 l 256 1000 l 256 -226 l 131 -226 z "},"]":{"ha":569,"x_min":46,"x_max":439,"o":"m 46 -115 l 46 -226 l 314 -226 l 314 -115 l 46 -115 m 46 1000 l 46 889 l 314 889 l 314 1000 l 46 1000 m 439 -226 l 439 1000 l 314 1000 l 314 -226 l 439 -226 z "},"-":{"ha":596,"x_min":104,"x_max":493,"o":"m 104 431 l 493 431 l 493 306 l 104 306 l 104 431 z "},"–":{"ha":811,"x_min":103,"x_max":707,"o":"m 103 431 l 707 431 l 707 313 l 103 313 l 103 431 z "},"—":{"ha":1207,"x_min":103,"x_max":1103,"o":"m 103 431 l 1103 431 l 1103 313 l 103 313 l 103 431 z "},"_":{"ha":811,"x_min":103,"x_max":707,"o":"m 103 -104 l 707 -104 l 707 -222 l 103 -222 l 103 -104 z "},"‚":{"ha":521,"x_min":133,"x_max":397,"o":"m 164 160 l 331 160 l 331 0 l 164 0 l 164 160 m 331 0 q 383 -197 397 -111 q 294 -294 368 -283 q 133 -222 221 -306 l 133 -129 q 251 -203 192 -208 q 322 -133 310 -199 q 276 0 333 -67 l 331 0 z "},"„":{"ha":803,"x_min":133,"x_max":679,"o":"z "},"“":{"ha":803,"x_min":124,"x_max":669,"o":"m 357 635 l 190 635 l 190 794 l 357 794 l 357 635 m 190 794 q 138 992 124 906 q 226 1089 153 1078 q 388 1017 300 1100 l 388 924 q 270 998 329 1003 q 199 927 211 993 q 244 794 188 861 l 190 794 m 639 635 l 472 635 l 472 794 l 639 794 l 639 635 m 472 794 q 420 992 406 906 q 508 1089 435 1078 q 669 1017 582 1100 l 669 924 q 552 998 611 1003 q 481 927 493 993 q 526 794 469 861 l 472 794 z "},"”":{"ha":803,"x_min":133,"x_max":679,"o":"m 446 993 l 613 993 l 613 833 l 446 833 l 446 993 m 613 833 q 665 636 679 722 q 576 539 650 550 q 415 611 503 528 l 415 704 q 533 630 474 625 q 603 701 592 635 q 558 833 615 767 l 613 833 m 164 993 l 331 993 l 331 833 l 164 833 l 164 993 m 331 833 q 383 636 397 722 q 294 539 368 550 q 133 611 221 528 l 133 704 q 251 630 192 625 q 322 701 310 635 q 276 833 333 767 l 331 833 z "},"‘":{"ha":521,"x_min":124,"x_max":388,"o":"m 357 635 l 190 635 l 190 794 l 357 794 l 357 635 m 190 794 q 138 992 124 906 q 226 1089 153 1078 q 388 1017 300 1100 l 388 924 q 270 998 329 1003 q 199 927 211 993 q 244 794 188 861 l 190 794 z "},"’":{"ha":521,"x_min":133,"x_max":397,"o":"m 164 993 l 331 993 l 331 833 l 164 833 l 164 993 m 331 833 q 383 636 397 722 q 294 539 368 550 q 133 611 221 528 l 133 704 q 251 630 192 625 q 322 701 310 635 q 276 833 333 767 l 331 833 z "},"«":{"ha":875,"x_min":40,"x_max":831,"o":"m 663 79 l 397 374 l 567 374 l 831 79 l 663 79 m 567 374 l 397 374 l 663 668 l 831 668 l 567 374 m 306 79 l 40 374 l 210 374 l 474 79 l 306 79 m 210 374 l 40 374 l 306 668 l 474 668 l 210 374 z "},"»":{"ha":875,"x_min":43,"x_max":833,"o":"m 213 79 l 478 374 l 308 374 l 44 79 l 213 79 m 308 374 l 478 374 l 213 668 l 44 668 l 308 374 m 569 79 l 835 374 l 665 374 l 401 79 l 569 79 m 665 374 l 835 374 l 569 668 l 401 668 l 665 374 z "},"‹":{"ha":518,"x_min":40,"x_max":474,"o":"m 306 79 l 40 374 l 210 374 l 474 79 l 306 79 m 210 374 l 40 374 l 306 668 l 474 668 l 210 374 z "},"›":{"ha":518,"x_min":43,"x_max":476,"o":"m 213 79 l 478 374 l 308 374 l 44 79 l 213 79 m 308 374 l 478 374 l 213 668 l 44 668 l 308 374 z "},"\"":{"ha":635,"x_min":126,"x_max":508,"o":"m 126 1000 l 244 1000 l 244 628 l 126 628 l 126 1000 m 390 1000 l 508 1000 l 508 628 l 390 628 l 390 1000 z "},"'":{"ha":371,"x_min":126,"x_max":244,"o":"m 126 1000 l 244 1000 l 244 628 l 126 628 l 126 1000 z "},"฿":{"ha":1031,"x_min":124,"x_max":935,"o":"m 414 0 l 539 0 l 539 -185 l 414 -185 l 414 0 m 414 1185 l 539 1185 l 539 1000 l 414 1000 l 414 1185 m 124 1000 l 249 1000 l 249 0 l 124 0 l 124 1000 m 542 0 l 249 0 l 249 113 l 542 113 l 542 0 m 757 289 q 816 438 836 365 q 705 529 796 511 q 513 486 614 547 l 513 561 q 771 610 660 631 q 908 497 882 589 q 849 289 933 406 l 757 289 m 249 457 l 249 569 l 513 569 l 513 457 l 249 457 m 707 738 q 774 887 790 811 q 672 977 757 963 q 500 917 586 992 l 500 1000 q 735 1058 631 1078 q 863 945 840 1038 q 799 738 886 853 l 707 738 m 849 289 q 911 65 935 164 q 782 -56 888 -33 q 542 0 676 -78 l 542 83 q 717 26 631 8 q 822 124 804 43 q 757 289 839 206 l 849 289 m 249 888 l 249 1000 l 500 1000 l 500 888 l 249 888 m 799 738 q 854 610 865 663 q 755 540 843 558 q 513 546 667 522 l 513 565 q 688 565 618 544 q 763 635 757 586 q 707 738 768 683 l 799 738 z "},"¢":{"ha":894,"x_min":56,"x_max":850,"o":"m 394 915 l 519 915 l 519 711 l 394 711 l 394 915 m 394 -3 l 519 -3 l 519 -187 l 394 -187 l 394 -3 m 138 350 q 82 632 57 514 q 215 780 107 750 q 467 732 322 810 l 467 649 q 280 697 369 722 q 171 569 190 671 q 231 350 151 468 l 138 350 m 231 350 q 171 135 151 235 q 281 11 190 36 q 469 60 371 -14 l 469 -24 q 216 -72 325 -101 q 81 74 107 -43 q 138 350 56 190 l 231 350 m 765 269 q 828 43 850 143 q 703 -80 806 -57 q 469 -24 600 -103 l 469 60 q 638 3 554 -15 q 738 103 722 21 q 672 269 754 185 l 765 269 m 665 454 q 733 613 749 533 q 633 708 717 692 q 467 649 550 724 l 467 732 q 697 789 594 810 q 822 672 800 768 q 758 454 844 575 l 665 454 z "},"¤":{"ha":1103,"x_min":103,"x_max":994,"o":"m 261 767 l 129 947 l 275 947 l 408 767 l 261 767 m 828 -35 l 696 146 l 842 146 l 975 -35 l 828 -35 m 829 947 l 975 947 l 843 767 l 696 767 l 829 947 m 263 146 l 408 146 l 276 -35 l 129 -35 l 263 146 m 913 465 q 965 187 994 303 q 821 41 936 71 q 549 88 706 11 l 549 171 q 756 124 658 99 q 876 248 853 149 q 819 465 900 347 l 913 465 m 278 465 q 221 248 197 347 q 342 124 244 149 q 549 171 440 99 l 549 88 q 277 41 393 11 q 132 187 161 71 q 185 465 103 303 l 278 465 m 819 465 q 876 683 900 583 q 756 807 853 782 q 549 760 658 832 l 549 843 q 821 890 706 919 q 965 744 936 860 q 913 465 994 628 l 819 465 m 185 465 q 132 744 103 628 q 277 890 161 860 q 549 843 393 919 l 549 760 q 342 807 440 832 q 221 683 244 782 q 278 465 197 583 l 185 465 z "},"$":{"ha":1114,"x_min":72,"x_max":1033,"o":"m 499 1185 l 610 1185 l 610 -185 l 499 -185 l 499 1185 m 194 747 q 135 964 107 869 q 278 1079 163 1058 q 542 1025 393 1100 l 542 942 q 344 998 440 1014 q 226 905 249 982 q 286 747 203 828 l 194 747 m 821 719 q 878 893 903 810 q 752 994 853 976 q 542 942 651 1013 l 542 1025 q 817 1076 697 1100 q 969 951 938 1051 q 914 719 1000 851 l 821 719 m 286 747 q 229 581 200 663 q 366 487 258 500 q 585 556 474 474 l 585 457 q 299 394 426 374 q 138 515 172 414 q 194 747 103 617 l 286 747 m 850 286 q 911 460 936 375 q 785 560 886 544 q 585 490 685 575 l 585 589 q 850 653 731 675 q 1001 526 969 631 q 943 286 1033 421 l 850 286 m 943 286 q 997 51 1028 151 q 843 -74 965 -50 q 561 -25 721 -99 l 561 58 q 776 6 674 -12 q 906 109 879 25 q 850 286 932 193 l 943 286 m 250 300 q 198 115 169 201 q 334 8 226 28 q 561 58 442 -11 l 561 -25 q 267 -73 393 -99 q 106 56 140 -47 q 158 300 72 160 l 250 300 z "},"€":{"ha":1129,"x_min":103,"x_max":1046,"o":"m 686 329 l 103 329 l 103 426 l 686 426 l 686 329 m 686 526 l 103 526 l 103 624 l 686 624 l 686 526 m 964 338 q 1020 69 1046 182 q 884 -73 994 -44 q 626 -25 774 -101 l 626 58 q 819 9 728 -15 q 931 130 911 33 q 872 338 951 226 l 964 338 m 304 499 q 258 197 229 326 q 393 27 288 67 q 626 58 499 -12 l 626 -25 q 327 -58 450 -100 q 171 131 204 -15 q 211 499 138 278 l 304 499 m 853 679 q 914 877 933 785 q 804 992 894 969 q 615 940 714 1014 l 615 1024 q 869 1074 760 1101 q 1003 938 978 1047 q 944 679 1028 828 l 853 679 m 211 499 q 169 868 138 721 q 322 1058 201 1015 q 615 1024 442 1100 l 615 940 q 388 972 490 1013 q 257 801 285 932 q 304 499 229 671 l 211 499 z "},"ƒ":{"ha":833,"x_min":67,"x_max":761,"o":"m 296 708 l 708 708 l 708 604 l 296 604 l 296 708 m 560 604 q 589 172 631 339 q 410 -46 547 6 q 67 -25 274 -97 l 67 58 q 343 40 222 -10 q 501 240 464 89 q 467 604 539 392 l 560 604 m 435 708 q 376 949 350 844 q 510 1077 401 1053 q 761 1025 619 1101 l 761 942 q 575 996 665 1015 q 465 889 485 976 q 528 708 446 801 l 435 708 z "},"£":{"ha":956,"x_min":108,"x_max":885,"o":"m 692 388 l 108 388 l 108 485 l 692 485 l 692 388 m 338 111 l 213 111 l 213 743 l 338 743 l 338 111 m 108 111 l 796 111 l 796 0 l 108 0 l 108 111 m 213 743 q 149 963 128 865 q 273 1081 171 1060 q 503 1024 375 1101 l 503 940 q 338 999 421 1015 q 239 903 254 982 q 306 743 224 824 l 213 743 m 707 732 q 773 898 789 817 q 673 997 757 979 q 503 940 589 1015 l 503 1024 q 737 1079 633 1101 q 863 958 840 1057 q 799 732 885 858 l 707 732 z "},"¥":{"ha":988,"x_min":68,"x_max":944,"o":"m 732 149 l 149 149 l 149 246 l 732 246 l 732 149 m 788 332 l 204 332 l 204 429 l 788 429 l 788 332 m 429 375 l 68 1000 l 214 1000 l 575 375 l 429 375 m 353 0 l 207 0 l 799 1000 l 944 1000 l 353 0 z "},"+":{"ha":796,"x_min":96,"x_max":700,"o":"m 336 667 l 461 667 l 461 76 l 336 76 l 336 667 m 96 431 l 700 431 l 700 313 l 96 313 l 96 431 z "},"−":{"ha":903,"x_min":150,"x_max":754,"o":"m 150 431 l 754 431 l 754 313 l 150 313 l 150 431 z "},"×":{"ha":781,"x_min":81,"x_max":697,"o":"m 535 118 l 81 624 l 243 624 l 697 118 l 535 118 m 535 624 l 697 624 l 243 118 l 81 118 l 535 624 z "},"÷":{"ha":793,"x_min":94,"x_max":699,"o":"m 94 432 l 699 432 l 699 314 l 94 314 l 94 432 m 314 668 l 481 668 l 481 514 l 314 514 l 314 668 m 314 233 l 481 233 l 481 79 l 314 79 l 314 233 z "},"=":{"ha":903,"x_min":150,"x_max":754,"o":"m 150 313 l 754 313 l 754 194 l 150 194 l 150 313 m 150 549 l 754 549 l 754 431 l 150 431 l 150 549 z "},"≠":{"ha":857,"x_min":147,"x_max":751,"o":"m 292 79 l 171 79 l 539 668 l 660 668 l 292 79 m 147 549 l 751 549 l 751 431 l 147 431 l 147 549 m 147 313 l 751 313 l 751 194 l 147 194 l 147 313 z "},">":{"ha":786,"x_min":93,"x_max":703,"o":"m 96 550 l 96 668 l 703 668 l 703 550 l 96 550 m 532 550 l 703 550 l 263 79 l 93 79 l 532 550 z "},"<":{"ha":797,"x_min":83,"x_max":704,"o":"m 83 668 l 690 668 l 690 550 l 83 550 l 83 668 m 535 79 l 83 550 l 253 550 l 704 79 l 535 79 z "},"≥":{"ha":831,"x_min":108,"x_max":722,"o":"m 118 118 l 722 118 l 722 0 l 118 0 l 118 118 m 722 200 l 115 200 l 115 318 l 722 318 l 722 200 m 297 708 l 722 318 l 533 318 l 108 708 l 297 708 z "},"≤":{"ha":831,"x_min":108,"x_max":722,"o":"m 713 118 l 108 118 l 108 0 l 713 0 l 713 118 m 108 200 l 715 200 l 715 318 l 108 318 l 108 200 m 533 708 l 108 318 l 297 318 l 722 708 l 533 708 z "},"±":{"ha":832,"x_min":114,"x_max":718,"o":"m 114 118 l 718 118 l 718 0 l 114 0 l 114 118 m 354 668 l 479 668 l 479 200 l 354 200 l 354 668 m 114 493 l 718 493 l 718 375 l 114 375 l 114 493 z "},"≈":{"ha":1029,"x_min":94,"x_max":950,"o":"m 865 457 q 934 283 950 363 q 827 186 918 203 q 622 242 736 169 l 622 315 q 765 259 693 247 q 844 335 836 271 q 772 457 853 400 l 865 457 m 379 122 q 311 299 296 218 q 417 396 326 379 q 622 340 508 413 l 622 267 q 480 322 551 335 q 401 245 408 310 q 472 122 393 181 l 379 122 m 664 614 q 733 440 749 519 q 626 343 717 360 q 421 399 535 326 l 421 472 q 563 416 492 404 q 643 492 635 428 q 571 614 651 557 l 664 614 m 178 279 q 110 456 94 375 q 216 553 125 536 q 421 497 307 569 l 421 424 q 278 479 350 492 q 199 402 207 467 q 271 279 192 338 l 178 279 z "},"~":{"ha":899,"x_min":126,"x_max":781,"o":"m 696 531 q 765 356 781 436 q 658 260 749 276 q 453 315 567 243 l 453 389 q 595 333 524 321 q 675 409 667 344 q 603 531 683 474 l 696 531 m 210 196 q 142 372 126 292 q 248 469 157 453 q 453 414 339 486 l 453 340 q 310 396 382 408 q 231 319 239 383 q 303 196 224 254 l 210 196 z "},"¬":{"ha":857,"x_min":104,"x_max":708,"o":"m 583 431 l 708 431 l 708 79 l 583 79 l 583 431 m 104 431 l 708 431 l 708 313 l 104 313 l 104 431 z "},"^":{"ha":721,"x_min":82,"x_max":640,"o":"m 514 564 l 322 944 l 449 944 l 640 564 l 514 564 m 208 564 l 82 564 l 274 944 l 400 944 l 208 564 z "},"∞":{"ha":1179,"x_min":103,"x_max":1078,"o":"m 638 350 q 579 226 572 290 q 644 151 586 163 q 765 206 703 140 l 765 132 q 591 77 667 61 q 504 173 515 93 q 564 350 493 253 l 638 350 m 564 350 q 504 527 493 447 q 591 623 515 607 q 765 568 667 639 l 765 494 q 644 549 703 560 q 579 474 586 538 q 638 350 572 410 l 564 350 m 994 350 q 1064 174 1078 254 q 962 76 1050 93 q 765 132 874 60 l 765 206 q 901 149 832 136 q 975 227 969 161 q 901 350 981 293 l 994 350 m 901 350 q 975 473 981 407 q 901 551 969 539 q 765 494 832 564 l 765 568 q 962 624 874 640 q 1064 526 1050 607 q 994 350 1078 446 l 901 350 m 617 350 q 676 173 686 253 q 589 77 665 93 q 415 132 513 61 l 415 206 q 535 151 476 140 q 601 226 594 163 q 543 350 607 290 l 617 350 m 543 350 q 601 474 607 410 q 535 549 594 538 q 415 494 476 560 l 415 568 q 589 623 513 639 q 676 527 665 607 q 617 350 686 447 l 543 350 m 279 350 q 205 227 199 293 q 280 149 211 161 q 415 206 349 136 l 415 132 q 218 76 306 60 q 117 174 131 93 q 186 350 103 254 l 279 350 m 186 350 q 117 526 103 446 q 218 624 131 607 q 415 568 306 640 l 415 494 q 280 551 349 564 q 205 473 211 539 q 279 350 199 407 l 186 350 z "},"∫":{"ha":664,"x_min":85,"x_max":579,"o":"m 394 0 q 458 -245 485 -136 q 322 -375 432 -354 q 85 -301 213 -396 l 85 -200 q 259 -277 168 -292 q 370 -175 350 -262 q 301 0 390 -87 l 394 0 m 269 708 q 206 953 179 844 q 342 1083 232 1063 q 579 1010 451 1104 l 579 908 q 405 985 496 1000 q 294 883 314 971 q 363 708 274 796 l 269 708 m 394 0 l 269 0 l 269 708 l 394 708 l 394 0 z "},"Ω":{"ha":1094,"x_min":89,"x_max":1007,"o":"m 593 118 l 913 118 l 913 0 l 593 0 l 593 118 m 182 0 l 182 118 l 501 118 l 501 0 l 182 0 m 258 500 q 210 267 194 367 q 306 126 225 168 q 501 111 386 83 l 501 81 q 240 90 339 47 q 122 239 142 132 q 165 500 101 346 l 258 500 m 929 500 q 974 239 994 346 q 854 90 953 132 q 593 81 756 47 l 593 111 q 789 126 708 83 q 885 267 869 168 q 836 500 901 367 l 929 500 m 836 500 q 889 769 914 651 q 764 922 864 888 q 547 885 664 957 l 547 968 q 829 1007 713 1044 q 976 834 946 969 q 929 500 1007 699 l 836 500 m 165 500 q 119 834 89 699 q 266 1007 149 969 q 547 968 383 1044 l 547 885 q 331 922 431 957 q 206 769 232 888 q 258 500 181 651 l 165 500 z "},"∆":{"ha":857,"x_min":81,"x_max":775,"o":"m 210 118 l 81 118 l 338 946 l 465 946 l 210 118 m 518 946 l 775 118 l 646 118 l 390 946 l 518 946 m 81 118 l 775 118 l 775 0 l 81 0 l 81 118 z "},"∏":{"ha":858,"x_min":68,"x_max":790,"o":"m 540 944 l 665 944 l 665 0 l 540 0 l 540 944 m 193 944 l 318 944 l 318 0 l 193 0 l 193 944 m 68 944 l 790 944 l 790 826 l 68 826 l 68 944 z "},"∑":{"ha":801,"x_min":96,"x_max":707,"o":"m 236 118 l 96 118 l 364 472 l 504 472 l 236 118 m 96 118 l 707 118 l 707 0 l 96 0 l 96 118 m 364 472 l 96 826 l 236 826 l 504 472 l 364 472 m 96 944 l 707 944 l 707 826 l 96 826 l 96 944 z "},"√":{"ha":925,"x_min":63,"x_max":865,"o":"m 449 944 l 574 944 l 574 0 l 449 0 l 449 944 m 574 944 l 865 944 l 865 826 l 574 826 l 574 944 m 381 0 l 63 708 l 196 708 l 514 0 l 381 0 z "},"∂":{"ha":1008,"x_min":86,"x_max":919,"o":"m 171 301 q 113 541 86 438 q 251 669 139 644 q 506 617 363 693 l 506 533 q 315 588 408 607 q 202 481 222 568 q 264 301 182 394 l 171 301 m 750 321 q 780 689 818 532 q 624 901 742 846 q 354 886 506 957 l 354 969 q 685 988 550 1046 q 864 753 821 929 q 838 321 907 578 l 750 321 m 838 321 q 891 72 919 183 q 751 -72 863 -40 q 497 -24 640 -103 l 497 60 q 689 10 596 -14 q 805 128 782 35 q 750 321 828 222 l 838 321 m 721 321 q 720 499 742 425 q 642 585 699 574 q 506 533 585 597 l 506 615 q 668 667 603 685 q 751 556 733 649 q 733 321 769 463 l 721 321 m 264 301 q 201 116 182 204 q 311 7 221 28 q 497 60 401 -14 l 497 -24 q 247 -75 356 -100 q 113 56 139 -50 q 171 301 88 163 l 264 301 z "},"µ":{"ha":901,"x_min":149,"x_max":774,"o":"m 272 308 q 269 110 253 194 q 333 10 285 26 q 450 64 381 -6 l 450 -24 q 307 -76 363 -100 q 238 52 251 -53 q 260 308 225 157 l 272 308 m 663 375 q 683 85 696 206 q 610 -69 669 -36 q 450 -24 550 -103 l 450 64 q 580 16 528 -8 q 651 140 632 40 q 650 375 669 239 l 663 375 m 149 708 l 274 708 l 274 -278 l 149 -278 l 149 708 m 774 0 l 649 0 l 649 708 l 774 708 l 774 0 z "},"%":{"ha":1568,"x_min":60,"x_max":1508,"o":"m 619 736 q 679 524 694 622 q 578 400 664 426 q 378 449 492 374 l 378 522 q 517 473 449 453 q 597 574 586 493 q 535 736 607 656 l 619 736 m 535 736 q 597 898 607 817 q 517 999 586 979 q 378 950 449 1019 l 378 1024 q 578 1072 492 1099 q 679 948 664 1046 q 619 736 694 850 l 535 736 m 219 736 q 158 574 147 656 q 237 473 168 493 q 378 522 306 453 l 378 449 q 176 400 263 374 q 75 524 90 426 q 136 736 60 622 l 219 736 m 136 736 q 75 948 60 850 q 176 1072 90 1046 q 378 1024 263 1099 l 378 950 q 237 999 306 1019 q 158 898 168 979 q 219 736 147 817 l 136 736 m 1433 264 q 1493 52 1508 150 q 1392 -72 1478 -46 q 1192 -24 1306 -99 l 1192 50 q 1331 1 1263 -19 q 1410 102 1400 21 q 1349 264 1421 183 l 1433 264 m 1349 264 q 1410 426 1421 344 q 1331 527 1400 507 q 1192 478 1263 547 l 1192 551 q 1392 600 1306 626 q 1493 476 1478 574 q 1433 264 1508 378 l 1349 264 m 1033 264 q 972 102 961 183 q 1051 1 982 21 q 1192 50 1119 -19 l 1192 -24 q 990 -72 1076 -99 q 890 52 904 -46 q 950 264 875 150 l 1033 264 m 950 264 q 890 476 875 378 q 990 600 904 574 q 1192 551 1076 626 l 1192 478 q 1051 527 1119 547 q 972 426 982 507 q 1033 264 961 344 l 950 264 m 1058 1000 l 1188 1000 l 508 0 l 379 0 l 1058 1000 z "},"‰":{"ha":2004,"x_min":60,"x_max":1940,"o":"m 619 736 q 679 524 694 622 q 578 400 664 426 q 378 449 492 374 l 378 522 q 517 473 449 453 q 597 574 586 493 q 535 736 607 656 l 619 736 m 535 736 q 597 898 607 817 q 517 999 586 979 q 378 950 449 1019 l 378 1024 q 578 1072 492 1099 q 679 948 664 1046 q 619 736 694 850 l 535 736 m 219 736 q 158 574 147 656 q 237 473 168 493 q 378 522 306 453 l 378 449 q 176 400 263 374 q 75 524 90 426 q 136 736 60 622 l 219 736 m 136 736 q 75 948 60 850 q 176 1072 90 1046 q 378 1024 263 1099 l 378 950 q 237 999 306 1019 q 158 898 168 979 q 219 736 147 817 l 136 736 m 1433 264 q 1493 52 1508 150 q 1392 -72 1478 -46 q 1192 -24 1306 -99 l 1192 50 q 1331 1 1263 -19 q 1410 102 1400 21 q 1349 264 1421 183 l 1433 264 m 1349 264 q 1410 426 1421 344 q 1331 527 1400 507 q 1192 478 1263 547 l 1192 551 q 1392 600 1306 626 q 1493 476 1478 574 q 1433 264 1508 378 l 1349 264 m 1033 264 q 972 102 961 183 q 1051 1 982 21 q 1192 50 1119 -19 l 1192 -24 q 990 -72 1076 -99 q 890 52 904 -46 q 950 264 875 150 l 1033 264 m 950 264 q 890 476 875 378 q 990 600 904 574 q 1192 551 1076 626 l 1192 478 q 1051 527 1119 547 q 972 426 982 507 q 1033 264 961 344 l 950 264 m 1058 1000 l 1188 1000 l 508 0 l 379 0 l 1058 1000 m 1865 264 q 1925 52 1940 150 q 1824 -72 1910 -46 q 1624 -24 1738 -99 l 1624 50 q 1763 1 1694 -19 q 1842 102 1832 21 q 1781 264 1853 183 l 1865 264 m 1781 264 q 1842 426 1853 344 q 1763 527 1832 507 q 1624 478 1694 547 l 1624 551 q 1824 600 1738 626 q 1925 476 1910 574 q 1865 264 1940 378 l 1781 264 m 1465 264 q 1403 102 1393 183 q 1483 1 1414 21 q 1624 50 1551 -19 l 1624 -24 q 1422 -72 1508 -99 q 1321 52 1336 -46 q 1382 264 1306 150 l 1465 264 m 1382 264 q 1321 476 1306 378 q 1422 600 1336 574 q 1624 551 1508 626 l 1624 478 q 1483 527 1551 547 q 1403 426 1414 507 q 1465 264 1393 344 l 1382 264 z "},"↑":{"ha":760,"x_min":85,"x_max":675,"o":"m 85 543 q 251 491 175 472 q 353 600 326 510 q 340 807 381 690 l 385 807 q 403 533 431 642 q 289 400 375 424 q 85 450 203 376 l 85 543 m 675 450 q 471 400 557 376 q 357 533 385 424 q 375 807 329 642 l 421 807 q 406 600 379 690 q 509 491 433 510 q 675 543 585 472 l 675 450 m 436 729 l 436 0 l 325 0 l 325 729 l 436 729 z "},"→":{"ha":896,"x_min":79,"x_max":815,"o":"m 458 118 q 408 322 385 236 q 541 436 432 408 q 815 418 650 464 l 815 372 q 608 387 699 414 q 499 284 518 360 q 551 118 481 208 l 458 118 m 551 708 q 499 542 481 618 q 608 440 518 467 q 815 454 699 413 l 815 408 q 541 390 650 363 q 408 504 432 418 q 458 708 385 590 l 551 708 m 79 358 l 79 469 l 739 469 l 739 358 l 79 358 z "},"↓":{"ha":760,"x_min":85,"x_max":675,"o":"m 85 357 q 289 407 203 431 q 403 274 375 383 q 385 0 431 165 l 340 0 q 353 207 381 117 q 251 316 326 297 q 85 264 175 335 l 85 357 m 675 264 q 509 316 585 335 q 406 207 433 297 q 421 0 379 117 l 375 0 q 357 274 329 165 q 471 407 385 383 q 675 357 557 431 l 675 264 m 325 807 l 436 807 l 436 78 l 325 78 l 325 807 z "},"←":{"ha":896,"x_min":79,"x_max":815,"o":"m 344 118 q 395 284 414 208 q 286 387 376 360 q 79 372 196 414 l 79 418 q 355 436 246 464 q 487 322 464 408 q 436 118 510 236 l 344 118 m 436 708 q 487 504 510 590 q 355 390 464 418 q 79 408 246 363 l 79 454 q 286 440 196 413 q 395 542 376 467 q 344 708 414 618 l 436 708 m 156 469 l 815 469 l 815 358 l 156 358 l 156 469 z "},"◊":{"ha":808,"x_min":76,"x_max":732,"o":"m 333 0 l 76 500 l 206 500 l 461 0 l 333 0 m 603 500 l 732 500 l 475 0 l 347 0 l 603 500 m 206 500 l 76 500 l 333 1000 l 461 1000 l 206 500 m 475 1000 l 732 500 l 603 500 l 347 1000 l 475 1000 z "},"@":{"ha":1353,"x_min":85,"x_max":1246,"o":"m 1174 429 q 1236 204 1246 306 q 1150 76 1226 103 q 972 125 1074 49 l 972 199 q 1092 149 1032 128 q 1156 256 1151 171 q 1089 429 1160 342 l 1174 429 m 868 328 q 799 213 796 275 q 858 141 801 151 q 972 199 915 131 l 972 125 q 802 69 878 54 q 717 161 726 85 q 785 328 708 238 l 868 328 m 1089 429 q 1115 728 1157 596 q 951 908 1074 860 q 679 894 829 957 l 679 968 q 1015 983 875 1036 q 1199 779 1154 929 q 1174 429 1243 629 l 1089 429 m 240 429 q 217 131 172 263 q 391 -48 263 -1 q 679 -28 519 -94 l 679 -110 q 328 -130 475 -183 q 133 75 182 -76 q 157 429 85 226 l 240 429 m 157 429 q 134 778 86 629 q 328 981 182 928 q 679 968 474 1035 l 679 894 q 391 908 519 956 q 217 728 263 860 q 240 429 172 597 l 157 429 m 789 444 q 808 213 819 299 q 752 113 797 126 q 643 157 707 99 l 643 236 q 726 190 693 188 q 776 238 760 192 q 789 367 792 285 q 785 404 788 385 q 782 444 783 424 l 789 444 m 782 444 q 785 485 783 465 q 789 522 788 504 q 776 651 792 604 q 726 699 760 697 q 643 653 693 701 l 643 732 q 752 776 707 790 q 808 676 797 763 q 789 444 819 590 l 782 444 m 490 444 q 422 283 413 365 q 503 181 432 200 q 643 236 574 161 l 643 157 q 441 104 529 79 q 338 228 353 129 q 403 444 322 328 l 490 444 m 403 444 q 338 660 322 561 q 441 785 353 760 q 643 732 529 810 l 643 653 q 503 708 574 728 q 422 606 432 689 q 490 444 413 524 l 403 444 m 782 328 l 782 708 l 893 708 l 893 328 l 782 328 z "},"&":{"ha":1174,"x_min":69,"x_max":1101,"o":"m 494 671 q 485 286 422 447 q 714 68 547 125 q 1101 78 881 11 l 1101 -14 q 647 -24 833 -85 q 394 217 461 36 q 401 671 328 397 l 494 671 m 956 754 q 998 597 1031 661 q 833 511 965 532 q 489 519 700 490 l 489 546 q 759 544 647 522 q 901 624 871 567 q 863 754 932 682 l 956 754 m 153 289 q 103 457 83 388 q 223 551 122 526 q 489 546 324 575 l 489 519 q 290 518 371 544 q 196 429 210 492 q 246 289 182 367 l 153 289 m 933 471 q 975 122 1011 261 q 810 -58 939 -18 q 497 -25 682 -99 l 497 58 q 743 25 632 -12 q 886 186 854 63 q 840 471 918 310 l 933 471 m 246 289 q 185 110 164 196 q 302 6 207 25 q 497 58 397 -14 l 497 -25 q 238 -76 351 -101 q 97 51 124 -51 q 153 289 69 154 l 246 289 m 863 754 q 936 876 947 810 q 848 953 925 943 q 700 885 771 963 l 700 969 q 910 1033 814 1049 q 1026 933 1007 1017 q 956 754 1044 850 l 863 754 m 401 671 q 340 899 317 799 q 466 1024 363 1000 q 700 969 569 1049 l 700 886 q 529 942 614 961 q 428 840 444 924 q 494 671 413 757 l 401 671 z "},"¶":{"ha":1008,"x_min":71,"x_max":867,"o":"m 742 -226 l 742 1000 l 867 1000 l 867 -226 l 742 -226 m 489 -226 l 489 1000 l 614 1000 l 614 -226 l 489 -226 m 156 696 q 97 928 71 828 q 235 1053 124 1029 q 489 1000 346 1076 l 489 917 q 300 972 392 990 q 188 869 208 953 q 249 696 167 785 l 156 696 m 249 696 q 188 518 167 604 q 300 413 208 432 q 489 467 392 393 l 489 383 q 235 331 346 307 q 98 458 124 356 q 156 696 72 561 l 249 696 z "},"§":{"ha":1015,"x_min":89,"x_max":917,"o":"m 301 785 q 235 649 218 718 q 337 566 251 579 q 510 624 422 553 l 510 544 q 272 490 378 472 q 144 594 167 508 q 208 785 122 679 l 301 785 m 208 785 q 144 978 121 892 q 273 1083 167 1065 q 511 1024 379 1100 l 511 940 q 338 1002 425 1014 q 234 920 251 990 q 301 785 217 850 l 208 785 m 726 758 q 792 909 810 833 q 686 999 774 985 q 511 940 599 1014 l 511 1024 q 751 1081 644 1100 q 882 968 858 1061 q 819 758 906 875 l 726 758 m 274 388 q 206 238 185 315 q 318 151 226 161 q 496 226 410 140 l 496 128 q 253 57 365 39 q 115 173 142 75 q 181 388 89 271 l 274 388 m 181 388 q 123 535 101 471 q 251 615 144 599 q 510 583 357 632 l 510 535 q 317 565 403 579 q 215 496 231 550 q 274 388 200 442 l 181 388 m 704 -8 q 770 128 786 58 q 669 210 754 197 q 496 153 583 224 l 496 232 q 733 286 628 304 q 860 183 838 268 q 797 -8 883 97 l 704 -8 m 797 -8 q 861 -202 885 -115 q 732 -306 838 -289 q 494 -247 626 -324 l 494 -164 q 667 -226 581 -237 q 771 -144 754 -214 q 704 -8 788 -74 l 797 -8 m 279 18 q 213 -133 196 -57 q 318 -223 231 -208 q 494 -164 406 -237 l 494 -247 q 253 -304 360 -324 q 122 -192 146 -285 q 186 18 99 -99 l 279 18 m 732 386 q 800 537 821 460 q 687 625 779 614 q 510 550 594 636 l 510 647 q 751 719 640 738 q 890 602 863 700 q 825 386 917 504 l 732 386 m 825 386 q 883 240 904 304 q 755 159 861 175 q 496 192 649 143 l 496 240 q 688 210 601 196 q 790 279 774 225 q 732 386 806 333 l 825 386 z "},"©":{"ha":1261,"x_min":92,"x_max":1169,"o":"m 778 567 q 844 676 850 617 q 772 745 838 736 q 643 686 707 754 l 643 760 q 831 818 747 832 q 926 729 914 804 q 861 567 939 654 l 778 567 m 865 393 q 930 222 943 301 q 834 128 917 143 q 646 185 751 113 l 646 258 q 775 201 710 190 q 847 274 840 211 q 782 393 854 338 l 865 393 m 474 468 q 414 309 401 389 q 499 209 426 229 q 646 258 571 189 l 646 185 q 438 137 528 111 q 331 259 349 163 q 389 468 314 356 l 474 468 m 389 468 q 331 682 314 583 q 436 808 347 781 q 643 760 525 835 l 643 686 q 497 735 569 756 q 413 633 425 714 q 474 468 401 551 l 389 468 m 1099 472 q 1128 146 1169 286 q 953 -44 1088 6 q 631 -24 819 -93 l 631 50 q 890 30 774 -14 q 1045 197 1007 74 q 1015 472 1083 319 l 1099 472 m 1015 472 q 1045 748 1083 625 q 890 915 1007 871 q 631 894 774 958 l 631 968 q 953 988 819 1038 q 1128 799 1088 939 q 1099 472 1169 658 l 1015 472 m 247 472 q 216 197 178 319 q 372 30 254 74 q 631 50 489 -14 l 631 -24 q 309 -44 443 -93 q 133 146 175 6 q 163 472 92 286 l 247 472 m 163 472 q 133 799 92 658 q 309 988 175 939 q 631 968 443 1038 l 631 894 q 372 915 489 958 q 216 748 254 871 q 247 472 178 625 l 163 472 z "},"®":{"ha":1261,"x_min":89,"x_max":1167,"o":"m 654 497 l 654 406 l 476 406 l 476 497 l 654 497 m 843 579 q 906 439 915 503 q 824 365 897 375 q 654 414 751 354 l 654 482 q 769 427 714 421 q 828 485 825 433 q 765 579 832 538 l 843 579 m 654 747 l 654 656 l 476 656 l 476 747 l 654 747 m 749 200 q 790 322 799 268 q 716 401 781 376 q 546 410 651 426 l 546 431 q 780 428 697 451 q 874 346 863 406 q 832 200 886 286 l 749 200 m 765 579 q 828 676 832 624 q 769 735 825 728 q 654 679 714 742 l 654 747 q 824 803 749 813 q 908 726 899 793 q 843 579 917 660 l 765 579 m 388 747 l 485 747 l 485 200 l 388 200 l 388 747 m 1096 472 q 1125 146 1167 286 q 949 -44 1083 6 q 628 -24 815 -93 l 628 50 q 887 30 769 -14 q 1042 197 1004 74 q 1011 472 1081 319 l 1096 472 m 1011 472 q 1042 748 1081 625 q 887 915 1004 871 q 628 894 769 958 l 628 968 q 949 988 815 1038 q 1125 799 1083 939 q 1096 472 1167 658 l 1011 472 m 243 472 q 213 197 175 319 q 368 30 251 74 q 628 50 485 -14 l 628 -24 q 305 -44 439 -93 q 130 146 171 6 q 160 472 89 286 l 243 472 m 160 472 q 130 799 89 658 q 305 988 171 939 q 628 968 439 1038 l 628 894 q 368 915 485 958 q 213 748 251 871 q 243 472 175 625 l 160 472 z "},"℗":{"ha":1261,"x_min":90,"x_max":1168,"o":"m 661 497 l 661 406 l 519 406 l 519 497 l 661 497 m 850 576 q 915 428 924 496 q 831 351 906 361 q 661 406 757 340 l 661 474 q 777 419 721 411 q 836 479 833 426 q 772 576 839 532 l 850 576 m 661 747 l 661 656 l 519 656 l 519 747 l 661 747 m 772 576 q 836 674 839 621 q 777 734 833 726 q 661 679 721 742 l 661 747 q 831 802 757 813 q 915 724 906 792 q 850 576 924 657 l 772 576 m 422 747 l 519 747 l 519 200 l 422 200 l 422 747 m 1097 472 q 1126 146 1168 286 q 951 -44 1085 6 q 629 -24 817 -93 l 629 50 q 888 30 771 -14 q 1044 197 1006 74 q 1013 472 1082 319 l 1097 472 m 1013 472 q 1044 748 1082 625 q 888 915 1006 871 q 629 894 771 958 l 629 968 q 951 988 817 1038 q 1126 799 1085 939 q 1097 472 1168 658 l 1013 472 m 244 472 q 215 197 176 319 q 369 30 253 74 q 629 50 486 -14 l 629 -24 q 306 -44 440 -93 q 131 146 172 6 q 161 472 90 286 l 244 472 m 161 472 q 131 799 90 658 q 306 988 172 939 q 629 968 440 1038 l 629 894 q 369 915 486 958 q 215 748 253 871 q 244 472 176 625 l 161 472 z "},"™":{"ha":1368,"x_min":69,"x_max":1226,"o":"m 888 451 l 707 1000 l 794 1000 l 975 451 l 888 451 m 1079 1000 l 1167 1000 l 986 451 l 899 451 l 1079 1000 m 1129 1000 l 1226 1000 l 1226 451 l 1129 451 l 1129 1000 m 646 1000 l 743 1000 l 743 451 l 646 451 l 646 1000 m 568 1000 l 568 908 l 69 908 l 69 1000 l 568 1000 m 271 908 l 368 908 l 368 451 l 271 451 l 271 908 z "},"°":{"ha":876,"x_min":108,"x_max":768,"o":"m 681 792 q 751 601 768 689 q 642 497 735 514 q 438 560 549 479 l 438 643 q 579 578 506 567 q 663 660 653 590 q 589 792 672 731 l 681 792 m 288 792 q 214 660 204 731 q 297 578 224 590 q 438 643 371 567 l 438 560 q 235 497 328 479 q 125 601 142 514 q 194 792 108 689 l 288 792 m 589 792 q 663 923 672 853 q 579 1005 653 993 q 438 940 506 1017 l 438 1024 q 642 1087 549 1104 q 751 982 735 1069 q 681 792 768 894 l 589 792 m 194 792 q 125 982 108 894 q 235 1087 142 1069 q 438 1024 328 1104 l 438 940 q 297 1005 371 1017 q 214 923 224 993 q 288 792 204 853 l 194 792 z "},"|":{"ha":431,"x_min":153,"x_max":278,"o":"m 153 -226 l 153 1000 l 278 1000 l 278 -226 l 153 -226 z "},"¦":{"ha":421,"x_min":151,"x_max":269,"o":"m 151 192 l 269 192 l 269 -225 l 151 -225 l 151 192 m 151 1000 l 269 1000 l 269 583 l 151 583 l 151 1000 z "},"†":{"ha":711,"x_min":69,"x_max":642,"o":"m 642 604 l 69 604 l 69 708 l 642 708 l 642 604 m 293 -226 l 293 1000 l 418 1000 l 418 -226 l 293 -226 z "},"‡":{"ha":714,"x_min":71,"x_max":643,"o":"m 643 93 l 71 93 l 71 197 l 643 197 l 643 93 m 294 -226 l 294 1000 l 419 1000 l 419 -226 l 294 -226 m 643 604 l 71 604 l 71 708 l 643 708 l 643 604 z "},"№":{"ha":1879,"x_min":132,"x_max":1775,"o":"m 1693 606 q 1750 336 1775 450 q 1619 194 1725 222 q 1369 243 1513 165 l 1369 326 q 1554 276 1465 251 q 1662 398 1643 301 q 1600 606 1681 494 l 1693 606 m 1139 606 q 1077 398 1058 494 q 1185 276 1096 301 q 1369 326 1274 251 l 1369 243 q 1120 194 1226 165 q 989 336 1014 222 q 1046 606 964 450 l 1139 606 m 1600 606 q 1662 813 1681 717 q 1554 935 1643 910 q 1369 885 1465 960 l 1369 968 q 1619 1017 1513 1046 q 1750 875 1725 989 q 1693 606 1775 761 l 1600 606 m 1046 606 q 989 875 964 761 q 1120 1017 1014 989 q 1369 968 1226 1046 l 1369 885 q 1185 935 1274 960 q 1077 813 1096 910 q 1139 606 1058 717 l 1046 606 m 1069 118 l 1674 118 l 1674 0 l 1069 0 l 1069 118 m 769 0 l 156 1000 l 288 1000 l 901 0 l 769 0 m 132 1000 l 257 1000 l 257 0 l 132 0 l 132 1000 m 793 1000 l 918 1000 l 918 0 l 793 0 l 793 1000 z "},"̈":{"ha":0,"x_min":-668,"x_max":-215,"o":"m -375 958 l -215 958 l -215 806 l -375 806 l -375 958 m -668 958 l -508 958 l -508 806 l -668 806 l -668 958 z "},"̇":{"ha":0,"x_min":-499,"x_max":-332,"o":"m -499 958 l -332 958 l -332 804 l -499 804 l -499 958 z "},"̀":{"ha":0,"x_min":-578,"x_max":-221,"o":"m -285 771 q -290 899 -257 843 q -400 956 -322 954 q -578 889 -478 957 l -578 981 q -364 1043 -451 1051 q -249 960 -276 1035 q -264 771 -221 885 l -285 771 z "},"́":{"ha":0,"x_min":-596,"x_max":-239,"o":"m -553 771 q -568 960 -596 885 q -453 1043 -540 1035 q -239 981 -365 1051 l -239 889 q -417 956 -339 957 q -527 899 -494 954 q -532 771 -560 843 l -553 771 z "},"̋":{"ha":0,"x_min":-618,"x_max":-119,"o":"m -312 771 q -343 968 -358 890 q -265 1052 -328 1046 q -119 982 -201 1058 l -119 889 q -237 960 -185 961 q -305 901 -289 960 q -290 771 -321 843 l -312 771 m -572 771 q -603 968 -618 890 q -524 1052 -587 1046 q -379 982 -461 1058 l -379 889 q -497 960 -444 961 q -565 901 -549 960 q -550 771 -581 843 l -572 771 z "},"̂":{"ha":0,"x_min":-639,"x_max":-222,"o":"m -499 797 l -639 797 l -511 968 l -371 968 l -499 797 m -350 968 l -222 797 l -362 797 l -490 968 l -350 968 z "},"̌":{"ha":0,"x_min":-639,"x_max":-222,"o":"m -499 968 l -639 968 l -511 797 l -371 797 l -499 968 m -350 797 l -222 968 l -362 968 l -490 797 l -350 797 z "},"̆":{"ha":0,"x_min":-712,"x_max":-126,"o":"m -535 968 q -612 858 -615 919 q -544 787 -608 797 q -419 846 -479 776 l -419 772 q -605 715 -521 700 q -701 806 -689 729 q -628 968 -712 882 l -535 968 m -211 969 q -138 806 -126 883 q -234 715 -150 729 q -419 772 -318 700 l -419 846 q -295 787 -360 776 q -227 858 -231 797 q -304 969 -224 919 l -211 969 z "},"̊":{"ha":0,"x_min":-649,"x_max":-218,"o":"m -589 917 q -644 1049 -649 996 q -581 1109 -640 1103 q -433 1065 -521 1115 l -433 1011 q -535 1051 -493 1057 q -576 1001 -578 1044 q -524 917 -574 958 l -589 917 m -343 917 q -291 1001 -293 958 q -331 1051 -289 1044 q -433 1011 -374 1057 l -433 1065 q -286 1109 -346 1115 q -222 1049 -226 1103 q -278 917 -218 996 l -343 917 m -524 917 q -576 832 -574 875 q -535 783 -578 789 q -433 822 -493 776 l -433 768 q -581 724 -521 718 q -644 784 -640 731 q -589 917 -649 838 l -524 917 m -278 917 q -222 784 -218 838 q -286 724 -226 731 q -433 768 -346 718 l -433 822 q -331 783 -374 776 q -291 832 -289 789 q -343 917 -293 875 l -278 917 z "},"̃":{"ha":0,"x_min":-697,"x_max":-94,"o":"m -181 1000 q -107 858 -94 926 q -206 778 -119 790 q -396 839 -293 767 l -396 913 q -268 851 -335 844 q -197 910 -201 857 q -274 1000 -192 963 l -181 1000 m -611 776 q -685 918 -697 850 q -585 998 -672 986 q -396 938 -499 1010 l -396 864 q -524 926 -457 932 q -595 867 -590 919 q -518 776 -600 814 l -611 776 z "},"̄":{"ha":0,"x_min":-647,"x_max":-199,"o":"m -647 958 l -199 958 l -199 840 l -647 840 l -647 958 z "},"̒":{"ha":0,"x_min":-607,"x_max":-358,"o":"m -382 793 l -549 793 l -549 933 l -382 933 l -382 793 m -549 933 q -596 1093 -607 1026 q -517 1166 -585 1160 q -358 1108 -450 1172 l -358 1035 q -476 1091 -424 1094 q -537 1037 -529 1088 q -497 933 -544 986 l -549 933 z "},"̣":{"ha":0,"x_min":-499,"x_max":-332,"o":"m -499 -124 l -332 -124 l -332 -278 l -499 -278 l -499 -124 z "},"̦":{"ha":0,"x_min":-549,"x_max":-300,"o":"m -525 -78 l -358 -78 l -358 -218 l -525 -218 l -525 -78 m -358 -218 q -311 -378 -300 -311 q -390 -451 -322 -444 q -549 -393 -457 -457 l -549 -319 q -431 -376 -483 -379 q -370 -322 -378 -372 q -410 -218 -362 -271 l -358 -218 z "},"̧":{"ha":0,"x_min":-490,"x_max":-114,"o":"m -232 -87 q -188 17 -179 -36 q -252 71 -197 69 q -365 4 -307 72 l -365 88 q -210 154 -281 160 q -128 78 -140 149 q -179 -87 -115 7 l -232 -87 m -179 -87 q -141 -269 -114 -192 q -266 -356 -168 -346 q -490 -289 -364 -365 l -490 -196 q -314 -267 -397 -269 q -203 -207 -231 -265 q -232 -87 -175 -149 l -179 -87 z "},"̨":{"ha":0,"x_min":-499,"x_max":-231,"o":"m -410 -22 q -435 -156 -451 -93 q -359 -223 -418 -219 q -231 -151 -300 -226 l -231 -244 q -394 -314 -324 -324 q -482 -222 -465 -304 q -444 -22 -499 -139 l -410 -22 z "},"̷":{"ha":0,"x_min":-811,"x_max":-32,"o":"m -710 0 l -811 0 l -133 708 l -32 708 l -710 0 z "},"̸":{"ha":0,"x_min":-936,"x_max":15,"o":"m -812 0 l -936 0 l -108 971 l 15 971 l -812 0 z "}}}
